<ttFont>
    <TTGlyph name=".notdef" xMin="80" yMin="0" xMax="556" yMax="660">
      <contour>
        <pt x="496" y="95" on="1"/>
        <pt x="496" y="565" on="1"/>
        <pt x="348" y="330" on="1"/>
      </contour>
      <contour>
        <pt x="464" y="50" on="1"/>
        <pt x="318" y="282" on="1"/>
        <pt x="172" y="50" on="1"/>
      </contour>
      <contour>
        <pt x="140" y="95" on="1"/>
        <pt x="288" y="330" on="1"/>
        <pt x="140" y="565" on="1"/>
      </contour>
      <contour>
        <pt x="172" y="610" on="1"/>
        <pt x="318" y="378" on="1"/>
        <pt x="464" y="610" on="1"/>
      </contour>
      <contour>
        <pt x="556" y="0" on="1"/>
        <pt x="80" y="0" on="1"/>
        <pt x="80" y="660" on="1"/>
        <pt x="556" y="660" on="1"/>
      </contour>
    </TTGlyph>
    <TTGlyph name="A" xMin="5" yMin="0" xMax="662" yMax="662">
      <contour>
        <pt x="397" y="262" on="1"/>
        <pt x="308" y="517" on="1"/>
        <pt x="216" y="262" on="1"/>
      </contour>
      <contour>
        <pt x="662" y="45" on="1"/>
        <pt x="662" y="0" on="1"/>
        <pt x="379" y="0" on="1"/>
        <pt x="379" y="45" on="1"/>
        <pt x="468" y="56" on="1"/>
        <pt x="414" y="211" on="1"/>
        <pt x="198" y="211" on="1"/>
        <pt x="143" y="59" on="1"/>
        <pt x="232" y="46" on="1"/>
        <pt x="232" y="0" on="1"/>
        <pt x="5" y="0" on="1"/>
        <pt x="5" y="46" on="1"/>
        <pt x="91" y="59" on="1"/>
        <pt x="310" y="662" on="1"/>
        <pt x="370" y="662" on="1"/>
        <pt x="592" y="53" on="1"/>
      </contour>
    </TTGlyph>
    <TTGlyph name="AE" xMin="8" yMin="0" xMax="888" yMax="662">
      <contour>
        <pt x="273" y="294" on="1"/>
        <pt x="443" y="294" on="1"/>
        <pt x="443" y="601" on="1"/>
        <pt x="434" y="601" on="1"/>
      </contour>
      <contour>
        <pt x="888" y="176" on="1"/>
        <pt x="881" y="0" on="1"/>
        <pt x="357" y="0" on="1"/>
        <pt x="357" y="46" on="1"/>
        <pt x="441" y="55" on="1"/>
        <pt x="442" y="100" on="0"/>
        <pt x="443" y="192" on="0"/>
        <pt x="443" y="243" on="1"/>
        <pt x="246" y="243" on="1"/>
        <pt x="150" y="59" on="1"/>
        <pt x="235" y="46" on="1"/>
        <pt x="235" y="0" on="1"/>
        <pt x="8" y="0" on="1"/>
        <pt x="8" y="46" on="1"/>
        <pt x="86" y="57" on="1"/>
        <pt x="376" y="607" on="1"/>
        <pt x="292" y="616" on="1"/>
        <pt x="292" y="662" on="1"/>
        <pt x="861" y="662" on="1"/>
        <pt x="868" y="486" on="1"/>
        <pt x="801" y="486" on="1"/>
        <pt x="780" y="609" on="1"/>
        <pt x="565" y="609" on="1"/>
        <pt x="563" y="549" on="0"/>
        <pt x="563" y="428" on="0"/>
        <pt x="563" y="366" on="1"/>
        <pt x="702" y="366" on="1"/>
        <pt x="715" y="458" on="1"/>
        <pt x="765" y="458" on="1"/>
        <pt x="765" y="224" on="1"/>
        <pt x="715" y="224" on="1"/>
        <pt x="703" y="315" on="1"/>
        <pt x="563" y="315" on="1"/>
        <pt x="563" y="245" on="0"/>
        <pt x="563" y="115" on="0"/>
        <pt x="565" y="52" on="1"/>
        <pt x="800" y="52" on="1"/>
        <pt x="821" y="176" on="1"/>
      </contour>
    </TTGlyph>
    <TTGlyph name="Aacute" xMin="5" yMin="0" xMax="662" yMax="878">
      <component glyphName="A" x="0" y="0" flags="0x204"/>
      <component glyphName="acutecmb.cap" x="345" y="0" flags="0x4"/>
    </TTGlyph>
    <TTGlyph name="Abreve" xMin="5" yMin="0" xMax="662" yMax="862">
      <component glyphName="A" x="0" y="0" flags="0x204"/>
      <component glyphName="brevecmb.cap" x="340" y="-9" flags="0x4"/>
    </TTGlyph>
    <TTGlyph name="Acircumflex" xMin="5" yMin="0" xMax="662" yMax="848">
      <component glyphName="A" x="0" y="0" flags="0x204"/>
      <component glyphName="circumflexcmb.cap" x="338" y="-19" flags="0x4"/>
    </TTGlyph>
    <TTGlyph name="Adieresis" xMin="5" yMin="0" xMax="662" yMax="848">
      <component glyphName="A" x="0" y="0" flags="0x204"/>
      <component glyphName="dieresiscmb.cap" x="342" y="0" flags="0x4"/>
    </TTGlyph>
    <TTGlyph name="Agrave" xMin="5" yMin="0" xMax="662" yMax="878">
      <component glyphName="A" x="0" y="0" flags="0x204"/>
      <component glyphName="gravecmb.cap" x="332" y="0" flags="0x4"/>
    </TTGlyph>
    <TTGlyph name="Amacron" xMin="5" yMin="0" xMax="662" yMax="813">
      <component glyphName="A" x="0" y="0" flags="0x204"/>
      <component glyphName="macroncmb.cap" x="336" y="0" flags="0x4"/>
    </TTGlyph>
    <TTGlyph name="Aogonek" xMin="5" yMin="-226" xMax="662" yMax="662">
      <component glyphName="A" x="0" y="0" flags="0x204"/>
      <component glyphName="uni0328" x="549" y="0" flags="0x4"/>
    </TTGlyph>
    <TTGlyph name="Aring" xMin="5" yMin="0" xMax="662" yMax="908">
      <component glyphName="A" x="0" y="0" flags="0x204"/>
      <component glyphName="ringcmb.cap" x="336" y="0" flags="0x4"/>
    </TTGlyph>
    <TTGlyph name="Atilde" xMin="5" yMin="0" xMax="662" yMax="850">
      <component glyphName="A" x="0" y="0" flags="0x204"/>
      <component glyphName="tildecmb.cap" x="338" y="0" flags="0x4"/>
    </TTGlyph>
    <TTGlyph name="B" xMin="38" yMin="0" xMax="598" yMax="662">
      <contour>
        <pt x="294" y="51" on="1"/>
        <pt x="395" y="51" on="0"/>
        <pt x="476" y="122" on="0"/>
        <pt x="476" y="186" on="1"/>
        <pt x="476" y="255" on="0"/>
        <pt x="392" y="320" on="0"/>
        <pt x="295" y="320" on="1"/>
        <pt x="247" y="320" on="1"/>
        <pt x="247" y="248" on="0"/>
        <pt x="247" y="116" on="0"/>
        <pt x="249" y="51" on="1"/>
      </contour>
      <contour>
        <pt x="249" y="611" on="1"/>
        <pt x="247" y="551" on="0"/>
        <pt x="247" y="431" on="0"/>
        <pt x="247" y="370" on="1"/>
        <pt x="292" y="370" on="1"/>
        <pt x="373" y="370" on="0"/>
        <pt x="447" y="430" on="0"/>
        <pt x="447" y="493" on="1"/>
        <pt x="447" y="556" on="0"/>
        <pt x="379" y="611" on="0"/>
        <pt x="308" y="611" on="1"/>
      </contour>
      <contour>
        <pt x="340" y="662" on="1"/>
        <pt x="452" y="662" on="0"/>
        <pt x="563" y="571" on="0"/>
        <pt x="563" y="498" on="1"/>
        <pt x="563" y="448" on="0"/>
        <pt x="502" y="365" on="0"/>
        <pt x="429" y="348" on="1"/>
        <pt x="475" y="340" on="0"/>
        <pt x="539" y="309" on="0"/>
        <pt x="580" y="267" on="0"/>
        <pt x="598" y="214" on="0"/>
        <pt x="598" y="185" on="1"/>
        <pt x="598" y="151" on="0"/>
        <pt x="571" y="85" on="0"/>
        <pt x="505" y="32" on="0"/>
        <pt x="392" y="0" on="0"/>
        <pt x="307" y="0" on="1"/>
        <pt x="38" y="0" on="1"/>
        <pt x="38" y="46" on="1"/>
        <pt x="124" y="55" on="1"/>
        <pt x="126" y="118" on="0"/>
        <pt x="126" y="245" on="0"/>
        <pt x="126" y="310" on="1"/>
        <pt x="126" y="352" on="1"/>
        <pt x="126" y="416" on="0"/>
        <pt x="126" y="543" on="0"/>
        <pt x="124" y="607" on="1"/>
        <pt x="38" y="616" on="1"/>
        <pt x="38" y="662" on="1"/>
      </contour>
    </TTGlyph>
    <TTGlyph name="C" xMin="38" yMin="-15" xMax="589" yMax="677">
      <contour>
        <pt x="589" y="181" on="1"/>
        <pt x="585" y="32" on="1"/>
        <pt x="496" y="-15" on="0"/>
        <pt x="384" y="-15" on="1"/>
        <pt x="307" y="-15" on="0"/>
        <pt x="180" y="32" on="0"/>
        <pt x="89" y="121" on="0"/>
        <pt x="38" y="250" on="0"/>
        <pt x="38" y="331" on="1"/>
        <pt x="38" y="411" on="0"/>
        <pt x="91" y="539" on="0"/>
        <pt x="185" y="629" on="0"/>
        <pt x="313" y="677" on="0"/>
        <pt x="389" y="677" on="1"/>
        <pt x="434" y="677" on="0"/>
        <pt x="527" y="657" on="0"/>
        <pt x="575" y="629" on="1"/>
        <pt x="579" y="480" on="1"/>
        <pt x="508" y="480" on="1"/>
        <pt x="488" y="603" on="1"/>
        <pt x="441" y="624" on="0"/>
        <pt x="395" y="624" on="1"/>
        <pt x="348" y="624" on="0"/>
        <pt x="266" y="586" on="0"/>
        <pt x="205" y="512" on="0"/>
        <pt x="170" y="403" on="0"/>
        <pt x="170" y="331" on="1"/>
        <pt x="170" y="259" on="0"/>
        <pt x="203" y="150" on="0"/>
        <pt x="263" y="76" on="0"/>
        <pt x="344" y="38" on="0"/>
        <pt x="392" y="38" on="1"/>
        <pt x="418" y="38" on="0"/>
        <pt x="472" y="49" on="0"/>
        <pt x="498" y="60" on="1"/>
        <pt x="518" y="181" on="1"/>
      </contour>
    </TTGlyph>
    <TTGlyph name="Cacute" xMin="38" yMin="-15" xMax="589" yMax="878">
      <component glyphName="C" x="0" y="0" flags="0x204"/>
      <component glyphName="acutecmb.cap" x="385" y="0" flags="0x4"/>
    </TTGlyph>
    <TTGlyph name="Ccaron" xMin="38" yMin="-15" xMax="589" yMax="867">
      <component glyphName="C" x="0" y="0" flags="0x204"/>
      <component glyphName="caroncmb.cap" x="377" y="0" flags="0x4"/>
    </TTGlyph>
    <TTGlyph name="Ccedilla" xMin="38" yMin="-226" xMax="589" yMax="677">
      <component glyphName="C" x="0" y="0" flags="0x204"/>
      <component glyphName="uni0327" x="363" y="0" flags="0x4"/>
    </TTGlyph>
    <TTGlyph name="D" xMin="38" yMin="0" xMax="662" yMax="662">
      <contour>
        <pt x="311" y="51" on="1"/>
        <pt x="360" y="51" on="0"/>
        <pt x="442" y="87" on="0"/>
        <pt x="499" y="158" on="0"/>
        <pt x="531" y="263" on="0"/>
        <pt x="531" y="331" on="1"/>
        <pt x="531" y="468" on="0"/>
        <pt x="410" y="611" on="0"/>
        <pt x="310" y="611" on="1"/>
        <pt x="249" y="611" on="1"/>
        <pt x="247" y="547" on="0"/>
        <pt x="247" y="418" on="0"/>
        <pt x="247" y="352" on="1"/>
        <pt x="247" y="321" on="1"/>
        <pt x="247" y="249" on="0"/>
        <pt x="247" y="117" on="0"/>
        <pt x="249" y="51" on="1"/>
      </contour>
      <contour>
        <pt x="337" y="662" on="1"/>
        <pt x="408" y="662" on="0"/>
        <pt x="528" y="619" on="0"/>
        <pt x="614" y="535" on="0"/>
        <pt x="662" y="412" on="0"/>
        <pt x="662" y="333" on="1"/>
        <pt x="662" y="252" on="0"/>
        <pt x="609" y="127" on="0"/>
        <pt x="516" y="43" on="0"/>
        <pt x="390" y="0" on="0"/>
        <pt x="317" y="0" on="1"/>
        <pt x="38" y="0" on="1"/>
        <pt x="38" y="46" on="1"/>
        <pt x="124" y="55" on="1"/>
        <pt x="126" y="118" on="0"/>
        <pt x="126" y="249" on="0"/>
        <pt x="126" y="321" on="1"/>
        <pt x="126" y="352" on="1"/>
        <pt x="126" y="416" on="0"/>
        <pt x="126" y="543" on="0"/>
        <pt x="124" y="607" on="1"/>
        <pt x="38" y="616" on="1"/>
        <pt x="38" y="662" on="1"/>
      </contour>
    </TTGlyph>
    <TTGlyph name="Dcaron" xMin="38" yMin="0" xMax="662" yMax="867">
      <component glyphName="D" x="0" y="0" flags="0x204"/>
      <component glyphName="caroncmb.cap" x="347" y="0" flags="0x4"/>
    </TTGlyph>
    <TTGlyph name="Dcroat" xMin="38" yMin="0" xMax="662" yMax="662">
      <component glyphName="Eth" x="0" y="0" flags="0x204"/>
    </TTGlyph>
    <TTGlyph name="E" xMin="38" yMin="0" xMax="571" yMax="662">
      <contour>
        <pt x="571" y="176" on="1"/>
        <pt x="564" y="0" on="1"/>
        <pt x="38" y="0" on="1"/>
        <pt x="38" y="46" on="1"/>
        <pt x="124" y="55" on="1"/>
        <pt x="126" y="118" on="0"/>
        <pt x="126" y="245" on="0"/>
        <pt x="126" y="310" on="1"/>
        <pt x="126" y="352" on="1"/>
        <pt x="126" y="416" on="0"/>
        <pt x="126" y="543" on="0"/>
        <pt x="124" y="607" on="1"/>
        <pt x="38" y="616" on="1"/>
        <pt x="38" y="662" on="1"/>
        <pt x="544" y="662" on="1"/>
        <pt x="551" y="486" on="1"/>
        <pt x="485" y="486" on="1"/>
        <pt x="463" y="609" on="1"/>
        <pt x="249" y="609" on="1"/>
        <pt x="247" y="549" on="0"/>
        <pt x="247" y="428" on="0"/>
        <pt x="247" y="366" on="1"/>
        <pt x="385" y="366" on="1"/>
        <pt x="398" y="458" on="1"/>
        <pt x="448" y="458" on="1"/>
        <pt x="448" y="224" on="1"/>
        <pt x="398" y="224" on="1"/>
        <pt x="386" y="315" on="1"/>
        <pt x="247" y="315" on="1"/>
        <pt x="247" y="245" on="0"/>
        <pt x="247" y="115" on="0"/>
        <pt x="249" y="52" on="1"/>
        <pt x="483" y="52" on="1"/>
        <pt x="505" y="176" on="1"/>
      </contour>
    </TTGlyph>
    <TTGlyph name="Eacute" xMin="38" yMin="0" xMax="571" yMax="878">
      <component glyphName="E" x="0" y="0" flags="0x204"/>
      <component glyphName="acutecmb.cap" x="348" y="0" flags="0x4"/>
    </TTGlyph>
    <TTGlyph name="Ecaron" xMin="38" yMin="0" xMax="571" yMax="867">
      <component glyphName="E" x="0" y="0" flags="0x204"/>
      <component glyphName="caroncmb.cap" x="332" y="0" flags="0x4"/>
    </TTGlyph>
    <TTGlyph name="Ecircumflex" xMin="38" yMin="0" xMax="571" yMax="867">
      <component glyphName="E" x="0" y="0" flags="0x204"/>
      <component glyphName="circumflexcmb.cap" x="334" y="0" flags="0x4"/>
    </TTGlyph>
    <TTGlyph name="Edieresis" xMin="38" yMin="0" xMax="571" yMax="848">
      <component glyphName="E" x="0" y="0" flags="0x204"/>
      <component glyphName="dieresiscmb.cap" x="319" y="0" flags="0x4"/>
    </TTGlyph>
    <TTGlyph name="Edotaccent" xMin="38" yMin="0" xMax="571" yMax="866">
      <component glyphName="E" x="0" y="0" flags="0x204"/>
      <component glyphName="dotaccentcmb.cap" x="308" y="0" flags="0x4"/>
    </TTGlyph>
    <TTGlyph name="Egrave" xMin="38" yMin="0" xMax="571" yMax="878">
      <component glyphName="E" x="0" y="0" flags="0x204"/>
      <component glyphName="gravecmb.cap" x="292" y="0" flags="0x4"/>
    </TTGlyph>
    <TTGlyph name="Emacron" xMin="38" yMin="0" xMax="571" yMax="813">
      <component glyphName="E" x="0" y="0" flags="0x204"/>
      <component glyphName="macroncmb.cap" x="337" y="0" flags="0x4"/>
    </TTGlyph>
    <TTGlyph name="Eogonek" xMin="38" yMin="-226" xMax="573" yMax="662">
      <component glyphName="E" x="0" y="0" flags="0x204"/>
      <component glyphName="uni0328" x="465" y="0" flags="0x4"/>
    </TTGlyph>
    <TTGlyph name="Eth" xMin="38" yMin="0" xMax="662" yMax="662">
      <contour>
        <pt x="311" y="51" on="1"/>
        <pt x="360" y="51" on="0"/>
        <pt x="442" y="87" on="0"/>
        <pt x="499" y="158" on="0"/>
        <pt x="531" y="263" on="0"/>
        <pt x="531" y="331" on="1"/>
        <pt x="531" y="468" on="0"/>
        <pt x="410" y="611" on="0"/>
        <pt x="310" y="611" on="1"/>
        <pt x="249" y="611" on="1"/>
        <pt x="247" y="551" on="0"/>
        <pt x="247" y="429" on="0"/>
        <pt x="247" y="366" on="1"/>
        <pt x="389" y="366" on="1"/>
        <pt x="389" y="315" on="1"/>
        <pt x="247" y="315" on="1"/>
        <pt x="247" y="245" on="0"/>
        <pt x="247" y="115" on="0"/>
        <pt x="249" y="51" on="1"/>
      </contour>
      <contour>
        <pt x="337" y="662" on="1"/>
        <pt x="408" y="662" on="0"/>
        <pt x="528" y="619" on="0"/>
        <pt x="614" y="535" on="0"/>
        <pt x="662" y="412" on="0"/>
        <pt x="662" y="333" on="1"/>
        <pt x="662" y="252" on="0"/>
        <pt x="609" y="127" on="0"/>
        <pt x="516" y="43" on="0"/>
        <pt x="390" y="0" on="0"/>
        <pt x="317" y="0" on="1"/>
        <pt x="38" y="0" on="1"/>
        <pt x="38" y="46" on="1"/>
        <pt x="124" y="55" on="1"/>
        <pt x="126" y="117" on="0"/>
        <pt x="126" y="245" on="0"/>
        <pt x="126" y="315" on="1"/>
        <pt x="38" y="315" on="1"/>
        <pt x="38" y="366" on="1"/>
        <pt x="126" y="366" on="1"/>
        <pt x="126" y="426" on="0"/>
        <pt x="126" y="546" on="0"/>
        <pt x="124" y="607" on="1"/>
        <pt x="38" y="616" on="1"/>
        <pt x="38" y="662" on="1"/>
      </contour>
    </TTGlyph>
    <TTGlyph name="Euro" xMin="9" yMin="-15" xMax="502" yMax="656">
      <contour>
        <pt x="388" y="88" on="1"/>
        <pt x="395" y="132" on="0"/>
        <pt x="432" y="160" on="0"/>
        <pt x="452" y="160" on="1"/>
        <pt x="469" y="160" on="0"/>
        <pt x="498" y="143" on="0"/>
        <pt x="501" y="121" on="1"/>
        <pt x="493" y="57" on="0"/>
        <pt x="405" y="-15" on="0"/>
        <pt x="323" y="-15" on="1"/>
        <pt x="223" y="-15" on="0"/>
        <pt x="91" y="112" on="0"/>
        <pt x="72" y="231" on="1"/>
        <pt x="9" y="231" on="1"/>
        <pt x="9" y="284" on="1"/>
        <pt x="66" y="284" on="1"/>
        <pt x="65" y="293" on="0"/>
        <pt x="65" y="311" on="0"/>
        <pt x="65" y="320" on="1"/>
        <pt x="65" y="328" on="0"/>
        <pt x="65" y="343" on="0"/>
        <pt x="66" y="351" on="1"/>
        <pt x="9" y="351" on="1"/>
        <pt x="9" y="404" on="1"/>
        <pt x="71" y="404" on="1"/>
        <pt x="91" y="526" on="0"/>
        <pt x="233" y="656" on="0"/>
        <pt x="336" y="656" on="1"/>
        <pt x="410" y="656" on="0"/>
        <pt x="497" y="584" on="0"/>
        <pt x="502" y="521" on="1"/>
        <pt x="497" y="499" on="0"/>
        <pt x="467" y="480" on="0"/>
        <pt x="450" y="480" on="1"/>
        <pt x="430" y="480" on="0"/>
        <pt x="395" y="509" on="0"/>
        <pt x="388" y="553" on="1"/>
        <pt x="377" y="606" on="1"/>
        <pt x="369" y="608" on="0"/>
        <pt x="355" y="608" on="0"/>
        <pt x="350" y="608" on="1"/>
        <pt x="284" y="608" on="0"/>
        <pt x="196" y="505" on="0"/>
        <pt x="182" y="404" on="1"/>
        <pt x="397" y="404" on="1"/>
        <pt x="397" y="351" on="1"/>
        <pt x="178" y="351" on="1"/>
        <pt x="177" y="343" on="0"/>
        <pt x="177" y="328" on="0"/>
        <pt x="177" y="320" on="1"/>
        <pt x="177" y="311" on="0"/>
        <pt x="177" y="293" on="0"/>
        <pt x="178" y="284" on="1"/>
        <pt x="397" y="284" on="1"/>
        <pt x="397" y="231" on="1"/>
        <pt x="183" y="231" on="1"/>
        <pt x="197" y="135" on="0"/>
        <pt x="283" y="33" on="0"/>
        <pt x="352" y="33" on="1"/>
        <pt x="357" y="33" on="0"/>
        <pt x="370" y="33" on="0"/>
        <pt x="378" y="35" on="1"/>
      </contour>
    </TTGlyph>
    <TTGlyph name="F" xMin="38" yMin="0" xMax="551" yMax="662">
      <contour>
        <pt x="249" y="609" on="1"/>
        <pt x="247" y="549" on="0"/>
        <pt x="247" y="428" on="0"/>
        <pt x="247" y="366" on="1"/>
        <pt x="392" y="366" on="1"/>
        <pt x="405" y="458" on="1"/>
        <pt x="455" y="458" on="1"/>
        <pt x="455" y="214" on="1"/>
        <pt x="405" y="214" on="1"/>
        <pt x="391" y="315" on="1"/>
        <pt x="247" y="315" on="1"/>
        <pt x="247" y="246" on="0"/>
        <pt x="247" y="119" on="0"/>
        <pt x="249" y="56" on="1"/>
        <pt x="341" y="46" on="1"/>
        <pt x="341" y="0" on="1"/>
        <pt x="38" y="0" on="1"/>
        <pt x="38" y="46" on="1"/>
        <pt x="124" y="55" on="1"/>
        <pt x="126" y="118" on="0"/>
        <pt x="126" y="245" on="0"/>
        <pt x="126" y="310" on="1"/>
        <pt x="126" y="352" on="1"/>
        <pt x="126" y="416" on="0"/>
        <pt x="126" y="543" on="0"/>
        <pt x="124" y="607" on="1"/>
        <pt x="38" y="616" on="1"/>
        <pt x="38" y="662" on="1"/>
        <pt x="544" y="662" on="1"/>
        <pt x="551" y="486" on="1"/>
        <pt x="485" y="486" on="1"/>
        <pt x="463" y="609" on="1"/>
      </contour>
    </TTGlyph>
    <TTGlyph name="G" xMin="38" yMin="-15" xMax="658" yMax="677">
      <contour>
        <pt x="658" y="269" on="1"/>
        <pt x="601" y="262" on="1"/>
        <pt x="600" y="219" on="0"/>
        <pt x="599" y="132" on="0"/>
        <pt x="599" y="87" on="1"/>
        <pt x="599" y="43" on="1"/>
        <pt x="546" y="15" on="0"/>
        <pt x="441" y="-15" on="0"/>
        <pt x="380" y="-15" on="1"/>
        <pt x="303" y="-15" on="0"/>
        <pt x="177" y="37" on="0"/>
        <pt x="87" y="130" on="0"/>
        <pt x="38" y="256" on="0"/>
        <pt x="38" y="331" on="1"/>
        <pt x="38" y="405" on="0"/>
        <pt x="88" y="532" on="0"/>
        <pt x="179" y="625" on="0"/>
        <pt x="308" y="677" on="0"/>
        <pt x="387" y="677" on="1"/>
        <pt x="442" y="677" on="0"/>
        <pt x="538" y="655" on="0"/>
        <pt x="586" y="629" on="1"/>
        <pt x="590" y="486" on="1"/>
        <pt x="519" y="486" on="1"/>
        <pt x="500" y="600" on="1"/>
        <pt x="474" y="613" on="0"/>
        <pt x="423" y="624" on="0"/>
        <pt x="395" y="624" on="1"/>
        <pt x="345" y="624" on="0"/>
        <pt x="262" y="585" on="0"/>
        <pt x="203" y="510" on="0"/>
        <pt x="170" y="401" on="0"/>
        <pt x="170" y="331" on="1"/>
        <pt x="170" y="261" on="0"/>
        <pt x="203" y="152" on="0"/>
        <pt x="263" y="77" on="0"/>
        <pt x="348" y="38" on="0"/>
        <pt x="400" y="38" on="1"/>
        <pt x="443" y="38" on="0"/>
        <pt x="479" y="51" on="1"/>
        <pt x="479" y="87" on="1"/>
        <pt x="479" y="130" on="0"/>
        <pt x="478" y="216" on="0"/>
        <pt x="477" y="260" on="1"/>
        <pt x="389" y="269" on="1"/>
        <pt x="389" y="314" on="1"/>
        <pt x="658" y="314" on="1"/>
      </contour>
    </TTGlyph>
    <TTGlyph name="Gbreve" xMin="38" yMin="-15" xMax="658" yMax="871">
      <component glyphName="G" x="0" y="0" flags="0x204"/>
      <component glyphName="brevecmb.cap" x="386" y="0" flags="0x4"/>
    </TTGlyph>
    <TTGlyph name="Gdotaccent" xMin="38" yMin="-15" xMax="658" yMax="866">
      <component glyphName="G" x="0" y="0" flags="0x204"/>
      <component glyphName="dotaccentcmb.cap" x="385" y="0" flags="0x4"/>
    </TTGlyph>
    <TTGlyph name="H" xMin="38" yMin="0" xMax="755" yMax="662">
      <contour>
        <pt x="669" y="607" on="1"/>
        <pt x="667" y="544" on="0"/>
        <pt x="667" y="417" on="0"/>
        <pt x="667" y="352" on="1"/>
        <pt x="667" y="310" on="1"/>
        <pt x="667" y="246" on="0"/>
        <pt x="667" y="119" on="0"/>
        <pt x="669" y="55" on="1"/>
        <pt x="755" y="46" on="1"/>
        <pt x="755" y="0" on="1"/>
        <pt x="457" y="0" on="1"/>
        <pt x="457" y="46" on="1"/>
        <pt x="544" y="56" on="1"/>
        <pt x="546" y="117" on="0"/>
        <pt x="546" y="244" on="0"/>
        <pt x="546" y="315" on="1"/>
        <pt x="247" y="315" on="1"/>
        <pt x="247" y="245" on="0"/>
        <pt x="247" y="118" on="0"/>
        <pt x="249" y="55" on="1"/>
        <pt x="335" y="46" on="1"/>
        <pt x="335" y="0" on="1"/>
        <pt x="38" y="0" on="1"/>
        <pt x="38" y="46" on="1"/>
        <pt x="124" y="55" on="1"/>
        <pt x="126" y="118" on="0"/>
        <pt x="126" y="245" on="0"/>
        <pt x="126" y="310" on="1"/>
        <pt x="126" y="352" on="1"/>
        <pt x="126" y="416" on="0"/>
        <pt x="126" y="543" on="0"/>
        <pt x="124" y="607" on="1"/>
        <pt x="38" y="616" on="1"/>
        <pt x="38" y="662" on="1"/>
        <pt x="335" y="662" on="1"/>
        <pt x="335" y="616" on="1"/>
        <pt x="249" y="607" on="1"/>
        <pt x="247" y="547" on="0"/>
        <pt x="247" y="427" on="0"/>
        <pt x="247" y="366" on="1"/>
        <pt x="546" y="366" on="1"/>
        <pt x="546" y="426" on="0"/>
        <pt x="546" y="546" on="0"/>
        <pt x="544" y="606" on="1"/>
        <pt x="457" y="616" on="1"/>
        <pt x="457" y="662" on="1"/>
        <pt x="755" y="662" on="1"/>
        <pt x="755" y="616" on="1"/>
      </contour>
    </TTGlyph>
    <TTGlyph name="I" xMin="38" yMin="0" xMax="335" yMax="662">
      <contour>
        <pt x="249" y="607" on="1"/>
        <pt x="247" y="544" on="0"/>
        <pt x="247" y="417" on="0"/>
        <pt x="247" y="352" on="1"/>
        <pt x="247" y="310" on="1"/>
        <pt x="247" y="246" on="0"/>
        <pt x="247" y="119" on="0"/>
        <pt x="249" y="55" on="1"/>
        <pt x="335" y="46" on="1"/>
        <pt x="335" y="0" on="1"/>
        <pt x="38" y="0" on="1"/>
        <pt x="38" y="46" on="1"/>
        <pt x="124" y="55" on="1"/>
        <pt x="126" y="118" on="0"/>
        <pt x="126" y="245" on="0"/>
        <pt x="126" y="310" on="1"/>
        <pt x="126" y="352" on="1"/>
        <pt x="126" y="416" on="0"/>
        <pt x="126" y="543" on="0"/>
        <pt x="124" y="607" on="1"/>
        <pt x="38" y="616" on="1"/>
        <pt x="38" y="662" on="1"/>
        <pt x="335" y="662" on="1"/>
        <pt x="335" y="616" on="1"/>
      </contour>
    </TTGlyph>
    <TTGlyph name="Iacute" xMin="38" yMin="0" xMax="335" yMax="878">
      <component glyphName="I" x="0" y="0" flags="0x204"/>
      <component glyphName="acutecmb.cap" x="217" y="0" flags="0x4"/>
    </TTGlyph>
    <TTGlyph name="Icircumflex" xMin="33" yMin="0" xMax="339" yMax="867">
      <component glyphName="I" x="0" y="0" flags="0x204"/>
      <component glyphName="circumflexcmb.cap" x="186" y="0" flags="0x4"/>
    </TTGlyph>
    <TTGlyph name="Idieresis" xMin="5" yMin="0" xMax="366" yMax="848">
      <component glyphName="I" x="0" y="0" flags="0x204"/>
      <component glyphName="dieresiscmb.cap" x="186" y="0" flags="0x4"/>
    </TTGlyph>
    <TTGlyph name="Idotaccent" xMin="38" yMin="0" xMax="335" yMax="866">
      <component glyphName="I" x="0" y="0" flags="0x204"/>
      <component glyphName="dotaccentcmb.cap" x="186" y="0" flags="0x4"/>
    </TTGlyph>
    <TTGlyph name="Igrave" xMin="38" yMin="0" xMax="335" yMax="878">
      <component glyphName="I" x="0" y="0" flags="0x204"/>
      <component glyphName="gravecmb.cap" x="178" y="0" flags="0x4"/>
    </TTGlyph>
    <TTGlyph name="Imacron" xMin="33" yMin="0" xMax="339" yMax="813">
      <component glyphName="I" x="0" y="0" flags="0x204"/>
      <component glyphName="macroncmb.cap" x="189" y="0" flags="0x4"/>
    </TTGlyph>
    <TTGlyph name="Iogonek" xMin="38" yMin="-226" xMax="335" yMax="662">
      <component glyphName="I" x="0" y="0" flags="0x204"/>
      <component glyphName="uni0328" x="216" y="0" flags="0x4"/>
    </TTGlyph>
    <TTGlyph name="J" xMin="-51" yMin="-172" xMax="349" yMax="662">
      <contour>
        <pt x="349" y="616" on="1"/>
        <pt x="263" y="607" on="1"/>
        <pt x="261" y="544" on="0"/>
        <pt x="261" y="419" on="0"/>
        <pt x="261" y="355" on="1"/>
        <pt x="261" y="203" on="1"/>
        <pt x="261" y="162" on="0"/>
        <pt x="260" y="97" on="0"/>
        <pt x="256" y="44" on="0"/>
        <pt x="249" y="0" on="0"/>
        <pt x="244" y="-20" on="1"/>
        <pt x="234" y="-58" on="0"/>
        <pt x="196" y="-115" on="0"/>
        <pt x="145" y="-153" on="0"/>
        <pt x="85" y="-172" on="0"/>
        <pt x="53" y="-172" on="1"/>
        <pt x="38" y="-172" on="0"/>
        <pt x="6" y="-167" on="0"/>
        <pt x="-23" y="-154" on="0"/>
        <pt x="-45" y="-133" on="0"/>
        <pt x="-51" y="-117" on="1"/>
        <pt x="-49" y="-88" on="0"/>
        <pt x="-11" y="-61" on="0"/>
        <pt x="15" y="-61" on="1"/>
        <pt x="34" y="-61" on="0"/>
        <pt x="67" y="-76" on="0"/>
        <pt x="86" y="-95" on="1"/>
        <pt x="112" y="-122" on="1"/>
        <pt x="129" y="-99" on="0"/>
        <pt x="144" y="-41" on="0"/>
        <pt x="144" y="4" on="1"/>
        <pt x="144" y="29" on="0"/>
        <pt x="143" y="111" on="0"/>
        <pt x="141" y="250" on="0"/>
        <pt x="138" y="457" on="0"/>
        <pt x="137" y="606" on="1"/>
        <pt x="41" y="616" on="1"/>
        <pt x="41" y="662" on="1"/>
        <pt x="349" y="662" on="1"/>
      </contour>
    </TTGlyph>
    <TTGlyph name="K" xMin="38" yMin="0" xMax="683" yMax="662">
      <contour>
        <pt x="683" y="46" on="1"/>
        <pt x="683" y="0" on="1"/>
        <pt x="405" y="0" on="1"/>
        <pt x="405" y="46" on="1"/>
        <pt x="474" y="54" on="1"/>
        <pt x="327" y="333" on="1"/>
        <pt x="246" y="236" on="1"/>
        <pt x="246" y="192" on="0"/>
        <pt x="246" y="102" on="0"/>
        <pt x="248" y="56" on="1"/>
        <pt x="335" y="46" on="1"/>
        <pt x="335" y="0" on="1"/>
        <pt x="38" y="0" on="1"/>
        <pt x="38" y="46" on="1"/>
        <pt x="124" y="55" on="1"/>
        <pt x="126" y="118" on="0"/>
        <pt x="126" y="245" on="0"/>
        <pt x="126" y="310" on="1"/>
        <pt x="126" y="352" on="1"/>
        <pt x="126" y="416" on="0"/>
        <pt x="126" y="543" on="0"/>
        <pt x="124" y="607" on="1"/>
        <pt x="38" y="616" on="1"/>
        <pt x="38" y="662" on="1"/>
        <pt x="335" y="662" on="1"/>
        <pt x="335" y="616" on="1"/>
        <pt x="248" y="606" on="1"/>
        <pt x="246" y="543" on="0"/>
        <pt x="246" y="417" on="0"/>
        <pt x="246" y="352" on="1"/>
        <pt x="246" y="309" on="1"/>
        <pt x="486" y="605" on="1"/>
        <pt x="423" y="616" on="1"/>
        <pt x="423" y="662" on="1"/>
        <pt x="651" y="662" on="1"/>
        <pt x="651" y="616" on="1"/>
        <pt x="549" y="603" on="1"/>
        <pt x="399" y="421" on="1"/>
        <pt x="603" y="55" on="1"/>
      </contour>
    </TTGlyph>
    <TTGlyph name="L" xMin="38" yMin="0" xMax="556" yMax="662">
      <contour>
        <pt x="556" y="191" on="1"/>
        <pt x="546" y="0" on="1"/>
        <pt x="38" y="0" on="1"/>
        <pt x="38" y="46" on="1"/>
        <pt x="124" y="55" on="1"/>
        <pt x="126" y="119" on="0"/>
        <pt x="126" y="246" on="0"/>
        <pt x="126" y="310" on="1"/>
        <pt x="126" y="352" on="1"/>
        <pt x="126" y="416" on="0"/>
        <pt x="126" y="543" on="0"/>
        <pt x="124" y="607" on="1"/>
        <pt x="38" y="616" on="1"/>
        <pt x="38" y="662" on="1"/>
        <pt x="338" y="662" on="1"/>
        <pt x="338" y="616" on="1"/>
        <pt x="249" y="606" on="1"/>
        <pt x="247" y="543" on="0"/>
        <pt x="247" y="416" on="0"/>
        <pt x="247" y="352" on="1"/>
        <pt x="247" y="310" on="1"/>
        <pt x="247" y="245" on="0"/>
        <pt x="247" y="117" on="0"/>
        <pt x="249" y="53" on="1"/>
        <pt x="458" y="53" on="1"/>
        <pt x="486" y="191" on="1"/>
      </contour>
    </TTGlyph>
    <TTGlyph name="Lacute" xMin="38" yMin="0" xMax="556" yMax="878">
      <component glyphName="L" x="0" y="0" flags="0x204"/>
      <component glyphName="acutecmb.cap" x="259" y="0" flags="0x4"/>
    </TTGlyph>
    <TTGlyph name="Lcaron" xMin="38" yMin="0" xMax="556" yMax="737">
      <component glyphName="L" x="0" y="0" flags="0x204"/>
      <component glyphName="caron.alt" x="457" y="0" flags="0x4"/>
    </TTGlyph>
    <TTGlyph name="Ldot" xMin="38" yMin="0" xMax="556" yMax="662">
      <component glyphName="L" x="0" y="0" flags="0x204"/>
      <component glyphName="period" x="323" y="322" flags="0x4"/>
    </TTGlyph>
    <TTGlyph name="Lslash" xMin="38" yMin="-1" xMax="556" yMax="661">
      <contour>
        <pt x="556" y="190" on="1"/>
        <pt x="546" y="-1" on="1"/>
        <pt x="38" y="-1" on="1"/>
        <pt x="38" y="45" on="1"/>
        <pt x="124" y="54" on="1"/>
        <pt x="126" y="102" on="0"/>
        <pt x="126" y="198" on="0"/>
        <pt x="126" y="246" on="1"/>
        <pt x="38" y="196" on="1"/>
        <pt x="38" y="263" on="1"/>
        <pt x="126" y="313" on="1"/>
        <pt x="126" y="351" on="1"/>
        <pt x="126" y="415" on="0"/>
        <pt x="126" y="542" on="0"/>
        <pt x="124" y="606" on="1"/>
        <pt x="38" y="615" on="1"/>
        <pt x="38" y="661" on="1"/>
        <pt x="338" y="661" on="1"/>
        <pt x="338" y="615" on="1"/>
        <pt x="249" y="605" on="1"/>
        <pt x="247" y="547" on="0"/>
        <pt x="247" y="432" on="0"/>
        <pt x="247" y="373" on="1"/>
        <pt x="396" y="459" on="1"/>
        <pt x="396" y="391" on="1"/>
        <pt x="247" y="305" on="1"/>
        <pt x="247" y="242" on="0"/>
        <pt x="247" y="115" on="0"/>
        <pt x="249" y="52" on="1"/>
        <pt x="458" y="52" on="1"/>
        <pt x="486" y="190" on="1"/>
      </contour>
    </TTGlyph>
    <TTGlyph name="M" xMin="26" yMin="0" xMax="871" yMax="662">
      <contour>
        <pt x="785" y="607" on="1"/>
        <pt x="783" y="544" on="0"/>
        <pt x="783" y="417" on="0"/>
        <pt x="783" y="352" on="1"/>
        <pt x="783" y="310" on="1"/>
        <pt x="783" y="246" on="0"/>
        <pt x="783" y="119" on="0"/>
        <pt x="785" y="55" on="1"/>
        <pt x="871" y="46" on="1"/>
        <pt x="871" y="0" on="1"/>
        <pt x="578" y="0" on="1"/>
        <pt x="578" y="46" on="1"/>
        <pt x="661" y="55" on="1"/>
        <pt x="663" y="118" on="0"/>
        <pt x="663" y="245" on="0"/>
        <pt x="663" y="310" on="1"/>
        <pt x="663" y="504" on="1"/>
        <pt x="436" y="0" on="1"/>
        <pt x="400" y="0" on="1"/>
        <pt x="172" y="506" on="1"/>
        <pt x="172" y="59" on="1"/>
        <pt x="260" y="46" on="1"/>
        <pt x="260" y="0" on="1"/>
        <pt x="26" y="0" on="1"/>
        <pt x="26" y="46" on="1"/>
        <pt x="119" y="59" on="1"/>
        <pt x="119" y="606" on="1"/>
        <pt x="32" y="616" on="1"/>
        <pt x="32" y="662" on="1"/>
        <pt x="222" y="662" on="1"/>
        <pt x="452" y="160" on="1"/>
        <pt x="681" y="662" on="1"/>
        <pt x="871" y="662" on="1"/>
        <pt x="871" y="616" on="1"/>
      </contour>
    </TTGlyph>
    <TTGlyph name="N" xMin="32" yMin="-10" xMax="717" yMax="662">
      <contour>
        <pt x="717" y="616" on="1"/>
        <pt x="628" y="603" on="1"/>
        <pt x="628" y="-10" on="1"/>
        <pt x="586" y="-10" on="1"/>
        <pt x="177" y="521" on="1"/>
        <pt x="177" y="59" on="1"/>
        <pt x="287" y="46" on="1"/>
        <pt x="287" y="0" on="1"/>
        <pt x="32" y="0" on="1"/>
        <pt x="32" y="46" on="1"/>
        <pt x="122" y="58" on="1"/>
        <pt x="122" y="592" on="1"/>
        <pt x="109" y="608" on="1"/>
        <pt x="40" y="616" on="1"/>
        <pt x="40" y="662" on="1"/>
        <pt x="216" y="662" on="1"/>
        <pt x="573" y="193" on="1"/>
        <pt x="573" y="603" on="1"/>
        <pt x="463" y="616" on="1"/>
        <pt x="463" y="662" on="1"/>
        <pt x="717" y="662" on="1"/>
      </contour>
    </TTGlyph>
    <TTGlyph name="Nacute" xMin="32" yMin="-10" xMax="717" yMax="864">
      <component glyphName="N" x="0" y="0" flags="0x204"/>
      <component glyphName="acutecmb.cap" x="398" y="-14" flags="0x4"/>
    </TTGlyph>
    <TTGlyph name="Ncaron" xMin="32" yMin="-10" xMax="717" yMax="858">
      <component glyphName="N" x="0" y="0" flags="0x204"/>
      <component glyphName="caroncmb.cap" x="368" y="-9" flags="0x4"/>
    </TTGlyph>
    <TTGlyph name="Ntilde" xMin="32" yMin="-10" xMax="717" yMax="846">
      <component glyphName="N" x="0" y="0" flags="0x204"/>
      <component glyphName="tildecmb.cap" x="380" y="-4" flags="0x4"/>
    </TTGlyph>
    <TTGlyph name="O" xMin="39" yMin="-15" xMax="668" yMax="677">
      <contour>
        <pt x="171" y="331" on="1"/>
        <pt x="171" y="276" on="0"/>
        <pt x="191" y="171" on="0"/>
        <pt x="235" y="88" on="0"/>
        <pt x="305" y="38" on="0"/>
        <pt x="354" y="38" on="1"/>
        <pt x="403" y="38" on="0"/>
        <pt x="473" y="88" on="0"/>
        <pt x="517" y="171" on="0"/>
        <pt x="537" y="276" on="0"/>
        <pt x="537" y="331" on="1"/>
        <pt x="537" y="386" on="0"/>
        <pt x="517" y="491" on="0"/>
        <pt x="473" y="574" on="0"/>
        <pt x="403" y="624" on="0"/>
        <pt x="354" y="624" on="1"/>
        <pt x="305" y="624" on="0"/>
        <pt x="235" y="574" on="0"/>
        <pt x="191" y="491" on="0"/>
        <pt x="171" y="386" on="0"/>
      </contour>
      <contour>
        <pt x="354" y="677" on="1"/>
        <pt x="412" y="677" on="0"/>
        <pt x="525" y="633" on="0"/>
        <pt x="614" y="546" on="0"/>
        <pt x="668" y="416" on="0"/>
        <pt x="668" y="331" on="1"/>
        <pt x="668" y="247" on="0"/>
        <pt x="614" y="118" on="0"/>
        <pt x="526" y="30" on="0"/>
        <pt x="413" y="-15" on="0"/>
        <pt x="354" y="-15" on="1"/>
        <pt x="295" y="-15" on="0"/>
        <pt x="182" y="29" on="0"/>
        <pt x="93" y="116" on="0"/>
        <pt x="39" y="245" on="0"/>
        <pt x="39" y="331" on="1"/>
        <pt x="39" y="415" on="0"/>
        <pt x="94" y="544" on="0"/>
        <pt x="182" y="632" on="0"/>
        <pt x="295" y="677" on="0"/>
      </contour>
    </TTGlyph>
    <TTGlyph name="OE" xMin="38" yMin="-15" xMax="906" yMax="676">
      <contour>
        <pt x="461" y="352" on="1"/>
        <pt x="461" y="418" on="0"/>
        <pt x="461" y="549" on="0"/>
        <pt x="459" y="615" on="1"/>
        <pt x="441" y="620" on="0"/>
        <pt x="405" y="623" on="0"/>
        <pt x="386" y="623" on="1"/>
        <pt x="331" y="623" on="0"/>
        <pt x="250" y="573" on="0"/>
        <pt x="196" y="492" on="0"/>
        <pt x="170" y="386" on="0"/>
        <pt x="170" y="331" on="1"/>
        <pt x="170" y="275" on="0"/>
        <pt x="196" y="170" on="0"/>
        <pt x="250" y="88" on="0"/>
        <pt x="331" y="38" on="0"/>
        <pt x="387" y="38" on="1"/>
        <pt x="423" y="38" on="0"/>
        <pt x="459" y="47" on="1"/>
        <pt x="461" y="112" on="0"/>
        <pt x="461" y="243" on="0"/>
        <pt x="461" y="310" on="1"/>
      </contour>
      <contour>
        <pt x="906" y="176" on="1"/>
        <pt x="899" y="0" on="1"/>
        <pt x="521" y="0" on="1"/>
        <pt x="447" y="-15" on="0"/>
        <pt x="382" y="-15" on="1"/>
        <pt x="317" y="-15" on="0"/>
        <pt x="194" y="29" on="0"/>
        <pt x="97" y="116" on="0"/>
        <pt x="38" y="245" on="0"/>
        <pt x="38" y="331" on="1"/>
        <pt x="38" y="416" on="0"/>
        <pt x="97" y="546" on="0"/>
        <pt x="194" y="632" on="0"/>
        <pt x="317" y="676" on="0"/>
        <pt x="382" y="676" on="1"/>
        <pt x="415" y="676" on="0"/>
        <pt x="484" y="670" on="0"/>
        <pt x="521" y="662" on="1"/>
        <pt x="879" y="662" on="1"/>
        <pt x="886" y="486" on="1"/>
        <pt x="819" y="486" on="1"/>
        <pt x="798" y="609" on="1"/>
        <pt x="584" y="609" on="1"/>
        <pt x="582" y="549" on="0"/>
        <pt x="582" y="428" on="0"/>
        <pt x="582" y="366" on="1"/>
        <pt x="720" y="366" on="1"/>
        <pt x="733" y="458" on="1"/>
        <pt x="782" y="458" on="1"/>
        <pt x="782" y="224" on="1"/>
        <pt x="733" y="224" on="1"/>
        <pt x="721" y="315" on="1"/>
        <pt x="582" y="315" on="1"/>
        <pt x="582" y="245" on="0"/>
        <pt x="582" y="115" on="0"/>
        <pt x="584" y="52" on="1"/>
        <pt x="818" y="52" on="1"/>
        <pt x="839" y="176" on="1"/>
      </contour>
    </TTGlyph>
    <TTGlyph name="Oacute" xMin="39" yMin="-15" xMax="668" yMax="878">
      <component glyphName="O" x="0" y="0" flags="0x204"/>
      <component glyphName="acutecmb.cap" x="377" y="0" flags="0x4"/>
    </TTGlyph>
    <TTGlyph name="Ocircumflex" xMin="39" yMin="-15" xMax="668" yMax="867">
      <component glyphName="O" x="0" y="0" flags="0x204"/>
      <component glyphName="circumflexcmb.cap" x="354" y="0" flags="0x4"/>
    </TTGlyph>
    <TTGlyph name="Odieresis" xMin="39" yMin="-15" xMax="668" yMax="848">
      <component glyphName="O" x="0" y="0" flags="0x204"/>
      <component glyphName="dieresiscmb.cap" x="354" y="0" flags="0x4"/>
    </TTGlyph>
    <TTGlyph name="Ograve" xMin="39" yMin="-15" xMax="668" yMax="878">
      <component glyphName="O" x="0" y="0" flags="0x204"/>
      <component glyphName="gravecmb.cap" x="348" y="0" flags="0x4"/>
    </TTGlyph>
    <TTGlyph name="Ohungarumlaut" xMin="39" yMin="-15" xMax="668" yMax="889">
      <component glyphName="O" x="0" y="0" flags="0x204"/>
      <component glyphName="hungarumlautcmb.cap" x="377" y="0" flags="0x4"/>
    </TTGlyph>
    <TTGlyph name="Omacron" xMin="39" yMin="-15" xMax="668" yMax="813">
      <component glyphName="O" x="0" y="0" flags="0x204"/>
      <component glyphName="macroncmb.cap" x="357" y="0" flags="0x4"/>
    </TTGlyph>
    <TTGlyph name="Oslash" xMin="39" yMin="-20" xMax="668" yMax="679">
      <contour>
        <pt x="216" y="125" on="1"/>
        <pt x="238" y="86" on="0"/>
        <pt x="306" y="38" on="0"/>
        <pt x="354" y="38" on="1"/>
        <pt x="403" y="38" on="0"/>
        <pt x="473" y="88" on="0"/>
        <pt x="517" y="171" on="0"/>
        <pt x="537" y="276" on="0"/>
        <pt x="537" y="331" on="1"/>
        <pt x="537" y="371" on="0"/>
        <pt x="527" y="448" on="0"/>
        <pt x="516" y="483" on="1"/>
      </contour>
      <contour>
        <pt x="485" y="548" on="1"/>
        <pt x="463" y="583" on="0"/>
        <pt x="399" y="624" on="0"/>
        <pt x="354" y="624" on="1"/>
        <pt x="305" y="624" on="0"/>
        <pt x="235" y="574" on="0"/>
        <pt x="191" y="491" on="0"/>
        <pt x="171" y="386" on="0"/>
        <pt x="171" y="331" on="1"/>
        <pt x="171" y="296" on="0"/>
        <pt x="179" y="227" on="0"/>
        <pt x="188" y="195" on="1"/>
      </contour>
      <contour>
        <pt x="588" y="569" on="1"/>
        <pt x="625" y="526" on="0"/>
        <pt x="668" y="407" on="0"/>
        <pt x="668" y="331" on="1"/>
        <pt x="668" y="247" on="0"/>
        <pt x="614" y="118" on="0"/>
        <pt x="526" y="30" on="0"/>
        <pt x="413" y="-15" on="0"/>
        <pt x="354" y="-15" on="1"/>
        <pt x="301" y="-15" on="0"/>
        <pt x="199" y="20" on="0"/>
        <pt x="157" y="55" on="1"/>
        <pt x="94" y="-20" on="1"/>
        <pt x="43" y="22" on="1"/>
        <pt x="111" y="103" on="1"/>
        <pt x="78" y="145" on="0"/>
        <pt x="39" y="259" on="0"/>
        <pt x="39" y="331" on="1"/>
        <pt x="39" y="415" on="0"/>
        <pt x="94" y="544" on="0"/>
        <pt x="182" y="632" on="0"/>
        <pt x="295" y="677" on="0"/>
        <pt x="354" y="677" on="1"/>
        <pt x="404" y="677" on="0"/>
        <pt x="499" y="646" on="0"/>
        <pt x="541" y="614" on="1"/>
        <pt x="595" y="679" on="1"/>
        <pt x="645" y="637" on="1"/>
      </contour>
    </TTGlyph>
    <TTGlyph name="Otilde" xMin="39" yMin="-15" xMax="668" yMax="856">
      <component glyphName="O" x="0" y="0" flags="0x204"/>
      <component glyphName="tildecmb.cap" x="354" y="6" flags="0x4"/>
    </TTGlyph>
    <TTGlyph name="P" xMin="38" yMin="0" xMax="575" yMax="662">
      <contour>
        <pt x="249" y="611" on="1"/>
        <pt x="247" y="547" on="0"/>
        <pt x="247" y="418" on="0"/>
        <pt x="247" y="352" on="1"/>
        <pt x="247" y="310" on="1"/>
        <pt x="286" y="310" on="1"/>
        <pt x="376" y="310" on="0"/>
        <pt x="457" y="395" on="0"/>
        <pt x="457" y="463" on="1"/>
        <pt x="457" y="534" on="0"/>
        <pt x="379" y="611" on="0"/>
        <pt x="294" y="611" on="1"/>
      </contour>
      <contour>
        <pt x="247" y="259" on="1"/>
        <pt x="247" y="209" on="0"/>
        <pt x="247" y="107" on="0"/>
        <pt x="249" y="56" on="1"/>
        <pt x="341" y="46" on="1"/>
        <pt x="341" y="0" on="1"/>
        <pt x="38" y="0" on="1"/>
        <pt x="38" y="46" on="1"/>
        <pt x="124" y="55" on="1"/>
        <pt x="126" y="118" on="0"/>
        <pt x="126" y="245" on="0"/>
        <pt x="126" y="310" on="1"/>
        <pt x="126" y="352" on="1"/>
        <pt x="126" y="416" on="0"/>
        <pt x="126" y="543" on="0"/>
        <pt x="124" y="607" on="1"/>
        <pt x="38" y="616" on="1"/>
        <pt x="38" y="662" on="1"/>
        <pt x="307" y="662" on="1"/>
        <pt x="376" y="662" on="0"/>
        <pt x="477" y="634" on="0"/>
        <pt x="543" y="582" on="0"/>
        <pt x="575" y="509" on="0"/>
        <pt x="575" y="465" on="1"/>
        <pt x="575" y="424" on="0"/>
        <pt x="545" y="350" on="0"/>
        <pt x="475" y="293" on="0"/>
        <pt x="358" y="259" on="0"/>
        <pt x="271" y="259" on="1"/>
      </contour>
    </TTGlyph>
    <TTGlyph name="Q" xMin="38" yMin="-212" xMax="667" yMax="677">
      <contour>
        <pt x="170" y="331" on="1"/>
        <pt x="170" y="276" on="0"/>
        <pt x="190" y="171" on="0"/>
        <pt x="234" y="88" on="0"/>
        <pt x="304" y="38" on="0"/>
        <pt x="353" y="38" on="1"/>
        <pt x="402" y="38" on="0"/>
        <pt x="472" y="88" on="0"/>
        <pt x="516" y="171" on="0"/>
        <pt x="536" y="276" on="0"/>
        <pt x="536" y="331" on="1"/>
        <pt x="536" y="386" on="0"/>
        <pt x="516" y="491" on="0"/>
        <pt x="472" y="574" on="0"/>
        <pt x="402" y="624" on="0"/>
        <pt x="353" y="624" on="1"/>
        <pt x="304" y="624" on="0"/>
        <pt x="234" y="574" on="0"/>
        <pt x="190" y="491" on="0"/>
        <pt x="170" y="386" on="0"/>
      </contour>
      <contour>
        <pt x="620" y="-180" on="1"/>
        <pt x="594" y="-197" on="0"/>
        <pt x="527" y="-212" on="0"/>
        <pt x="495" y="-212" on="1"/>
        <pt x="450" y="-212" on="0"/>
        <pt x="374" y="-181" on="0"/>
        <pt x="320" y="-127" on="0"/>
        <pt x="288" y="-52" on="0"/>
        <pt x="287" y="-8" on="1"/>
        <pt x="237" y="2" on="0"/>
        <pt x="147" y="56" on="0"/>
        <pt x="79" y="141" on="0"/>
        <pt x="38" y="257" on="0"/>
        <pt x="38" y="331" on="1"/>
        <pt x="38" y="415" on="0"/>
        <pt x="93" y="544" on="0"/>
        <pt x="181" y="632" on="0"/>
        <pt x="294" y="677" on="0"/>
        <pt x="353" y="677" on="1"/>
        <pt x="411" y="677" on="0"/>
        <pt x="524" y="633" on="0"/>
        <pt x="613" y="546" on="0"/>
        <pt x="667" y="416" on="0"/>
        <pt x="667" y="331" on="1"/>
        <pt x="667" y="256" on="0"/>
        <pt x="624" y="137" on="0"/>
        <pt x="551" y="50" on="0"/>
        <pt x="455" y="-2" on="0"/>
        <pt x="403" y="-11" on="1"/>
        <pt x="406" y="-83" on="0"/>
        <pt x="477" y="-154" on="0"/>
        <pt x="532" y="-154" on="1"/>
        <pt x="548" y="-154" on="0"/>
        <pt x="585" y="-149" on="0"/>
        <pt x="607" y="-142" on="1"/>
      </contour>
    </TTGlyph>
    <TTGlyph name="R" xMin="38" yMin="-10" xMax="651" yMax="662">
      <contour>
        <pt x="306" y="352" on="1"/>
        <pt x="345" y="352" on="0"/>
        <pt x="402" y="373" on="0"/>
        <pt x="438" y="409" on="0"/>
        <pt x="455" y="459" on="0"/>
        <pt x="455" y="488" on="1"/>
        <pt x="455" y="548" on="0"/>
        <pt x="386" y="611" on="0"/>
        <pt x="311" y="611" on="1"/>
        <pt x="248" y="611" on="1"/>
        <pt x="246" y="548" on="0"/>
        <pt x="246" y="421" on="0"/>
        <pt x="246" y="352" on="1"/>
      </contour>
      <contour>
        <pt x="651" y="46" on="1"/>
        <pt x="651" y="0" on="1"/>
        <pt x="607" y="-10" on="0"/>
        <pt x="565" y="-10" on="1"/>
        <pt x="512" y="-10" on="0"/>
        <pt x="447" y="20" on="0"/>
        <pt x="438" y="64" on="1"/>
        <pt x="405" y="211" on="1"/>
        <pt x="399" y="238" on="0"/>
        <pt x="380" y="273" on="0"/>
        <pt x="351" y="293" on="0"/>
        <pt x="310" y="301" on="0"/>
        <pt x="283" y="301" on="1"/>
        <pt x="246" y="301" on="1"/>
        <pt x="246" y="238" on="0"/>
        <pt x="246" y="116" on="0"/>
        <pt x="248" y="56" on="1"/>
        <pt x="335" y="46" on="1"/>
        <pt x="335" y="0" on="1"/>
        <pt x="38" y="0" on="1"/>
        <pt x="38" y="46" on="1"/>
        <pt x="124" y="55" on="1"/>
        <pt x="126" y="118" on="0"/>
        <pt x="126" y="245" on="0"/>
        <pt x="126" y="310" on="1"/>
        <pt x="126" y="352" on="1"/>
        <pt x="126" y="416" on="0"/>
        <pt x="126" y="543" on="0"/>
        <pt x="124" y="607" on="1"/>
        <pt x="38" y="616" on="1"/>
        <pt x="38" y="662" on="1"/>
        <pt x="334" y="662" on="1"/>
        <pt x="448" y="662" on="0"/>
        <pt x="574" y="572" on="0"/>
        <pt x="574" y="494" on="1"/>
        <pt x="574" y="466" on="0"/>
        <pt x="557" y="412" on="0"/>
        <pt x="520" y="366" on="0"/>
        <pt x="461" y="330" on="0"/>
        <pt x="419" y="321" on="1"/>
        <pt x="462" y="308" on="0"/>
        <pt x="518" y="246" on="0"/>
        <pt x="532" y="192" on="1"/>
        <pt x="566" y="55" on="1"/>
      </contour>
    </TTGlyph>
    <TTGlyph name="Racute" xMin="38" yMin="-10" xMax="651" yMax="878">
      <component glyphName="R" x="0" y="0" flags="0x204"/>
      <component glyphName="acutecmb.cap" x="359" y="0" flags="0x4"/>
    </TTGlyph>
    <TTGlyph name="Rcaron" xMin="38" yMin="-10" xMax="651" yMax="867">
      <component glyphName="R" x="0" y="0" flags="0x204"/>
      <component glyphName="caroncmb.cap" x="318" y="0" flags="0x4"/>
    </TTGlyph>
    <TTGlyph name="S" xMin="37" yMin="-15" xMax="491" yMax="677">
      <contour>
        <pt x="306" y="383" on="1"/>
        <pt x="358" y="364" on="0"/>
        <pt x="428" y="321" on="0"/>
        <pt x="472" y="271" on="0"/>
        <pt x="491" y="215" on="0"/>
        <pt x="491" y="184" on="1"/>
        <pt x="491" y="140" on="0"/>
        <pt x="454" y="67" on="0"/>
        <pt x="388" y="14" on="0"/>
        <pt x="296" y="-15" on="0"/>
        <pt x="240" y="-15" on="1"/>
        <pt x="183" y="-15" on="0"/>
        <pt x="75" y="14" on="0"/>
        <pt x="37" y="37" on="1"/>
        <pt x="43" y="181" on="1"/>
        <pt x="116" y="181" on="1"/>
        <pt x="136" y="62" on="1"/>
        <pt x="159" y="50" on="0"/>
        <pt x="207" y="38" on="0"/>
        <pt x="238" y="38" on="1"/>
        <pt x="305" y="38" on="0"/>
        <pt x="382" y="98" on="0"/>
        <pt x="382" y="152" on="1"/>
        <pt x="382" y="173" on="0"/>
        <pt x="369" y="205" on="0"/>
        <pt x="341" y="231" on="0"/>
        <pt x="299" y="253" on="0"/>
        <pt x="269" y="264" on="1"/>
        <pt x="225" y="280" on="1"/>
        <pt x="141" y="312" on="0"/>
        <pt x="44" y="411" on="0"/>
        <pt x="44" y="486" on="1"/>
        <pt x="44" y="529" on="0"/>
        <pt x="78" y="599" on="0"/>
        <pt x="139" y="649" on="0"/>
        <pt x="225" y="677" on="0"/>
        <pt x="278" y="677" on="1"/>
        <pt x="331" y="677" on="0"/>
        <pt x="420" y="649" on="0"/>
        <pt x="455" y="624" on="1"/>
        <pt x="448" y="490" on="1"/>
        <pt x="376" y="490" on="1"/>
        <pt x="355" y="607" on="1"/>
        <pt x="316" y="624" on="0"/>
        <pt x="276" y="624" on="1"/>
        <pt x="249" y="624" on="0"/>
        <pt x="203" y="610" on="0"/>
        <pt x="169" y="583" on="0"/>
        <pt x="149" y="542" on="0"/>
        <pt x="149" y="516" on="1"/>
        <pt x="149" y="471" on="0"/>
        <pt x="206" y="420" on="0"/>
        <pt x="260" y="400" on="1"/>
      </contour>
    </TTGlyph>
    <TTGlyph name="Sacute" xMin="37" yMin="-15" xMax="491" yMax="878">
      <component glyphName="S" x="0" y="0" flags="0x204"/>
      <component glyphName="acutecmb.cap" x="295" y="0" flags="0x4"/>
    </TTGlyph>
    <TTGlyph name="Scaron" xMin="37" yMin="-15" xMax="491" yMax="867">
      <component glyphName="S" x="0" y="0" flags="0x204"/>
      <component glyphName="caroncmb.cap" x="273" y="0" flags="0x4"/>
    </TTGlyph>
    <TTGlyph name="T" xMin="20" yMin="0" xMax="605" yMax="662">
      <contour>
        <pt x="375" y="609" on="1"/>
        <pt x="373" y="546" on="0"/>
        <pt x="373" y="418" on="0"/>
        <pt x="373" y="352" on="1"/>
        <pt x="373" y="310" on="1"/>
        <pt x="373" y="247" on="0"/>
        <pt x="373" y="120" on="0"/>
        <pt x="375" y="56" on="1"/>
        <pt x="471" y="46" on="1"/>
        <pt x="471" y="0" on="1"/>
        <pt x="154" y="0" on="1"/>
        <pt x="154" y="46" on="1"/>
        <pt x="250" y="56" on="1"/>
        <pt x="252" y="119" on="0"/>
        <pt x="252" y="245" on="0"/>
        <pt x="252" y="310" on="1"/>
        <pt x="252" y="352" on="1"/>
        <pt x="252" y="416" on="0"/>
        <pt x="252" y="544" on="0"/>
        <pt x="250" y="609" on="1"/>
        <pt x="107" y="609" on="1"/>
        <pt x="86" y="480" on="1"/>
        <pt x="20" y="480" on="1"/>
        <pt x="26" y="662" on="1"/>
        <pt x="599" y="662" on="1"/>
        <pt x="605" y="480" on="1"/>
        <pt x="539" y="480" on="1"/>
        <pt x="518" y="609" on="1"/>
      </contour>
    </TTGlyph>
    <TTGlyph name="Tcaron" xMin="20" yMin="0" xMax="605" yMax="867">
      <component glyphName="T" x="0" y="0" flags="0x204"/>
      <component glyphName="caroncmb.cap" x="312" y="0" flags="0x4"/>
    </TTGlyph>
    <TTGlyph name="Thorn" xMin="38" yMin="0" xMax="590" yMax="662">
      <contour>
        <pt x="309" y="200" on="1"/>
        <pt x="393" y="200" on="0"/>
        <pt x="471" y="280" on="0"/>
        <pt x="471" y="345" on="1"/>
        <pt x="471" y="412" on="0"/>
        <pt x="394" y="484" on="0"/>
        <pt x="309" y="484" on="1"/>
        <pt x="247" y="484" on="1"/>
        <pt x="247" y="200" on="1"/>
      </contour>
      <contour>
        <pt x="247" y="149" on="1"/>
        <pt x="247" y="126" on="0"/>
        <pt x="248" y="80" on="0"/>
        <pt x="248" y="57" on="1"/>
        <pt x="343" y="46" on="1"/>
        <pt x="343" y="0" on="1"/>
        <pt x="38" y="0" on="1"/>
        <pt x="38" y="46" on="1"/>
        <pt x="124" y="55" on="1"/>
        <pt x="126" y="118" on="0"/>
        <pt x="126" y="245" on="0"/>
        <pt x="126" y="310" on="1"/>
        <pt x="126" y="352" on="1"/>
        <pt x="126" y="416" on="0"/>
        <pt x="126" y="543" on="0"/>
        <pt x="124" y="607" on="1"/>
        <pt x="38" y="616" on="1"/>
        <pt x="38" y="662" on="1"/>
        <pt x="343" y="662" on="1"/>
        <pt x="343" y="616" on="1"/>
        <pt x="249" y="606" on="1"/>
        <pt x="248" y="588" on="0"/>
        <pt x="247" y="553" on="0"/>
        <pt x="247" y="535" on="1"/>
        <pt x="319" y="535" on="1"/>
        <pt x="459" y="535" on="0"/>
        <pt x="590" y="432" on="0"/>
        <pt x="590" y="345" on="1"/>
        <pt x="590" y="306" on="0"/>
        <pt x="564" y="235" on="0"/>
        <pt x="497" y="181" on="0"/>
        <pt x="382" y="149" on="0"/>
        <pt x="293" y="149" on="1"/>
      </contour>
    </TTGlyph>
    <TTGlyph name="U" xMin="36" yMin="-15" xMax="713" yMax="662">
      <contour>
        <pt x="713" y="616" on="1"/>
        <pt x="625" y="605" on="1"/>
        <pt x="625" y="279" on="1"/>
        <pt x="625" y="198" on="0"/>
        <pt x="587" y="85" on="0"/>
        <pt x="519" y="16" on="0"/>
        <pt x="427" y="-15" on="0"/>
        <pt x="373" y="-15" on="1"/>
        <pt x="316" y="-15" on="0"/>
        <pt x="223" y="16" on="0"/>
        <pt x="157" y="81" on="0"/>
        <pt x="120" y="182" on="0"/>
        <pt x="120" y="252" on="1"/>
        <pt x="120" y="356" on="1"/>
        <pt x="120" y="419" on="0"/>
        <pt x="120" y="544" on="0"/>
        <pt x="118" y="607" on="1"/>
        <pt x="36" y="616" on="1"/>
        <pt x="36" y="662" on="1"/>
        <pt x="333" y="662" on="1"/>
        <pt x="333" y="616" on="1"/>
        <pt x="243" y="606" on="1"/>
        <pt x="241" y="544" on="0"/>
        <pt x="241" y="419" on="0"/>
        <pt x="241" y="356" on="1"/>
        <pt x="241" y="282" on="1"/>
        <pt x="241" y="220" on="0"/>
        <pt x="263" y="137" on="0"/>
        <pt x="305" y="85" on="0"/>
        <pt x="365" y="63" on="0"/>
        <pt x="403" y="63" on="1"/>
        <pt x="443" y="63" on="0"/>
        <pt x="505" y="87" on="0"/>
        <pt x="547" y="141" on="0"/>
        <pt x="569" y="227" on="0"/>
        <pt x="569" y="290" on="1"/>
        <pt x="569" y="605" on="1"/>
        <pt x="475" y="616" on="1"/>
        <pt x="475" y="662" on="1"/>
        <pt x="713" y="662" on="1"/>
      </contour>
    </TTGlyph>
    <TTGlyph name="Uacute" xMin="36" yMin="-15" xMax="713" yMax="874">
      <component glyphName="U" x="0" y="0" flags="0x204"/>
      <component glyphName="acutecmb.cap" x="421" y="-4" flags="0x4"/>
    </TTGlyph>
    <TTGlyph name="Ucircumflex" xMin="36" yMin="-15" xMax="713" yMax="863">
      <component glyphName="U" x="0" y="0" flags="0x204"/>
      <component glyphName="circumflexcmb.cap" x="397" y="-4" flags="0x4"/>
    </TTGlyph>
    <TTGlyph name="Udieresis" xMin="36" yMin="-15" xMax="713" yMax="848">
      <component glyphName="U" x="0" y="0" flags="0x204"/>
      <component glyphName="dieresiscmb.cap" x="403" y="0" flags="0x4"/>
    </TTGlyph>
    <TTGlyph name="Ugrave" xMin="36" yMin="-15" xMax="713" yMax="874">
      <component glyphName="U" x="0" y="0" flags="0x204"/>
      <component glyphName="gravecmb.cap" x="369" y="-4" flags="0x4"/>
    </TTGlyph>
    <TTGlyph name="Uhungarumlaut" xMin="36" yMin="-15" xMax="713" yMax="889">
      <component glyphName="U" x="0" y="0" flags="0x204"/>
      <component glyphName="hungarumlautcmb.cap" x="421" y="0" flags="0x4"/>
    </TTGlyph>
    <TTGlyph name="Umacron" xMin="36" yMin="-15" xMax="713" yMax="813">
      <component glyphName="U" x="0" y="0" flags="0x204"/>
      <component glyphName="macroncmb.cap" x="406" y="0" flags="0x4"/>
    </TTGlyph>
    <TTGlyph name="Uogonek" xMin="36" yMin="-225" xMax="713" yMax="662">
      <contour>
        <pt x="713" y="616" on="1"/>
        <pt x="625" y="605" on="1"/>
        <pt x="625" y="279" on="1"/>
        <pt x="625" y="228" on="0"/>
        <pt x="610" y="148" on="0"/>
        <pt x="582" y="87" on="0"/>
        <pt x="544" y="42" on="0"/>
        <pt x="522" y="26" on="1"/>
        <pt x="482" y="-5" on="0"/>
        <pt x="445" y="-60" on="0"/>
        <pt x="445" y="-89" on="1"/>
        <pt x="445" y="-124" on="0"/>
        <pt x="488" y="-159" on="0"/>
        <pt x="517" y="-159" on="1"/>
        <pt x="528" y="-159" on="0"/>
        <pt x="555" y="-154" on="0"/>
        <pt x="569" y="-148" on="1"/>
        <pt x="582" y="-179" on="1"/>
        <pt x="561" y="-202" on="0"/>
        <pt x="500" y="-225" on="0"/>
        <pt x="469" y="-225" on="1"/>
        <pt x="421" y="-225" on="0"/>
        <pt x="366" y="-175" on="0"/>
        <pt x="366" y="-131" on="1"/>
        <pt x="366" y="-96" on="0"/>
        <pt x="400" y="-34" on="0"/>
        <pt x="428" y="-12" on="1"/>
        <pt x="405" y="-15" on="0"/>
        <pt x="382" y="-15" on="1"/>
        <pt x="322" y="-15" on="0"/>
        <pt x="225" y="16" on="0"/>
        <pt x="157" y="81" on="0"/>
        <pt x="120" y="182" on="0"/>
        <pt x="120" y="252" on="1"/>
        <pt x="120" y="356" on="1"/>
        <pt x="120" y="419" on="0"/>
        <pt x="120" y="544" on="0"/>
        <pt x="118" y="607" on="1"/>
        <pt x="36" y="616" on="1"/>
        <pt x="36" y="662" on="1"/>
        <pt x="333" y="662" on="1"/>
        <pt x="333" y="616" on="1"/>
        <pt x="243" y="606" on="1"/>
        <pt x="241" y="543" on="0"/>
        <pt x="241" y="419" on="0"/>
        <pt x="241" y="356" on="1"/>
        <pt x="241" y="282" on="1"/>
        <pt x="241" y="220" on="0"/>
        <pt x="263" y="137" on="0"/>
        <pt x="305" y="85" on="0"/>
        <pt x="364" y="63" on="0"/>
        <pt x="402" y="63" on="1"/>
        <pt x="443" y="63" on="0"/>
        <pt x="505" y="87" on="0"/>
        <pt x="547" y="141" on="0"/>
        <pt x="569" y="227" on="0"/>
        <pt x="569" y="290" on="1"/>
        <pt x="569" y="605" on="1"/>
        <pt x="475" y="616" on="1"/>
        <pt x="475" y="662" on="1"/>
        <pt x="713" y="662" on="1"/>
      </contour>
    </TTGlyph>
    <TTGlyph name="Uring" xMin="36" yMin="-15" xMax="713" yMax="908">
      <component glyphName="U" x="0" y="0" flags="0x204"/>
      <component glyphName="ringcmb.cap" x="397" y="0" flags="0x4"/>
    </TTGlyph>
    <TTGlyph name="V" xMin="10" yMin="-10" xMax="654" yMax="662">
      <contour>
        <pt x="654" y="616" on="1"/>
        <pt x="574" y="604" on="1"/>
        <pt x="359" y="-10" on="1"/>
        <pt x="314" y="-10" on="1"/>
        <pt x="78" y="608" on="1"/>
        <pt x="10" y="616" on="1"/>
        <pt x="10" y="662" on="1"/>
        <pt x="294" y="662" on="1"/>
        <pt x="294" y="614" on="1"/>
        <pt x="206" y="605" on="1"/>
        <pt x="366" y="163" on="1"/>
        <pt x="519" y="602" on="1"/>
        <pt x="426" y="614" on="1"/>
        <pt x="426" y="662" on="1"/>
        <pt x="654" y="662" on="1"/>
      </contour>
    </TTGlyph>
    <TTGlyph name="W" xMin="10" yMin="-10" xMax="968" yMax="662">
      <contour>
        <pt x="968" y="616" on="1"/>
        <pt x="885" y="603" on="1"/>
        <pt x="707" y="-10" on="1"/>
        <pt x="661" y="-10" on="1"/>
        <pt x="485" y="500" on="1"/>
        <pt x="314" y="-10" on="1"/>
        <pt x="269" y="-10" on="1"/>
        <pt x="81" y="608" on="1"/>
        <pt x="10" y="616" on="1"/>
        <pt x="10" y="662" on="1"/>
        <pt x="292" y="662" on="1"/>
        <pt x="292" y="616" on="1"/>
        <pt x="206" y="606" on="1"/>
        <pt x="324" y="187" on="1"/>
        <pt x="471" y="605" on="1"/>
        <pt x="382" y="616" on="1"/>
        <pt x="382" y="662" on="1"/>
        <pt x="659" y="662" on="1"/>
        <pt x="659" y="616" on="1"/>
        <pt x="571" y="605" on="1"/>
        <pt x="710" y="182" on="1"/>
        <pt x="834" y="603" on="1"/>
        <pt x="741" y="616" on="1"/>
        <pt x="741" y="662" on="1"/>
        <pt x="968" y="662" on="1"/>
      </contour>
    </TTGlyph>
    <TTGlyph name="X" xMin="16" yMin="0" xMax="631" yMax="662">
      <contour>
        <pt x="631" y="46" on="1"/>
        <pt x="631" y="0" on="1"/>
        <pt x="343" y="0" on="1"/>
        <pt x="343" y="46" on="1"/>
        <pt x="421" y="55" on="1"/>
        <pt x="298" y="271" on="1"/>
        <pt x="161" y="55" on="1"/>
        <pt x="236" y="46" on="1"/>
        <pt x="236" y="0" on="1"/>
        <pt x="16" y="0" on="1"/>
        <pt x="16" y="46" on="1"/>
        <pt x="101" y="56" on="1"/>
        <pt x="273" y="315" on="1"/>
        <pt x="106" y="607" on="1"/>
        <pt x="26" y="616" on="1"/>
        <pt x="26" y="662" on="1"/>
        <pt x="316" y="662" on="1"/>
        <pt x="316" y="616" on="1"/>
        <pt x="239" y="607" on="1"/>
        <pt x="350" y="413" on="1"/>
        <pt x="473" y="606" on="1"/>
        <pt x="394" y="616" on="1"/>
        <pt x="394" y="662" on="1"/>
        <pt x="621" y="662" on="1"/>
        <pt x="621" y="616" on="1"/>
        <pt x="534" y="606" on="1"/>
        <pt x="375" y="368" on="1"/>
        <pt x="554" y="55" on="1"/>
      </contour>
    </TTGlyph>
    <TTGlyph name="Y" xMin="8" yMin="0" xMax="613" yMax="662">
      <contour>
        <pt x="370" y="279" on="1"/>
        <pt x="370" y="230" on="1"/>
        <pt x="370" y="186" on="0"/>
        <pt x="370" y="104" on="0"/>
        <pt x="371" y="56" on="1"/>
        <pt x="469" y="46" on="1"/>
        <pt x="469" y="0" on="1"/>
        <pt x="151" y="0" on="1"/>
        <pt x="151" y="46" on="1"/>
        <pt x="248" y="56" on="1"/>
        <pt x="249" y="104" on="0"/>
        <pt x="249" y="186" on="0"/>
        <pt x="249" y="230" on="1"/>
        <pt x="249" y="273" on="1"/>
        <pt x="80" y="608" on="1"/>
        <pt x="8" y="616" on="1"/>
        <pt x="8" y="662" on="1"/>
        <pt x="303" y="662" on="1"/>
        <pt x="303" y="616" on="1"/>
        <pt x="216" y="606" on="1"/>
        <pt x="343" y="327" on="1"/>
        <pt x="477" y="604" on="1"/>
        <pt x="392" y="616" on="1"/>
        <pt x="392" y="662" on="1"/>
        <pt x="613" y="662" on="1"/>
        <pt x="613" y="616" on="1"/>
        <pt x="531" y="603" on="1"/>
      </contour>
    </TTGlyph>
    <TTGlyph name="Yacute" xMin="8" yMin="0" xMax="613" yMax="874">
      <component glyphName="Y" x="0" y="0" flags="0x204"/>
      <component glyphName="acutecmb.cap" x="363" y="-4" flags="0x4"/>
    </TTGlyph>
    <TTGlyph name="Ydieresis" xMin="8" yMin="0" xMax="613" yMax="848">
      <component glyphName="Y" x="0" y="0" flags="0x204"/>
      <component glyphName="dieresiscmb.cap" x="338" y="0" flags="0x4"/>
    </TTGlyph>
    <TTGlyph name="Z" xMin="20" yMin="0" xMax="540" yMax="662">
      <contour>
        <pt x="540" y="181" on="1"/>
        <pt x="532" y="0" on="1"/>
        <pt x="20" y="0" on="1"/>
        <pt x="20" y="38" on="1"/>
        <pt x="381" y="609" on="1"/>
        <pt x="127" y="609" on="1"/>
        <pt x="100" y="480" on="1"/>
        <pt x="30" y="480" on="1"/>
        <pt x="38" y="662" on="1"/>
        <pt x="520" y="662" on="1"/>
        <pt x="520" y="624" on="1"/>
        <pt x="159" y="53" on="1"/>
        <pt x="444" y="53" on="1"/>
        <pt x="470" y="181" on="1"/>
      </contour>
    </TTGlyph>
    <TTGlyph name="Zacute" xMin="20" yMin="0" xMax="540" yMax="878">
      <component glyphName="Z" x="0" y="0" flags="0x204"/>
      <component glyphName="acutecmb.cap" x="316" y="0" flags="0x4"/>
    </TTGlyph>
    <TTGlyph name="Zcaron" xMin="20" yMin="0" xMax="540" yMax="867">
      <component glyphName="Z" x="0" y="0" flags="0x204"/>
      <component glyphName="caroncmb.cap" x="286" y="0" flags="0x4"/>
    </TTGlyph>
    <TTGlyph name="Zdotaccent" xMin="20" yMin="0" xMax="540" yMax="866">
      <component glyphName="Z" x="0" y="0" flags="0x204"/>
      <component glyphName="dotaccentcmb.cap" x="292" y="0" flags="0x4"/>
    </TTGlyph>
    <TTGlyph name="a" xMin="45" yMin="-15" xMax="522" yMax="494">
      <contour>
        <pt x="321" y="259" on="1"/>
        <pt x="298" y="252" on="0"/>
        <pt x="257" y="238" on="0"/>
        <pt x="243" y="233" on="1"/>
        <pt x="189" y="212" on="0"/>
        <pt x="155" y="159" on="0"/>
        <pt x="155" y="132" on="1"/>
        <pt x="155" y="112" on="0"/>
        <pt x="166" y="88" on="0"/>
        <pt x="175" y="79" on="1"/>
        <pt x="197" y="57" on="0"/>
        <pt x="233" y="57" on="1"/>
        <pt x="253" y="57" on="0"/>
        <pt x="290" y="74" on="0"/>
        <pt x="321" y="97" on="1"/>
      </contour>
      <contour>
        <pt x="522" y="53" on="1"/>
        <pt x="503" y="16" on="0"/>
        <pt x="458" y="-10" on="0"/>
        <pt x="426" y="-10" on="1"/>
        <pt x="384" y="-10" on="0"/>
        <pt x="334" y="26" on="0"/>
        <pt x="325" y="57" on="1"/>
        <pt x="307" y="39" on="0"/>
        <pt x="274" y="12" on="0"/>
        <pt x="241" y="-6" on="0"/>
        <pt x="203" y="-15" on="0"/>
        <pt x="180" y="-15" on="1"/>
        <pt x="123" y="-15" on="0"/>
        <pt x="45" y="48" on="0"/>
        <pt x="45" y="108" on="1"/>
        <pt x="45" y="130" on="0"/>
        <pt x="59" y="172" on="0"/>
        <pt x="98" y="213" on="0"/>
        <pt x="167" y="251" on="0"/>
        <pt x="221" y="270" on="1"/>
        <pt x="241" y="277" on="0"/>
        <pt x="294" y="292" on="0"/>
        <pt x="321" y="300" on="1"/>
        <pt x="321" y="327" on="1"/>
        <pt x="321" y="395" on="0"/>
        <pt x="280" y="447" on="0"/>
        <pt x="231" y="447" on="1"/>
        <pt x="222" y="447" on="0"/>
        <pt x="201" y="445" on="0"/>
        <pt x="190" y="443" on="1"/>
        <pt x="176" y="379" on="1"/>
        <pt x="164" y="316" on="0"/>
        <pt x="114" y="316" on="1"/>
        <pt x="92" y="316" on="0"/>
        <pt x="64" y="342" on="0"/>
        <pt x="61" y="363" on="1"/>
        <pt x="71" y="421" on="0"/>
        <pt x="179" y="494" on="0"/>
        <pt x="266" y="494" on="1"/>
        <pt x="352" y="494" on="0"/>
        <pt x="431" y="410" on="0"/>
        <pt x="431" y="306" on="1"/>
        <pt x="431" y="96" on="1"/>
        <pt x="431" y="49" on="0"/>
        <pt x="460" y="49" on="1"/>
        <pt x="471" y="49" on="0"/>
        <pt x="487" y="60" on="0"/>
        <pt x="494" y="68" on="1"/>
        <pt x="499" y="73" on="1"/>
      </contour>
    </TTGlyph>
    <TTGlyph name="a.sups" xMin="31" yMin="410" xMax="360" yMax="745">
      <contour>
        <pt x="218" y="585" on="1"/>
        <pt x="202" y="581" on="0"/>
        <pt x="174" y="573" on="0"/>
        <pt x="165" y="570" on="1"/>
        <pt x="132" y="558" on="0"/>
        <pt x="110" y="526" on="0"/>
        <pt x="110" y="509" on="1"/>
        <pt x="110" y="496" on="0"/>
        <pt x="117" y="480" on="0"/>
        <pt x="122" y="475" on="1"/>
        <pt x="130" y="467" on="0"/>
        <pt x="150" y="461" on="0"/>
        <pt x="160" y="461" on="1"/>
        <pt x="174" y="461" on="0"/>
        <pt x="198" y="470" on="0"/>
        <pt x="218" y="484" on="1"/>
      </contour>
      <contour>
        <pt x="360" y="458" on="1"/>
        <pt x="347" y="432" on="0"/>
        <pt x="314" y="413" on="0"/>
        <pt x="292" y="413" on="1"/>
        <pt x="265" y="413" on="0"/>
        <pt x="229" y="435" on="0"/>
        <pt x="222" y="455" on="1"/>
        <pt x="199" y="435" on="0"/>
        <pt x="150" y="410" on="0"/>
        <pt x="120" y="410" on="1"/>
        <pt x="82" y="410" on="0"/>
        <pt x="31" y="451" on="0"/>
        <pt x="31" y="490" on="1"/>
        <pt x="31" y="505" on="0"/>
        <pt x="41" y="534" on="0"/>
        <pt x="67" y="560" on="0"/>
        <pt x="114" y="585" on="0"/>
        <pt x="151" y="597" on="1"/>
        <pt x="165" y="602" on="0"/>
        <pt x="200" y="611" on="0"/>
        <pt x="218" y="616" on="1"/>
        <pt x="218" y="636" on="1"/>
        <pt x="218" y="678" on="0"/>
        <pt x="192" y="710" on="0"/>
        <pt x="161" y="710" on="1"/>
        <pt x="155" y="710" on="0"/>
        <pt x="140" y="709" on="0"/>
        <pt x="131" y="708" on="1"/>
        <pt x="124" y="671" on="1"/>
        <pt x="119" y="648" on="0"/>
        <pt x="95" y="625" on="0"/>
        <pt x="79" y="625" on="1"/>
        <pt x="64" y="625" on="0"/>
        <pt x="44" y="643" on="0"/>
        <pt x="42" y="657" on="1"/>
        <pt x="48" y="695" on="0"/>
        <pt x="122" y="745" on="0"/>
        <pt x="181" y="745" on="1"/>
        <pt x="241" y="745" on="0"/>
        <pt x="299" y="686" on="0"/>
        <pt x="299" y="617" on="1"/>
        <pt x="299" y="481" on="1"/>
        <pt x="299" y="469" on="0"/>
        <pt x="309" y="454" on="0"/>
        <pt x="317" y="454" on="1"/>
        <pt x="325" y="454" on="0"/>
        <pt x="336" y="463" on="0"/>
        <pt x="343" y="471" on="1"/>
      </contour>
    </TTGlyph>
    <TTGlyph name="aacute" xMin="45" yMin="-15" xMax="522" yMax="760">
      <component glyphName="a" x="0" y="0" flags="0x204"/>
      <component glyphName="uni0301" x="291" y="0" flags="0x4"/>
    </TTGlyph>
    <TTGlyph name="abreve" xMin="45" yMin="-15" xMax="522" yMax="739">
      <component glyphName="a" x="0" y="0" flags="0x204"/>
      <component glyphName="uni0306" x="265" y="0" flags="0x4"/>
    </TTGlyph>
    <TTGlyph name="acircumflex" xMin="45" yMin="-15" xMax="522" yMax="753">
      <component glyphName="a" x="0" y="0" flags="0x204"/>
      <component glyphName="uni0302" x="263" y="0" flags="0x4"/>
    </TTGlyph>
    <TTGlyph name="acute" xMin="113" yMin="549" xMax="306" yMax="760">
      <component glyphName="uni0301" x="201" y="0" flags="0x4"/>
    </TTGlyph>
    <TTGlyph name="acutecmb.cap" xMin="-97" yMin="711" xMax="113" yMax="878">
      <contour>
        <pt x="4" y="839" on="1"/>
        <pt x="26" y="860" on="0"/>
        <pt x="56" y="878" on="0"/>
        <pt x="70" y="878" on="1"/>
        <pt x="89" y="878" on="0"/>
        <pt x="113" y="855" on="0"/>
        <pt x="113" y="838" on="1"/>
        <pt x="113" y="824" on="0"/>
        <pt x="91" y="796" on="0"/>
        <pt x="59" y="780" on="1"/>
        <pt x="-76" y="711" on="1"/>
        <pt x="-97" y="741" on="1"/>
      </contour>
    </TTGlyph>
    <TTGlyph name="adieresis" xMin="45" yMin="-15" xMax="522" yMax="704">
      <component glyphName="a" x="0" y="0" flags="0x204"/>
      <component glyphName="uni0308" x="257" y="0" flags="0x4"/>
    </TTGlyph>
    <TTGlyph name="ae" xMin="45" yMin="-15" xMax="754" yMax="494">
      <contour>
        <pt x="341" y="109" on="1"/>
        <pt x="316" y="164" on="0"/>
        <pt x="316" y="234" on="1"/>
        <pt x="316" y="240" on="0"/>
        <pt x="316" y="252" on="0"/>
        <pt x="317" y="258" on="1"/>
        <pt x="295" y="251" on="0"/>
        <pt x="257" y="238" on="0"/>
        <pt x="243" y="233" on="1"/>
        <pt x="189" y="212" on="0"/>
        <pt x="155" y="159" on="0"/>
        <pt x="155" y="132" on="1"/>
        <pt x="155" y="112" on="0"/>
        <pt x="166" y="88" on="0"/>
        <pt x="175" y="79" on="1"/>
        <pt x="197" y="57" on="0"/>
        <pt x="233" y="57" on="1"/>
        <pt x="257" y="57" on="0"/>
        <pt x="296" y="75" on="0"/>
        <pt x="329" y="100" on="1"/>
      </contour>
      <contour>
        <pt x="586" y="285" on="1"/>
        <pt x="622" y="285" on="0"/>
        <pt x="647" y="315" on="0"/>
        <pt x="647" y="343" on="1"/>
        <pt x="647" y="391" on="0"/>
        <pt x="594" y="447" on="0"/>
        <pt x="557" y="447" on="1"/>
        <pt x="539" y="447" on="0"/>
        <pt x="499" y="430" on="0"/>
        <pt x="465" y="392" on="0"/>
        <pt x="440" y="330" on="0"/>
        <pt x="436" y="285" on="1"/>
      </contour>
      <contour>
        <pt x="434" y="239" on="1"/>
        <pt x="436" y="148" on="0"/>
        <pt x="520" y="56" on="0"/>
        <pt x="588" y="56" on="1"/>
        <pt x="633" y="56" on="0"/>
        <pt x="694" y="95" on="0"/>
        <pt x="719" y="129" on="1"/>
        <pt x="748" y="111" on="1"/>
        <pt x="725" y="51" on="0"/>
        <pt x="621" y="-15" on="0"/>
        <pt x="549" y="-15" on="1"/>
        <pt x="486" y="-15" on="0"/>
        <pt x="390" y="32" on="0"/>
        <pt x="359" y="76" on="1"/>
        <pt x="337" y="57" on="1"/>
        <pt x="314" y="37" on="0"/>
        <pt x="278" y="10" on="0"/>
        <pt x="244" y="-7" on="0"/>
        <pt x="207" y="-15" on="0"/>
        <pt x="185" y="-15" on="1"/>
        <pt x="124" y="-15" on="0"/>
        <pt x="45" y="48" on="0"/>
        <pt x="45" y="108" on="1"/>
        <pt x="45" y="130" on="0"/>
        <pt x="59" y="172" on="0"/>
        <pt x="98" y="213" on="0"/>
        <pt x="167" y="251" on="0"/>
        <pt x="221" y="270" on="1"/>
        <pt x="241" y="277" on="0"/>
        <pt x="294" y="292" on="0"/>
        <pt x="321" y="300" on="1"/>
        <pt x="321" y="327" on="1"/>
        <pt x="321" y="397" on="0"/>
        <pt x="279" y="447" on="0"/>
        <pt x="237" y="447" on="1"/>
        <pt x="213" y="447" on="0"/>
        <pt x="190" y="443" on="1"/>
        <pt x="177" y="382" on="1"/>
        <pt x="165" y="317" on="0"/>
        <pt x="114" y="317" on="1"/>
        <pt x="90" y="317" on="0"/>
        <pt x="64" y="342" on="0"/>
        <pt x="61" y="362" on="1"/>
        <pt x="71" y="421" on="0"/>
        <pt x="176" y="494" on="0"/>
        <pt x="261" y="494" on="1"/>
        <pt x="315" y="494" on="0"/>
        <pt x="386" y="459" on="0"/>
        <pt x="406" y="427" on="1"/>
        <pt x="437" y="461" on="0"/>
        <pt x="513" y="494" on="0"/>
        <pt x="557" y="494" on="1"/>
        <pt x="600" y="494" on="0"/>
        <pt x="673" y="465" on="0"/>
        <pt x="725" y="413" on="0"/>
        <pt x="754" y="338" on="0"/>
        <pt x="754" y="292" on="1"/>
        <pt x="754" y="277" on="0"/>
        <pt x="750" y="250" on="0"/>
        <pt x="747" y="239" on="1"/>
      </contour>
    </TTGlyph>
    <TTGlyph name="agrave" xMin="45" yMin="-15" xMax="522" yMax="760">
      <component glyphName="a" x="0" y="0" flags="0x204"/>
      <component glyphName="uni0300" x="259" y="0" flags="0x4"/>
    </TTGlyph>
    <TTGlyph name="amacron" xMin="45" yMin="-15" xMax="522" yMax="676">
      <component glyphName="a" x="0" y="0" flags="0x204"/>
      <component glyphName="uni0304" x="262" y="0" flags="0x4"/>
    </TTGlyph>
    <TTGlyph name="ampersand" xMin="32" yMin="-15" xMax="711" yMax="677">
      <contour>
        <pt x="278" y="55" on="1"/>
        <pt x="321" y="55" on="0"/>
        <pt x="386" y="90" on="0"/>
        <pt x="412" y="115" on="1"/>
        <pt x="390" y="141" on="0"/>
        <pt x="347" y="194" on="0"/>
        <pt x="323" y="221" on="1"/>
        <pt x="294" y="255" on="0"/>
        <pt x="244" y="317" on="0"/>
        <pt x="221" y="343" on="1"/>
        <pt x="177" y="314" on="0"/>
        <pt x="141" y="240" on="0"/>
        <pt x="141" y="200" on="1"/>
        <pt x="141" y="171" on="0"/>
        <pt x="160" y="118" on="0"/>
        <pt x="195" y="78" on="0"/>
        <pt x="246" y="55" on="0"/>
      </contour>
      <contour>
        <pt x="241" y="455" on="1"/>
        <pt x="250" y="445" on="0"/>
        <pt x="271" y="424" on="0"/>
        <pt x="283" y="412" on="1"/>
        <pt x="318" y="442" on="0"/>
        <pt x="355" y="508" on="0"/>
        <pt x="355" y="545" on="1"/>
        <pt x="355" y="587" on="0"/>
        <pt x="314" y="639" on="0"/>
        <pt x="275" y="639" on="1"/>
        <pt x="236" y="639" on="0"/>
        <pt x="192" y="595" on="0"/>
        <pt x="192" y="561" on="1"/>
        <pt x="192" y="536" on="0"/>
        <pt x="215" y="484" on="0"/>
      </contour>
      <contour>
        <pt x="642" y="423" on="1"/>
        <pt x="613" y="351" on="0"/>
        <pt x="547" y="218" on="0"/>
        <pt x="504" y="158" on="1"/>
        <pt x="524" y="133" on="0"/>
        <pt x="563" y="84" on="0"/>
        <pt x="581" y="61" on="1"/>
        <pt x="689" y="39" on="1"/>
        <pt x="689" y="0" on="1"/>
        <pt x="665" y="-5" on="0"/>
        <pt x="624" y="-10" on="0"/>
        <pt x="601" y="-10" on="1"/>
        <pt x="574" y="-10" on="0"/>
        <pt x="535" y="-3" on="0"/>
        <pt x="503" y="13" on="0"/>
        <pt x="475" y="39" on="0"/>
        <pt x="459" y="58" on="1"/>
        <pt x="441" y="79" on="1"/>
        <pt x="409" y="41" on="0"/>
        <pt x="315" y="-15" on="0"/>
        <pt x="242" y="-15" on="1"/>
        <pt x="193" y="-15" on="0"/>
        <pt x="115" y="14" on="0"/>
        <pt x="61" y="65" on="0"/>
        <pt x="32" y="133" on="0"/>
        <pt x="32" y="171" on="1"/>
        <pt x="32" y="236" on="0"/>
        <pt x="113" y="332" on="0"/>
        <pt x="195" y="371" on="1"/>
        <pt x="189" y="378" on="1"/>
        <pt x="151" y="419" on="0"/>
        <pt x="104" y="490" on="0"/>
        <pt x="104" y="538" on="1"/>
        <pt x="104" y="570" on="0"/>
        <pt x="130" y="621" on="0"/>
        <pt x="176" y="657" on="0"/>
        <pt x="240" y="677" on="0"/>
        <pt x="278" y="677" on="1"/>
        <pt x="353" y="677" on="0"/>
        <pt x="436" y="604" on="0"/>
        <pt x="436" y="548" on="1"/>
        <pt x="436" y="497" on="0"/>
        <pt x="373" y="422" on="0"/>
        <pt x="307" y="386" on="1"/>
        <pt x="322" y="370" on="0"/>
        <pt x="355" y="334" on="0"/>
        <pt x="375" y="311" on="1"/>
        <pt x="398" y="284" on="0"/>
        <pt x="451" y="223" on="0"/>
        <pt x="477" y="191" on="1"/>
        <pt x="543" y="297" on="0"/>
        <pt x="584" y="421" on="1"/>
        <pt x="493" y="434" on="1"/>
        <pt x="493" y="476" on="1"/>
        <pt x="711" y="476" on="1"/>
        <pt x="711" y="434" on="1"/>
      </contour>
    </TTGlyph>
    <TTGlyph name="aogonek" xMin="45" yMin="-226" xMax="537" yMax="494">
      <contour>
        <pt x="321" y="259" on="1"/>
        <pt x="298" y="252" on="0"/>
        <pt x="257" y="238" on="0"/>
        <pt x="243" y="233" on="1"/>
        <pt x="189" y="212" on="0"/>
        <pt x="155" y="159" on="0"/>
        <pt x="155" y="132" on="1"/>
        <pt x="155" y="112" on="0"/>
        <pt x="166" y="88" on="0"/>
        <pt x="175" y="79" on="1"/>
        <pt x="197" y="57" on="0"/>
        <pt x="233" y="57" on="1"/>
        <pt x="253" y="57" on="0"/>
        <pt x="290" y="74" on="0"/>
        <pt x="321" y="97" on="1"/>
      </contour>
      <contour>
        <pt x="537" y="-179" on="1"/>
        <pt x="516" y="-202" on="0"/>
        <pt x="454" y="-226" on="0"/>
        <pt x="421" y="-226" on="1"/>
        <pt x="376" y="-226" on="0"/>
        <pt x="321" y="-176" on="0"/>
        <pt x="321" y="-134" on="1"/>
        <pt x="321" y="-95" on="0"/>
        <pt x="376" y="-30" on="0"/>
        <pt x="414" y="-10" on="1"/>
        <pt x="379" y="-7" on="0"/>
        <pt x="334" y="28" on="0"/>
        <pt x="325" y="57" on="1"/>
        <pt x="307" y="39" on="0"/>
        <pt x="274" y="12" on="0"/>
        <pt x="241" y="-6" on="0"/>
        <pt x="203" y="-15" on="0"/>
        <pt x="180" y="-15" on="1"/>
        <pt x="123" y="-15" on="0"/>
        <pt x="45" y="48" on="0"/>
        <pt x="45" y="108" on="1"/>
        <pt x="45" y="130" on="0"/>
        <pt x="59" y="172" on="0"/>
        <pt x="98" y="213" on="0"/>
        <pt x="167" y="251" on="0"/>
        <pt x="221" y="270" on="1"/>
        <pt x="241" y="277" on="0"/>
        <pt x="294" y="292" on="0"/>
        <pt x="321" y="300" on="1"/>
        <pt x="321" y="327" on="1"/>
        <pt x="321" y="395" on="0"/>
        <pt x="280" y="447" on="0"/>
        <pt x="231" y="447" on="1"/>
        <pt x="222" y="447" on="0"/>
        <pt x="201" y="445" on="0"/>
        <pt x="190" y="443" on="1"/>
        <pt x="176" y="379" on="1"/>
        <pt x="164" y="316" on="0"/>
        <pt x="114" y="316" on="1"/>
        <pt x="92" y="316" on="0"/>
        <pt x="64" y="342" on="0"/>
        <pt x="61" y="363" on="1"/>
        <pt x="71" y="421" on="0"/>
        <pt x="179" y="494" on="0"/>
        <pt x="266" y="494" on="1"/>
        <pt x="352" y="494" on="0"/>
        <pt x="431" y="410" on="0"/>
        <pt x="431" y="306" on="1"/>
        <pt x="431" y="96" on="1"/>
        <pt x="431" y="49" on="0"/>
        <pt x="460" y="49" on="1"/>
        <pt x="471" y="49" on="0"/>
        <pt x="487" y="60" on="0"/>
        <pt x="494" y="68" on="1"/>
        <pt x="499" y="73" on="1"/>
        <pt x="522" y="52" on="1"/>
        <pt x="508" y="32" on="0"/>
        <pt x="486" y="10" on="0"/>
        <pt x="469" y="-3" on="1"/>
        <pt x="441" y="-25" on="0"/>
        <pt x="400" y="-67" on="0"/>
        <pt x="400" y="-94" on="1"/>
        <pt x="400" y="-126" on="0"/>
        <pt x="443" y="-160" on="0"/>
        <pt x="472" y="-160" on="1"/>
        <pt x="483" y="-160" on="0"/>
        <pt x="510" y="-155" on="0"/>
        <pt x="524" y="-148" on="1"/>
      </contour>
    </TTGlyph>
    <TTGlyph name="approxequal" xMin="43" yMin="131" xMax="487" yMax="536">
      <component glyphName="asciitilde" x="0" y="-131" flags="0x204"/>
      <component glyphName="asciitilde" x="0" y="108" flags="0x4"/>
    </TTGlyph>
    <TTGlyph name="aring" xMin="45" yMin="-15" xMax="522" yMax="752">
      <component glyphName="a" x="0" y="0" flags="0x204"/>
      <component glyphName="uni030A" x="259" y="0" flags="0x4"/>
    </TTGlyph>
    <TTGlyph name="arrowdown" xMin="46" yMin="-36" xMax="647" yMax="600">
      <contour>
        <pt x="647" y="280" on="1"/>
        <pt x="364" y="-36" on="1"/>
        <pt x="329" y="-36" on="1"/>
        <pt x="46" y="280" on="1"/>
        <pt x="81" y="315" on="1"/>
        <pt x="320" y="81" on="1"/>
        <pt x="306" y="562" on="1"/>
        <pt x="306" y="600" on="1"/>
        <pt x="387" y="600" on="1"/>
        <pt x="387" y="564" on="1"/>
        <pt x="373" y="81" on="1"/>
        <pt x="612" y="315" on="1"/>
      </contour>
    </TTGlyph>
    <TTGlyph name="arrowup" xMin="46" yMin="-36" xMax="647" yMax="600">
      <contour>
        <pt x="612" y="249" on="1"/>
        <pt x="373" y="483" on="1"/>
        <pt x="387" y="2" on="1"/>
        <pt x="387" y="-36" on="1"/>
        <pt x="306" y="-36" on="1"/>
        <pt x="306" y="0" on="1"/>
        <pt x="320" y="483" on="1"/>
        <pt x="81" y="249" on="1"/>
        <pt x="46" y="284" on="1"/>
        <pt x="329" y="600" on="1"/>
        <pt x="364" y="600" on="1"/>
        <pt x="647" y="284" on="1"/>
      </contour>
    </TTGlyph>
    <TTGlyph name="asciicircum" xMin="76" yMin="197" xMax="456" yMax="490">
      <contour>
        <pt x="402" y="197" on="1"/>
        <pt x="266" y="416" on="1"/>
        <pt x="130" y="197" on="1"/>
        <pt x="76" y="239" on="1"/>
        <pt x="229" y="490" on="1"/>
        <pt x="302" y="490" on="1"/>
        <pt x="456" y="239" on="1"/>
      </contour>
    </TTGlyph>
    <TTGlyph name="asciitilde" xMin="43" yMin="262" xMax="487" yMax="428">
      <contour>
        <pt x="285" y="374" on="1"/>
        <pt x="313" y="350" on="0"/>
        <pt x="348" y="331" on="0"/>
        <pt x="365" y="331" on="1"/>
        <pt x="375" y="331" on="0"/>
        <pt x="395" y="339" on="0"/>
        <pt x="411" y="359" on="0"/>
        <pt x="424" y="395" on="0"/>
        <pt x="428" y="423" on="1"/>
        <pt x="487" y="415" on="1"/>
        <pt x="482" y="332" on="0"/>
        <pt x="417" y="262" on="0"/>
        <pt x="366" y="262" on="1"/>
        <pt x="334" y="262" on="0"/>
        <pt x="278" y="290" on="0"/>
        <pt x="246" y="316" on="1"/>
        <pt x="217" y="341" on="0"/>
        <pt x="183" y="359" on="0"/>
        <pt x="165" y="359" on="1"/>
        <pt x="155" y="359" on="0"/>
        <pt x="136" y="351" on="0"/>
        <pt x="119" y="331" on="0"/>
        <pt x="107" y="295" on="0"/>
        <pt x="103" y="267" on="1"/>
        <pt x="43" y="275" on="1"/>
        <pt x="48" y="358" on="0"/>
        <pt x="113" y="428" on="0"/>
        <pt x="165" y="428" on="1"/>
        <pt x="197" y="428" on="0"/>
        <pt x="253" y="400" on="0"/>
      </contour>
    </TTGlyph>
    <TTGlyph name="asterisk" xMin="20" yMin="362" xMax="417" yMax="744">
      <contour>
        <pt x="218" y="744" on="1"/>
        <pt x="237" y="744" on="0"/>
        <pt x="262" y="722" on="0"/>
        <pt x="262" y="698" on="1"/>
        <pt x="262" y="684" on="0"/>
        <pt x="252" y="635" on="0"/>
        <pt x="244" y="604" on="1"/>
        <pt x="235" y="560" on="1"/>
        <pt x="273" y="583" on="1"/>
        <pt x="309" y="605" on="0"/>
        <pt x="359" y="630" on="0"/>
        <pt x="376" y="630" on="1"/>
        <pt x="394" y="630" on="0"/>
        <pt x="417" y="605" on="0"/>
        <pt x="417" y="586" on="1"/>
        <pt x="417" y="558" on="0"/>
        <pt x="358" y="538" on="0"/>
        <pt x="289" y="533" on="1"/>
        <pt x="245" y="529" on="1"/>
        <pt x="278" y="500" on="1"/>
        <pt x="318" y="466" on="0"/>
        <pt x="358" y="422" on="0"/>
        <pt x="358" y="402" on="1"/>
        <pt x="358" y="384" on="0"/>
        <pt x="332" y="362" on="0"/>
        <pt x="315" y="362" on="1"/>
        <pt x="293" y="362" on="0"/>
        <pt x="260" y="411" on="0"/>
        <pt x="236" y="470" on="1"/>
        <pt x="218" y="510" on="1"/>
        <pt x="201" y="470" on="1"/>
        <pt x="178" y="413" on="0"/>
        <pt x="143" y="362" on="0"/>
        <pt x="121" y="362" on="1"/>
        <pt x="104" y="362" on="0"/>
        <pt x="78" y="385" on="0"/>
        <pt x="78" y="403" on="1"/>
        <pt x="78" y="423" on="0"/>
        <pt x="117" y="465" on="0"/>
        <pt x="159" y="500" on="1"/>
        <pt x="192" y="529" on="1"/>
        <pt x="148" y="533" on="1"/>
        <pt x="79" y="538" on="0"/>
        <pt x="20" y="559" on="0"/>
        <pt x="20" y="586" on="1"/>
        <pt x="20" y="605" on="0"/>
        <pt x="42" y="631" on="0"/>
        <pt x="61" y="631" on="1"/>
        <pt x="79" y="631" on="0"/>
        <pt x="126" y="606" on="0"/>
        <pt x="164" y="583" on="1"/>
        <pt x="202" y="560" on="1"/>
        <pt x="192" y="604" on="1"/>
        <pt x="185" y="634" on="0"/>
        <pt x="176" y="684" on="0"/>
        <pt x="176" y="698" on="1"/>
        <pt x="176" y="722" on="0"/>
        <pt x="199" y="744" on="0"/>
      </contour>
    </TTGlyph>
    <TTGlyph name="at" xMin="35" yMin="-172" xMax="850" yMax="659">
      <contour>
        <pt x="540" y="401" on="1"/>
        <pt x="528" y="412" on="0"/>
        <pt x="504" y="421" on="0"/>
        <pt x="490" y="421" on="1"/>
        <pt x="466" y="421" on="0"/>
        <pt x="414" y="394" on="0"/>
        <pt x="390" y="362" on="1"/>
        <pt x="367" y="331" on="0"/>
        <pt x="337" y="254" on="0"/>
        <pt x="337" y="203" on="1"/>
        <pt x="337" y="108" on="0"/>
        <pt x="406" y="108" on="1"/>
        <pt x="425" y="108" on="0"/>
        <pt x="464" y="126" on="0"/>
        <pt x="493" y="151" on="1"/>
        <pt x="493" y="157" on="0"/>
        <pt x="495" y="167" on="1"/>
      </contour>
      <contour>
        <pt x="588" y="175" on="1"/>
        <pt x="573" y="97" on="0"/>
        <pt x="636" y="97" on="1"/>
        <pt x="663" y="97" on="0"/>
        <pt x="712" y="123" on="0"/>
        <pt x="751" y="180" on="0"/>
        <pt x="774" y="267" on="0"/>
        <pt x="774" y="329" on="1"/>
        <pt x="774" y="399" on="0"/>
        <pt x="732" y="504" on="0"/>
        <pt x="657" y="573" on="0"/>
        <pt x="552" y="607" on="0"/>
        <pt x="490" y="607" on="1"/>
        <pt x="415" y="607" on="0"/>
        <pt x="278" y="547" on="0"/>
        <pt x="174" y="440" on="0"/>
        <pt x="112" y="291" on="0"/>
        <pt x="112" y="203" on="1"/>
        <pt x="112" y="131" on="0"/>
        <pt x="157" y="12" on="0"/>
        <pt x="241" y="-73" on="0"/>
        <pt x="358" y="-119" on="0"/>
        <pt x="430" y="-119" on="1"/>
        <pt x="487" y="-119" on="0"/>
        <pt x="565" y="-102" on="0"/>
        <pt x="602" y="-85" on="1"/>
        <pt x="617" y="-123" on="1"/>
        <pt x="571" y="-149" on="0"/>
        <pt x="468" y="-172" on="0"/>
        <pt x="411" y="-172" on="1"/>
        <pt x="326" y="-172" on="0"/>
        <pt x="188" y="-121" on="0"/>
        <pt x="89" y="-26" on="0"/>
        <pt x="35" y="111" on="0"/>
        <pt x="35" y="197" on="1"/>
        <pt x="35" y="299" on="0"/>
        <pt x="107" y="469" on="0"/>
        <pt x="233" y="591" on="0"/>
        <pt x="404" y="659" on="0"/>
        <pt x="503" y="659" on="1"/>
        <pt x="583" y="659" on="0"/>
        <pt x="712" y="611" on="0"/>
        <pt x="802" y="525" on="0"/>
        <pt x="850" y="404" on="0"/>
        <pt x="850" y="331" on="1"/>
        <pt x="850" y="259" on="0"/>
        <pt x="808" y="150" on="0"/>
        <pt x="739" y="76" on="0"/>
        <pt x="651" y="38" on="0"/>
        <pt x="606" y="38" on="1"/>
        <pt x="559" y="38" on="0"/>
        <pt x="505" y="81" on="0"/>
        <pt x="496" y="113" on="1"/>
        <pt x="464" y="77" on="0"/>
        <pt x="397" y="38" on="0"/>
        <pt x="358" y="38" on="1"/>
        <pt x="335" y="38" on="0"/>
        <pt x="294" y="54" on="0"/>
        <pt x="263" y="87" on="0"/>
        <pt x="245" y="140" on="0"/>
        <pt x="245" y="176" on="1"/>
        <pt x="245" y="239" on="0"/>
        <pt x="294" y="352" on="0"/>
        <pt x="333" y="394" on="1"/>
        <pt x="368" y="432" on="0"/>
        <pt x="448" y="476" on="0"/>
        <pt x="490" y="476" on="1"/>
        <pt x="536" y="476" on="0"/>
        <pt x="571" y="445" on="1"/>
        <pt x="624" y="472" on="1"/>
        <pt x="643" y="455" on="1"/>
      </contour>
    </TTGlyph>
    <TTGlyph name="at.cap" xMin="35" yMin="-100" xMax="850" yMax="731">
      <contour>
        <pt x="540" y="473" on="1"/>
        <pt x="528" y="484" on="0"/>
        <pt x="504" y="493" on="0"/>
        <pt x="490" y="493" on="1"/>
        <pt x="466" y="493" on="0"/>
        <pt x="414" y="466" on="0"/>
        <pt x="390" y="434" on="1"/>
        <pt x="367" y="403" on="0"/>
        <pt x="337" y="326" on="0"/>
        <pt x="337" y="275" on="1"/>
        <pt x="337" y="180" on="0"/>
        <pt x="406" y="180" on="1"/>
        <pt x="425" y="180" on="0"/>
        <pt x="464" y="198" on="0"/>
        <pt x="493" y="223" on="1"/>
        <pt x="493" y="229" on="0"/>
        <pt x="495" y="239" on="1"/>
      </contour>
      <contour>
        <pt x="588" y="247" on="1"/>
        <pt x="573" y="169" on="0"/>
        <pt x="636" y="169" on="1"/>
        <pt x="663" y="169" on="0"/>
        <pt x="712" y="195" on="0"/>
        <pt x="751" y="252" on="0"/>
        <pt x="774" y="339" on="0"/>
        <pt x="774" y="401" on="1"/>
        <pt x="774" y="471" on="0"/>
        <pt x="732" y="576" on="0"/>
        <pt x="657" y="645" on="0"/>
        <pt x="552" y="679" on="0"/>
        <pt x="490" y="679" on="1"/>
        <pt x="415" y="679" on="0"/>
        <pt x="278" y="619" on="0"/>
        <pt x="174" y="512" on="0"/>
        <pt x="112" y="363" on="0"/>
        <pt x="112" y="275" on="1"/>
        <pt x="112" y="203" on="0"/>
        <pt x="157" y="84" on="0"/>
        <pt x="241" y="-1" on="0"/>
        <pt x="358" y="-47" on="0"/>
        <pt x="430" y="-47" on="1"/>
        <pt x="487" y="-47" on="0"/>
        <pt x="565" y="-30" on="0"/>
        <pt x="602" y="-13" on="1"/>
        <pt x="617" y="-51" on="1"/>
        <pt x="571" y="-77" on="0"/>
        <pt x="468" y="-100" on="0"/>
        <pt x="411" y="-100" on="1"/>
        <pt x="326" y="-100" on="0"/>
        <pt x="188" y="-49" on="0"/>
        <pt x="89" y="46" on="0"/>
        <pt x="35" y="183" on="0"/>
        <pt x="35" y="269" on="1"/>
        <pt x="35" y="371" on="0"/>
        <pt x="107" y="541" on="0"/>
        <pt x="233" y="663" on="0"/>
        <pt x="404" y="731" on="0"/>
        <pt x="503" y="731" on="1"/>
        <pt x="583" y="731" on="0"/>
        <pt x="712" y="683" on="0"/>
        <pt x="802" y="597" on="0"/>
        <pt x="850" y="476" on="0"/>
        <pt x="850" y="403" on="1"/>
        <pt x="850" y="331" on="0"/>
        <pt x="808" y="222" on="0"/>
        <pt x="739" y="148" on="0"/>
        <pt x="651" y="110" on="0"/>
        <pt x="606" y="110" on="1"/>
        <pt x="559" y="110" on="0"/>
        <pt x="505" y="153" on="0"/>
        <pt x="496" y="185" on="1"/>
        <pt x="464" y="149" on="0"/>
        <pt x="397" y="110" on="0"/>
        <pt x="358" y="110" on="1"/>
        <pt x="335" y="110" on="0"/>
        <pt x="294" y="126" on="0"/>
        <pt x="263" y="159" on="0"/>
        <pt x="245" y="212" on="0"/>
        <pt x="245" y="248" on="1"/>
        <pt x="245" y="311" on="0"/>
        <pt x="294" y="424" on="0"/>
        <pt x="333" y="466" on="1"/>
        <pt x="368" y="504" on="0"/>
        <pt x="448" y="548" on="0"/>
        <pt x="490" y="548" on="1"/>
        <pt x="536" y="548" on="0"/>
        <pt x="571" y="517" on="1"/>
        <pt x="624" y="544" on="1"/>
        <pt x="643" y="527" on="1"/>
      </contour>
    </TTGlyph>
    <TTGlyph name="atilde" xMin="45" yMin="-15" xMax="522" yMax="721">
      <component glyphName="a" x="0" y="0" flags="0x204"/>
      <component glyphName="uni0303" x="262" y="0" flags="0x4"/>
    </TTGlyph>
    <TTGlyph name="b" xMin="22" yMin="-15" xMax="551" yMax="725">
      <contour>
        <pt x="212" y="94" on="1"/>
        <pt x="265" y="52" on="0"/>
        <pt x="312" y="52" on="1"/>
        <pt x="337" y="52" on="0"/>
        <pt x="381" y="75" on="0"/>
        <pt x="414" y="121" on="0"/>
        <pt x="433" y="190" on="0"/>
        <pt x="433" y="237" on="1"/>
        <pt x="433" y="332" on="0"/>
        <pt x="371" y="427" on="0"/>
        <pt x="318" y="427" on="1"/>
        <pt x="271" y="427" on="0"/>
        <pt x="212" y="383" on="1"/>
      </contour>
      <contour>
        <pt x="209" y="427" on="1"/>
        <pt x="241" y="460" on="0"/>
        <pt x="313" y="494" on="0"/>
        <pt x="357" y="494" on="1"/>
        <pt x="398" y="494" on="0"/>
        <pt x="469" y="461" on="0"/>
        <pt x="521" y="397" on="0"/>
        <pt x="551" y="304" on="0"/>
        <pt x="551" y="243" on="1"/>
        <pt x="551" y="184" on="0"/>
        <pt x="519" y="88" on="0"/>
        <pt x="463" y="21" on="0"/>
        <pt x="386" y="-15" on="0"/>
        <pt x="342" y="-15" on="1"/>
        <pt x="303" y="-15" on="0"/>
        <pt x="237" y="13" on="0"/>
        <pt x="208" y="45" on="1"/>
        <pt x="202" y="45" on="1"/>
        <pt x="196" y="-13" on="1"/>
        <pt x="32" y="0" on="1"/>
        <pt x="32" y="40" on="1"/>
        <pt x="100" y="53" on="1"/>
        <pt x="101" y="91" on="0"/>
        <pt x="101" y="178" on="0"/>
        <pt x="101" y="210" on="1"/>
        <pt x="101" y="632" on="1"/>
        <pt x="22" y="642" on="1"/>
        <pt x="22" y="680" on="1"/>
        <pt x="199" y="725" on="1"/>
        <pt x="213" y="717" on="1"/>
        <pt x="209" y="575" on="1"/>
      </contour>
    </TTGlyph>
    <TTGlyph name="b.sups" xMin="14" yMin="410" xMax="379" yMax="892">
      <contour>
        <pt x="148" y="488" on="1"/>
        <pt x="184" y="458" on="0"/>
        <pt x="219" y="458" on="1"/>
        <pt x="234" y="458" on="0"/>
        <pt x="261" y="470" on="0"/>
        <pt x="282" y="497" on="0"/>
        <pt x="294" y="543" on="0"/>
        <pt x="294" y="577" on="1"/>
        <pt x="294" y="613" on="0"/>
        <pt x="282" y="659" on="0"/>
        <pt x="262" y="686" on="0"/>
        <pt x="236" y="697" on="0"/>
        <pt x="223" y="697" on="1"/>
        <pt x="205" y="697" on="0"/>
        <pt x="168" y="681" on="0"/>
        <pt x="148" y="666" on="1"/>
      </contour>
      <contour>
        <pt x="148" y="700" on="1"/>
        <pt x="193" y="745" on="0"/>
        <pt x="248" y="745" on="1"/>
        <pt x="273" y="745" on="0"/>
        <pt x="320" y="725" on="0"/>
        <pt x="357" y="685" on="0"/>
        <pt x="379" y="622" on="0"/>
        <pt x="379" y="579" on="1"/>
        <pt x="379" y="537" on="0"/>
        <pt x="355" y="474" on="0"/>
        <pt x="316" y="431" on="0"/>
        <pt x="264" y="410" on="0"/>
        <pt x="236" y="410" on="1"/>
        <pt x="183" y="410" on="0"/>
        <pt x="145" y="452" on="1"/>
        <pt x="140" y="412" on="1"/>
        <pt x="22" y="420" on="1"/>
        <pt x="22" y="450" on="1"/>
        <pt x="66" y="458" on="1"/>
        <pt x="66" y="828" on="1"/>
        <pt x="14" y="834" on="1"/>
        <pt x="14" y="862" on="1"/>
        <pt x="137" y="892" on="1"/>
        <pt x="148" y="887" on="1"/>
      </contour>
    </TTGlyph>
    <TTGlyph name="backslash" xMin="4" yMin="-160" xMax="347" yMax="710">
      <contour>
        <pt x="347" y="-160" on="1"/>
        <pt x="271" y="-160" on="1"/>
        <pt x="4" y="710" on="1"/>
        <pt x="80" y="710" on="1"/>
      </contour>
    </TTGlyph>
    <TTGlyph name="bar" xMin="97" yMin="-250" xMax="170" yMax="750">
      <contour>
        <pt x="97" y="750" on="1"/>
        <pt x="170" y="750" on="1"/>
        <pt x="170" y="-250" on="1"/>
        <pt x="97" y="-250" on="1"/>
      </contour>
    </TTGlyph>
    <TTGlyph name="braceleft" xMin="40" yMin="-159" xMax="311" yMax="715">
      <contour>
        <pt x="284" y="665" on="1"/>
        <pt x="240" y="660" on="0"/>
        <pt x="207" y="627" on="0"/>
        <pt x="207" y="590" on="1"/>
        <pt x="207" y="532" on="0"/>
        <pt x="221" y="439" on="0"/>
        <pt x="221" y="405" on="1"/>
        <pt x="221" y="357" on="0"/>
        <pt x="179" y="292" on="0"/>
        <pt x="134" y="278" on="1"/>
        <pt x="179" y="264" on="0"/>
        <pt x="221" y="199" on="0"/>
        <pt x="221" y="151" on="1"/>
        <pt x="221" y="117" on="0"/>
        <pt x="207" y="24" on="0"/>
        <pt x="207" y="-34" on="1"/>
        <pt x="207" y="-71" on="0"/>
        <pt x="240" y="-104" on="0"/>
        <pt x="284" y="-109" on="1"/>
        <pt x="311" y="-112" on="1"/>
        <pt x="311" y="-159" on="1"/>
        <pt x="271" y="-159" on="1"/>
        <pt x="196" y="-159" on="0"/>
        <pt x="108" y="-96" on="0"/>
        <pt x="108" y="-33" on="1"/>
        <pt x="108" y="-4" on="0"/>
        <pt x="123" y="50" on="0"/>
        <pt x="140" y="99" on="0"/>
        <pt x="155" y="146" on="0"/>
        <pt x="155" y="168" on="1"/>
        <pt x="155" y="204" on="0"/>
        <pt x="103" y="247" on="0"/>
        <pt x="40" y="255" on="1"/>
        <pt x="40" y="301" on="1"/>
        <pt x="103" y="309" on="0"/>
        <pt x="155" y="352" on="0"/>
        <pt x="155" y="388" on="1"/>
        <pt x="155" y="410" on="0"/>
        <pt x="140" y="457" on="0"/>
        <pt x="123" y="506" on="0"/>
        <pt x="108" y="560" on="0"/>
        <pt x="108" y="589" on="1"/>
        <pt x="108" y="652" on="0"/>
        <pt x="196" y="715" on="0"/>
        <pt x="271" y="715" on="1"/>
        <pt x="311" y="715" on="1"/>
        <pt x="311" y="668" on="1"/>
      </contour>
    </TTGlyph>
    <TTGlyph name="braceleft.cap" xMin="40" yMin="-127" xMax="311" yMax="747">
      <component glyphName="braceleft" x="0" y="32" flags="0x204"/>
    </TTGlyph>
    <TTGlyph name="braceright" xMin="30" yMin="-159" xMax="301" yMax="715">
      <contour>
        <pt x="301" y="255" on="1"/>
        <pt x="238" y="247" on="0"/>
        <pt x="186" y="204" on="0"/>
        <pt x="186" y="168" on="1"/>
        <pt x="186" y="146" on="0"/>
        <pt x="201" y="99" on="0"/>
        <pt x="218" y="50" on="0"/>
        <pt x="233" y="-4" on="0"/>
        <pt x="233" y="-33" on="1"/>
        <pt x="233" y="-96" on="0"/>
        <pt x="145" y="-159" on="0"/>
        <pt x="70" y="-159" on="1"/>
        <pt x="30" y="-159" on="1"/>
        <pt x="30" y="-112" on="1"/>
        <pt x="57" y="-109" on="1"/>
        <pt x="101" y="-104" on="0"/>
        <pt x="134" y="-71" on="0"/>
        <pt x="134" y="-34" on="1"/>
        <pt x="134" y="24" on="0"/>
        <pt x="120" y="117" on="0"/>
        <pt x="120" y="151" on="1"/>
        <pt x="120" y="199" on="0"/>
        <pt x="162" y="264" on="0"/>
        <pt x="207" y="278" on="1"/>
        <pt x="162" y="292" on="0"/>
        <pt x="120" y="357" on="0"/>
        <pt x="120" y="405" on="1"/>
        <pt x="120" y="439" on="0"/>
        <pt x="134" y="532" on="0"/>
        <pt x="134" y="590" on="1"/>
        <pt x="134" y="627" on="0"/>
        <pt x="101" y="660" on="0"/>
        <pt x="57" y="665" on="1"/>
        <pt x="30" y="668" on="1"/>
        <pt x="30" y="715" on="1"/>
        <pt x="70" y="715" on="1"/>
        <pt x="145" y="715" on="0"/>
        <pt x="233" y="652" on="0"/>
        <pt x="233" y="589" on="1"/>
        <pt x="233" y="560" on="0"/>
        <pt x="218" y="506" on="0"/>
        <pt x="201" y="457" on="0"/>
        <pt x="186" y="410" on="0"/>
        <pt x="186" y="388" on="1"/>
        <pt x="186" y="352" on="0"/>
        <pt x="238" y="309" on="0"/>
        <pt x="301" y="301" on="1"/>
      </contour>
    </TTGlyph>
    <TTGlyph name="braceright.cap" xMin="30" yMin="-127" xMax="301" yMax="747">
      <component glyphName="braceright" x="0" y="32" flags="0x204"/>
    </TTGlyph>
    <TTGlyph name="bracketleft" xMin="100" yMin="-159" xMax="305" yMax="715">
      <contour>
        <pt x="203" y="659" on="1"/>
        <pt x="201" y="594" on="0"/>
        <pt x="201" y="464" on="0"/>
        <pt x="201" y="398" on="1"/>
        <pt x="201" y="158" on="1"/>
        <pt x="201" y="93" on="0"/>
        <pt x="201" y="-37" on="0"/>
        <pt x="203" y="-103" on="1"/>
        <pt x="305" y="-114" on="1"/>
        <pt x="305" y="-159" on="1"/>
        <pt x="100" y="-159" on="1"/>
        <pt x="102" y="-81" on="0"/>
        <pt x="103" y="77" on="0"/>
        <pt x="103" y="158" on="1"/>
        <pt x="103" y="398" on="1"/>
        <pt x="103" y="477" on="0"/>
        <pt x="102" y="636" on="0"/>
        <pt x="100" y="715" on="1"/>
        <pt x="305" y="715" on="1"/>
        <pt x="305" y="670" on="1"/>
      </contour>
    </TTGlyph>
    <TTGlyph name="bracketleft.cap" xMin="100" yMin="-127" xMax="305" yMax="747">
      <component glyphName="bracketleft" x="0" y="32" flags="0x204"/>
    </TTGlyph>
    <TTGlyph name="bracketright" xMin="25" yMin="-159" xMax="230" yMax="715">
      <contour>
        <pt x="227" y="158" on="1"/>
        <pt x="227" y="79" on="0"/>
        <pt x="228" y="-80" on="0"/>
        <pt x="230" y="-159" on="1"/>
        <pt x="25" y="-159" on="1"/>
        <pt x="25" y="-114" on="1"/>
        <pt x="127" y="-103" on="1"/>
        <pt x="129" y="-38" on="0"/>
        <pt x="129" y="92" on="0"/>
        <pt x="129" y="158" on="1"/>
        <pt x="129" y="398" on="1"/>
        <pt x="129" y="463" on="0"/>
        <pt x="129" y="593" on="0"/>
        <pt x="127" y="659" on="1"/>
        <pt x="25" y="670" on="1"/>
        <pt x="25" y="715" on="1"/>
        <pt x="230" y="715" on="1"/>
        <pt x="228" y="637" on="0"/>
        <pt x="227" y="479" on="0"/>
        <pt x="227" y="398" on="1"/>
      </contour>
    </TTGlyph>
    <TTGlyph name="bracketright.cap" xMin="25" yMin="-127" xMax="230" yMax="747">
      <component glyphName="bracketright" x="0" y="32" flags="0x204"/>
    </TTGlyph>
    <TTGlyph name="breve" xMin="44" yMin="575" xMax="356" yMax="739">
      <component glyphName="uni0306" x="200" y="0" flags="0x4"/>
    </TTGlyph>
    <TTGlyph name="brevecmb.cap" xMin="-151" yMin="725" xMax="151" yMax="871">
      <contour>
        <pt x="0" y="725" on="1"/>
        <pt x="-37" y="725" on="0"/>
        <pt x="-91" y="749" on="0"/>
        <pt x="-128" y="788" on="0"/>
        <pt x="-148" y="836" on="0"/>
        <pt x="-151" y="859" on="1"/>
        <pt x="-115" y="871" on="1"/>
        <pt x="-101" y="837" on="0"/>
        <pt x="-44" y="793" on="0"/>
        <pt x="0" y="793" on="1"/>
        <pt x="44" y="793" on="0"/>
        <pt x="103" y="838" on="0"/>
        <pt x="115" y="871" on="1"/>
        <pt x="151" y="859" on="1"/>
        <pt x="148" y="836" on="0"/>
        <pt x="128" y="788" on="0"/>
        <pt x="91" y="749" on="0"/>
        <pt x="37" y="725" on="0"/>
      </contour>
    </TTGlyph>
    <TTGlyph name="brokenbar" xMin="97" yMin="-250" xMax="170" yMax="750">
      <contour>
        <pt x="97" y="200" on="1"/>
        <pt x="170" y="200" on="1"/>
        <pt x="170" y="-250" on="1"/>
        <pt x="97" y="-250" on="1"/>
      </contour>
      <contour>
        <pt x="97" y="320" on="1"/>
        <pt x="97" y="750" on="1"/>
        <pt x="170" y="750" on="1"/>
        <pt x="170" y="320" on="1"/>
      </contour>
    </TTGlyph>
    <TTGlyph name="bullet" xMin="38" yMin="207" xMax="275" yMax="448">
      <contour>
        <pt x="156" y="207" on="1"/>
        <pt x="132" y="207" on="0"/>
        <pt x="89" y="224" on="0"/>
        <pt x="57" y="256" on="0"/>
        <pt x="38" y="300" on="0"/>
        <pt x="38" y="327" on="1"/>
        <pt x="38" y="354" on="0"/>
        <pt x="57" y="399" on="0"/>
        <pt x="89" y="431" on="0"/>
        <pt x="132" y="448" on="0"/>
        <pt x="156" y="448" on="1"/>
        <pt x="180" y="448" on="0"/>
        <pt x="223" y="431" on="0"/>
        <pt x="256" y="399" on="0"/>
        <pt x="275" y="354" on="0"/>
        <pt x="275" y="327" on="1"/>
        <pt x="275" y="300" on="0"/>
        <pt x="256" y="256" on="0"/>
        <pt x="223" y="224" on="0"/>
        <pt x="180" y="207" on="0"/>
      </contour>
    </TTGlyph>
    <TTGlyph name="c" xMin="41" yMin="-15" xMax="469" yMax="494">
      <contour>
        <pt x="469" y="117" on="1"/>
        <pt x="449" y="53" on="0"/>
        <pt x="347" y="-15" on="0"/>
        <pt x="274" y="-15" on="1"/>
        <pt x="221" y="-15" on="0"/>
        <pt x="135" y="20" on="0"/>
        <pt x="74" y="85" on="0"/>
        <pt x="41" y="179" on="0"/>
        <pt x="41" y="238" on="1"/>
        <pt x="41" y="298" on="0"/>
        <pt x="81" y="393" on="0"/>
        <pt x="148" y="459" on="0"/>
        <pt x="236" y="494" on="0"/>
        <pt x="285" y="494" on="1"/>
        <pt x="322" y="494" on="0"/>
        <pt x="387" y="473" on="0"/>
        <pt x="436" y="437" on="0"/>
        <pt x="465" y="388" on="0"/>
        <pt x="468" y="359" on="1"/>
        <pt x="459" y="316" on="0"/>
        <pt x="415" y="316" on="1"/>
        <pt x="360" y="316" on="0"/>
        <pt x="353" y="381" on="1"/>
        <pt x="342" y="441" on="1"/>
        <pt x="321" y="447" on="0"/>
        <pt x="300" y="447" on="1"/>
        <pt x="270" y="447" on="0"/>
        <pt x="219" y="421" on="0"/>
        <pt x="180" y="371" on="0"/>
        <pt x="158" y="298" on="0"/>
        <pt x="158" y="251" on="1"/>
        <pt x="158" y="154" on="0"/>
        <pt x="244" y="56" on="0"/>
        <pt x="310" y="56" on="1"/>
        <pt x="392" y="56" on="0"/>
        <pt x="439" y="133" on="1"/>
      </contour>
    </TTGlyph>
    <TTGlyph name="c.sups" xMin="27" yMin="410" xMax="323" yMax="745">
      <contour>
        <pt x="323" y="500" on="1"/>
        <pt x="309" y="457" on="0"/>
        <pt x="238" y="410" on="0"/>
        <pt x="187" y="410" on="1"/>
        <pt x="114" y="410" on="0"/>
        <pt x="27" y="497" on="0"/>
        <pt x="27" y="577" on="1"/>
        <pt x="27" y="616" on="0"/>
        <pt x="54" y="678" on="0"/>
        <pt x="101" y="722" on="0"/>
        <pt x="162" y="745" on="0"/>
        <pt x="196" y="745" on="1"/>
        <pt x="222" y="745" on="0"/>
        <pt x="267" y="731" on="0"/>
        <pt x="301" y="707" on="0"/>
        <pt x="321" y="673" on="0"/>
        <pt x="322" y="654" on="1"/>
        <pt x="316" y="623" on="0"/>
        <pt x="284" y="623" on="1"/>
        <pt x="267" y="623" on="0"/>
        <pt x="242" y="647" on="0"/>
        <pt x="238" y="676" on="1"/>
        <pt x="235" y="707" on="1"/>
        <pt x="221" y="710" on="0"/>
        <pt x="208" y="710" on="1"/>
        <pt x="168" y="710" on="0"/>
        <pt x="112" y="647" on="0"/>
        <pt x="112" y="586" on="1"/>
        <pt x="112" y="523" on="0"/>
        <pt x="169" y="462" on="0"/>
        <pt x="213" y="462" on="1"/>
        <pt x="269" y="462" on="0"/>
        <pt x="301" y="512" on="1"/>
      </contour>
    </TTGlyph>
    <TTGlyph name="cacute" xMin="41" yMin="-15" xMax="469" yMax="760">
      <component glyphName="c" x="0" y="0" flags="0x204"/>
      <component glyphName="uni0301" x="307" y="0" flags="0x4"/>
    </TTGlyph>
    <TTGlyph name="caron" xMin="54" yMin="569" xMax="346" yMax="750">
      <component glyphName="uni030C" x="200" y="0" flags="0x4"/>
    </TTGlyph>
    <TTGlyph name="caron.alt" xMin="-14" yMin="517" xMax="81" yMax="737">
      <contour>
        <pt x="39" y="737" on="1"/>
        <pt x="62" y="737" on="0"/>
        <pt x="81" y="715" on="0"/>
        <pt x="81" y="695" on="1"/>
        <pt x="81" y="675" on="0"/>
        <pt x="64" y="618" on="0"/>
        <pt x="52" y="586" on="1"/>
        <pt x="24" y="517" on="1"/>
        <pt x="-14" y="517" on="1"/>
        <pt x="-11" y="724" on="1"/>
        <pt x="15" y="737" on="0"/>
      </contour>
    </TTGlyph>
    <TTGlyph name="caroncmb.cap" xMin="-143" yMin="719" xMax="143" yMax="867">
      <contour>
        <pt x="143" y="841" on="1"/>
        <pt x="39" y="719" on="1"/>
        <pt x="-39" y="719" on="1"/>
        <pt x="-143" y="841" on="1"/>
        <pt x="-116" y="867" on="1"/>
        <pt x="0" y="782" on="1"/>
        <pt x="116" y="867" on="1"/>
      </contour>
    </TTGlyph>
    <TTGlyph name="ccaron" xMin="41" yMin="-15" xMax="469" yMax="750">
      <component glyphName="c" x="0" y="0" flags="0x204"/>
      <component glyphName="uni030C" x="286" y="0" flags="0x4"/>
    </TTGlyph>
    <TTGlyph name="ccedilla" xMin="41" yMin="-226" xMax="469" yMax="494">
      <component glyphName="c" x="0" y="0" flags="0x204"/>
      <component glyphName="uni0327" x="264" y="0" flags="0x4"/>
    </TTGlyph>
    <TTGlyph name="cedilla" xMin="99" yMin="-226" xMax="286" yMax="6">
      <component glyphName="uni0327" x="172" y="0" flags="0x4"/>
    </TTGlyph>
    <TTGlyph name="cent" xMin="44" yMin="-45" xMax="480" yMax="657">
      <contour>
        <pt x="260" y="513" on="1"/>
        <pt x="218" y="497" on="0"/>
        <pt x="161" y="402" on="0"/>
        <pt x="161" y="324" on="1"/>
        <pt x="161" y="246" on="0"/>
        <pt x="217" y="152" on="0"/>
        <pt x="260" y="137" on="1"/>
      </contour>
      <contour>
        <pt x="479" y="190" on="1"/>
        <pt x="462" y="133" on="0"/>
        <pt x="373" y="67" on="0"/>
        <pt x="308" y="61" on="1"/>
        <pt x="308" y="-45" on="1"/>
        <pt x="260" y="-45" on="1"/>
        <pt x="260" y="59" on="1"/>
        <pt x="161" y="65" on="0"/>
        <pt x="44" y="197" on="0"/>
        <pt x="44" y="312" on="1"/>
        <pt x="44" y="366" on="0"/>
        <pt x="78" y="455" on="0"/>
        <pt x="137" y="520" on="0"/>
        <pt x="215" y="560" on="0"/>
        <pt x="260" y="566" on="1"/>
        <pt x="260" y="657" on="1"/>
        <pt x="308" y="657" on="1"/>
        <pt x="308" y="568" on="1"/>
        <pt x="344" y="566" on="0"/>
        <pt x="405" y="544" on="0"/>
        <pt x="451" y="508" on="0"/>
        <pt x="478" y="460" on="0"/>
        <pt x="480" y="432" on="1"/>
        <pt x="476" y="410" on="0"/>
        <pt x="447" y="388" on="0"/>
        <pt x="426" y="388" on="1"/>
        <pt x="400" y="388" on="0"/>
        <pt x="366" y="424" on="0"/>
        <pt x="360" y="468" on="1"/>
        <pt x="354" y="513" on="1"/>
        <pt x="334" y="518" on="0"/>
        <pt x="308" y="520" on="1"/>
        <pt x="308" y="130" on="1"/>
        <pt x="357" y="132" on="0"/>
        <pt x="425" y="170" on="0"/>
        <pt x="448" y="206" on="1"/>
      </contour>
    </TTGlyph>
    <TTGlyph name="circumflex" xMin="44" yMin="554" xMax="356" yMax="753">
      <component glyphName="uni0302" x="200" y="0" flags="0x4"/>
    </TTGlyph>
    <TTGlyph name="circumflexcmb.cap" xMin="-153" yMin="710" xMax="153" yMax="867">
      <contour>
        <pt x="130" y="710" on="1"/>
        <pt x="0" y="788" on="1"/>
        <pt x="-130" y="710" on="1"/>
        <pt x="-153" y="739" on="1"/>
        <pt x="-23" y="867" on="1"/>
        <pt x="23" y="867" on="1"/>
        <pt x="153" y="739" on="1"/>
      </contour>
    </TTGlyph>
    <TTGlyph name="colon" xMin="72" yMin="-15" xMax="228" yMax="494">
      <component glyphName="period" x="0" y="353" flags="0x204"/>
      <component glyphName="period" x="0" y="0" flags="0x4"/>
    </TTGlyph>
    <TTGlyph name="colon.sups" xMin="60" yMin="411" xMax="165" yMax="729">
      <contour>
        <pt x="112" y="620" on="1"/>
        <pt x="89" y="620" on="0"/>
        <pt x="60" y="652" on="0"/>
        <pt x="60" y="675" on="1"/>
        <pt x="60" y="698" on="0"/>
        <pt x="89" y="729" on="0"/>
        <pt x="112" y="729" on="1"/>
        <pt x="135" y="729" on="0"/>
        <pt x="165" y="698" on="0"/>
        <pt x="165" y="675" on="1"/>
        <pt x="165" y="652" on="0"/>
        <pt x="135" y="620" on="0"/>
      </contour>
      <contour>
        <pt x="112" y="411" on="1"/>
        <pt x="89" y="411" on="0"/>
        <pt x="60" y="442" on="0"/>
        <pt x="60" y="465" on="1"/>
        <pt x="60" y="488" on="0"/>
        <pt x="89" y="519" on="0"/>
        <pt x="112" y="519" on="1"/>
        <pt x="135" y="519" on="0"/>
        <pt x="165" y="488" on="0"/>
        <pt x="165" y="465" on="1"/>
        <pt x="165" y="442" on="0"/>
        <pt x="135" y="411" on="0"/>
      </contour>
    </TTGlyph>
    <TTGlyph name="comma" xMin="13" yMin="-217" xMax="224" yMax="141">
      <contour>
        <pt x="119" y="-11" on="1"/>
        <pt x="94" y="6" on="0"/>
        <pt x="73" y="48" on="0"/>
        <pt x="73" y="68" on="1"/>
        <pt x="73" y="97" on="0"/>
        <pt x="112" y="141" on="0"/>
        <pt x="147" y="141" on="1"/>
        <pt x="161" y="141" on="0"/>
        <pt x="194" y="129" on="0"/>
        <pt x="211" y="112" on="1"/>
        <pt x="216" y="92" on="0"/>
        <pt x="224" y="55" on="0"/>
        <pt x="224" y="34" on="1"/>
        <pt x="224" y="-13" on="0"/>
        <pt x="189" y="-94" on="0"/>
        <pt x="133" y="-159" on="0"/>
        <pt x="63" y="-205" on="0"/>
        <pt x="27" y="-217" on="1"/>
        <pt x="13" y="-180" on="1"/>
        <pt x="64" y="-154" on="0"/>
        <pt x="135" y="-84" on="0"/>
        <pt x="153" y="-35" on="1"/>
      </contour>
    </TTGlyph>
    <TTGlyph name="comma.dnom" xMin="35" yMin="-118" xMax="164" yMax="100">
      <component glyphName="comma.sups" x="0" y="-419" flags="0x204"/>
    </TTGlyph>
    <TTGlyph name="comma.numr" xMin="35" yMin="139" xMax="164" yMax="357">
      <component glyphName="comma.sups" x="0" y="-162" flags="0x204"/>
    </TTGlyph>
    <TTGlyph name="comma.subs" xMin="35" yMin="-334" xMax="164" yMax="-116">
      <component glyphName="comma.sups" x="0" y="-635" flags="0x204"/>
    </TTGlyph>
    <TTGlyph name="comma.sups" xMin="35" yMin="301" xMax="164" yMax="519">
      <contour>
        <pt x="93" y="410" on="1"/>
        <pt x="76" y="421" on="0"/>
        <pt x="61" y="449" on="0"/>
        <pt x="61" y="464" on="1"/>
        <pt x="61" y="486" on="0"/>
        <pt x="89" y="519" on="0"/>
        <pt x="112" y="519" on="1"/>
        <pt x="121" y="519" on="0"/>
        <pt x="143" y="512" on="0"/>
        <pt x="154" y="501" on="1"/>
        <pt x="164" y="472" on="0"/>
        <pt x="164" y="446" on="1"/>
        <pt x="164" y="417" on="0"/>
        <pt x="142" y="368" on="0"/>
        <pt x="107" y="331" on="0"/>
        <pt x="64" y="306" on="0"/>
        <pt x="42" y="301" on="1"/>
        <pt x="35" y="331" on="1"/>
        <pt x="60" y="339" on="0"/>
        <pt x="104" y="370" on="0"/>
        <pt x="116" y="396" on="1"/>
      </contour>
    </TTGlyph>
    <TTGlyph name="commabelowcmb.alt" xMin="-62" yMin="570" xMax="90" yMax="783">
      <contour>
        <pt x="90" y="749" on="1"/>
        <pt x="61" y="738" on="0"/>
        <pt x="19" y="711" on="0"/>
        <pt x="2" y="689" on="1"/>
        <pt x="25" y="680" on="0"/>
        <pt x="55" y="647" on="0"/>
        <pt x="55" y="625" on="1"/>
        <pt x="55" y="602" on="0"/>
        <pt x="23" y="570" on="0"/>
        <pt x="-2" y="570" on="1"/>
        <pt x="-14" y="570" on="0"/>
        <pt x="-39" y="580" on="0"/>
        <pt x="-51" y="591" on="1"/>
        <pt x="-58" y="606" on="0"/>
        <pt x="-62" y="631" on="0"/>
        <pt x="-62" y="642" on="1"/>
        <pt x="-62" y="669" on="0"/>
        <pt x="-39" y="714" on="0"/>
        <pt x="0" y="748" on="0"/>
        <pt x="50" y="774" on="0"/>
        <pt x="78" y="783" on="1"/>
      </contour>
    </TTGlyph>
    <TTGlyph name="copyright" xMin="32" yMin="-15" xMax="719" yMax="677">
      <contour>
        <pt x="466" y="252" on="1"/>
        <pt x="514" y="252" on="1"/>
        <pt x="511" y="157" on="1"/>
        <pt x="485" y="143" on="0"/>
        <pt x="427" y="130" on="0"/>
        <pt x="395" y="130" on="1"/>
        <pt x="351" y="130" on="0"/>
        <pt x="277" y="160" on="0"/>
        <pt x="225" y="213" on="0"/>
        <pt x="196" y="287" on="0"/>
        <pt x="196" y="331" on="1"/>
        <pt x="196" y="374" on="0"/>
        <pt x="226" y="447" on="0"/>
        <pt x="279" y="501" on="0"/>
        <pt x="352" y="531" on="0"/>
        <pt x="394" y="531" on="1"/>
        <pt x="425" y="531" on="0"/>
        <pt x="477" y="521" on="0"/>
        <pt x="506" y="504" on="1"/>
        <pt x="508" y="408" on="1"/>
        <pt x="461" y="408" on="1"/>
        <pt x="451" y="476" on="1"/>
        <pt x="437" y="481" on="0"/>
        <pt x="413" y="484" on="0"/>
        <pt x="402" y="484" on="1"/>
        <pt x="378" y="484" on="0"/>
        <pt x="334" y="464" on="0"/>
        <pt x="302" y="425" on="0"/>
        <pt x="283" y="368" on="0"/>
        <pt x="283" y="331" on="1"/>
        <pt x="283" y="256" on="0"/>
        <pt x="349" y="178" on="0"/>
        <pt x="405" y="178" on="1"/>
        <pt x="413" y="178" on="0"/>
        <pt x="441" y="181" on="0"/>
        <pt x="456" y="186" on="1"/>
      </contour>
      <contour>
        <pt x="376" y="28" on="1"/>
        <pt x="436" y="28" on="0"/>
        <pt x="542" y="72" on="0"/>
        <pt x="621" y="152" on="0"/>
        <pt x="666" y="264" on="0"/>
        <pt x="666" y="333" on="1"/>
        <pt x="666" y="402" on="0"/>
        <pt x="621" y="513" on="0"/>
        <pt x="542" y="591" on="0"/>
        <pt x="436" y="633" on="0"/>
        <pt x="376" y="633" on="1"/>
        <pt x="316" y="633" on="0"/>
        <pt x="210" y="591" on="0"/>
        <pt x="131" y="513" on="0"/>
        <pt x="86" y="402" on="0"/>
        <pt x="86" y="333" on="1"/>
        <pt x="86" y="264" on="0"/>
        <pt x="131" y="151" on="0"/>
        <pt x="210" y="72" on="0"/>
        <pt x="316" y="28" on="0"/>
      </contour>
      <contour>
        <pt x="376" y="677" on="1"/>
        <pt x="446" y="677" on="0"/>
        <pt x="571" y="629" on="0"/>
        <pt x="664" y="540" on="0"/>
        <pt x="719" y="413" on="0"/>
        <pt x="719" y="333" on="1"/>
        <pt x="719" y="253" on="0"/>
        <pt x="664" y="124" on="0"/>
        <pt x="571" y="34" on="0"/>
        <pt x="446" y="-15" on="0"/>
        <pt x="376" y="-15" on="1"/>
        <pt x="305" y="-15" on="0"/>
        <pt x="180" y="34" on="0"/>
        <pt x="87" y="124" on="0"/>
        <pt x="32" y="253" on="0"/>
        <pt x="32" y="333" on="1"/>
        <pt x="32" y="413" on="0"/>
        <pt x="87" y="540" on="0"/>
        <pt x="180" y="629" on="0"/>
        <pt x="305" y="677" on="0"/>
      </contour>
    </TTGlyph>
    <TTGlyph name="currency" xMin="26" yMin="97" xMax="488" yMax="559">
      <contour>
        <pt x="257" y="224" on="1"/>
        <pt x="299" y="224" on="0"/>
        <pt x="357" y="281" on="0"/>
        <pt x="357" y="328" on="1"/>
        <pt x="357" y="375" on="0"/>
        <pt x="299" y="432" on="0"/>
        <pt x="257" y="432" on="1"/>
        <pt x="215" y="432" on="0"/>
        <pt x="156" y="375" on="0"/>
        <pt x="156" y="328" on="1"/>
        <pt x="156" y="281" on="0"/>
        <pt x="215" y="224" on="0"/>
      </contour>
      <contour>
        <pt x="424" y="201" on="1"/>
        <pt x="455" y="184" on="0"/>
        <pt x="487" y="155" on="0"/>
        <pt x="487" y="136" on="1"/>
        <pt x="487" y="120" on="0"/>
        <pt x="465" y="97" on="0"/>
        <pt x="448" y="97" on="1"/>
        <pt x="428" y="97" on="0"/>
        <pt x="399" y="132" on="0"/>
        <pt x="383" y="160" on="1"/>
        <pt x="363" y="195" on="1"/>
        <pt x="341" y="178" on="0"/>
        <pt x="287" y="160" on="0"/>
        <pt x="257" y="160" on="1"/>
        <pt x="227" y="160" on="0"/>
        <pt x="173" y="178" on="0"/>
        <pt x="150" y="195" on="1"/>
        <pt x="131" y="161" on="1"/>
        <pt x="113" y="131" on="0"/>
        <pt x="84" y="98" on="0"/>
        <pt x="66" y="98" on="1"/>
        <pt x="49" y="98" on="0"/>
        <pt x="26" y="120" on="0"/>
        <pt x="26" y="137" on="1"/>
        <pt x="26" y="157" on="0"/>
        <pt x="61" y="186" on="0"/>
        <pt x="89" y="202" on="1"/>
        <pt x="123" y="221" on="1"/>
        <pt x="106" y="242" on="0"/>
        <pt x="86" y="296" on="0"/>
        <pt x="86" y="328" on="1"/>
        <pt x="86" y="360" on="0"/>
        <pt x="106" y="414" on="0"/>
        <pt x="123" y="435" on="1"/>
        <pt x="91" y="454" on="1"/>
        <pt x="60" y="472" on="0"/>
        <pt x="27" y="501" on="0"/>
        <pt x="27" y="520" on="1"/>
        <pt x="27" y="536" on="0"/>
        <pt x="50" y="559" on="0"/>
        <pt x="67" y="559" on="1"/>
        <pt x="87" y="559" on="0"/>
        <pt x="115" y="524" on="0"/>
        <pt x="131" y="496" on="1"/>
        <pt x="151" y="461" on="1"/>
        <pt x="195" y="496" on="0"/>
        <pt x="257" y="496" on="1"/>
        <pt x="317" y="496" on="0"/>
        <pt x="364" y="460" on="1"/>
        <pt x="384" y="495" on="1"/>
        <pt x="401" y="525" on="0"/>
        <pt x="430" y="558" on="0"/>
        <pt x="449" y="558" on="1"/>
        <pt x="466" y="558" on="0"/>
        <pt x="488" y="535" on="0"/>
        <pt x="488" y="518" on="1"/>
        <pt x="488" y="498" on="0"/>
        <pt x="453" y="470" on="0"/>
        <pt x="426" y="454" on="1"/>
        <pt x="391" y="434" on="1"/>
        <pt x="427" y="390" on="0"/>
        <pt x="427" y="328" on="1"/>
        <pt x="427" y="296" on="0"/>
        <pt x="407" y="242" on="0"/>
        <pt x="390" y="221" on="1"/>
      </contour>
    </TTGlyph>
    <TTGlyph name="d" xMin="40" yMin="-15" xMax="560" yMax="725">
      <contour>
        <pt x="380" y="386" on="1"/>
        <pt x="327" y="427" on="0"/>
        <pt x="283" y="427" on="1"/>
        <pt x="258" y="427" on="0"/>
        <pt x="213" y="405" on="0"/>
        <pt x="178" y="358" on="0"/>
        <pt x="158" y="287" on="0"/>
        <pt x="158" y="239" on="1"/>
        <pt x="158" y="144" on="0"/>
        <pt x="227" y="53" on="0"/>
        <pt x="280" y="53" on="1"/>
        <pt x="330" y="53" on="0"/>
        <pt x="380" y="95" on="1"/>
      </contour>
      <contour>
        <pt x="560" y="40" on="1"/>
        <pt x="560" y="0" on="1"/>
        <pt x="392" y="-10" on="1"/>
        <pt x="384" y="52" on="1"/>
        <pt x="355" y="20" on="0"/>
        <pt x="287" y="-15" on="0"/>
        <pt x="241" y="-15" on="1"/>
        <pt x="197" y="-15" on="0"/>
        <pt x="123" y="19" on="0"/>
        <pt x="70" y="84" on="0"/>
        <pt x="40" y="177" on="0"/>
        <pt x="40" y="236" on="1"/>
        <pt x="40" y="295" on="0"/>
        <pt x="73" y="390" on="0"/>
        <pt x="130" y="458" on="0"/>
        <pt x="208" y="494" on="0"/>
        <pt x="253" y="494" on="1"/>
        <pt x="331" y="494" on="0"/>
        <pt x="385" y="434" on="1"/>
        <pt x="385" y="632" on="1"/>
        <pt x="302" y="642" on="1"/>
        <pt x="302" y="680" on="1"/>
        <pt x="481" y="725" on="1"/>
        <pt x="495" y="717" on="1"/>
        <pt x="491" y="575" on="1"/>
        <pt x="491" y="53" on="1"/>
      </contour>
    </TTGlyph>
    <TTGlyph name="d.sups" xMin="27" yMin="410" xMax="385" yMax="892">
      <contour>
        <pt x="259" y="670" on="1"/>
        <pt x="242" y="683" on="0"/>
        <pt x="209" y="697" on="0"/>
        <pt x="194" y="697" on="1"/>
        <pt x="178" y="697" on="0"/>
        <pt x="149" y="685" on="0"/>
        <pt x="126" y="657" on="0"/>
        <pt x="113" y="612" on="0"/>
        <pt x="113" y="578" on="1"/>
        <pt x="113" y="509" on="0"/>
        <pt x="158" y="458" on="0"/>
        <pt x="191" y="458" on="1"/>
        <pt x="209" y="458" on="0"/>
        <pt x="242" y="471" on="0"/>
        <pt x="259" y="484" on="1"/>
      </contour>
      <contour>
        <pt x="385" y="449" on="1"/>
        <pt x="385" y="420" on="1"/>
        <pt x="266" y="413" on="1"/>
        <pt x="261" y="453" on="1"/>
        <pt x="240" y="432" on="0"/>
        <pt x="194" y="410" on="0"/>
        <pt x="166" y="410" on="1"/>
        <pt x="141" y="410" on="0"/>
        <pt x="91" y="429" on="0"/>
        <pt x="52" y="469" on="0"/>
        <pt x="27" y="532" on="0"/>
        <pt x="27" y="576" on="1"/>
        <pt x="27" y="619" on="0"/>
        <pt x="52" y="682" on="0"/>
        <pt x="92" y="724" on="0"/>
        <pt x="144" y="745" on="0"/>
        <pt x="171" y="745" on="1"/>
        <pt x="220" y="745" on="0"/>
        <pt x="259" y="709" on="1"/>
        <pt x="259" y="828" on="1"/>
        <pt x="206" y="834" on="1"/>
        <pt x="206" y="862" on="1"/>
        <pt x="331" y="892" on="1"/>
        <pt x="341" y="887" on="1"/>
        <pt x="341" y="457" on="1"/>
      </contour>
    </TTGlyph>
    <TTGlyph name="dagger" xMin="35" yMin="-84" xMax="491" yMax="725">
      <contour>
        <pt x="333" y="516" on="1"/>
        <pt x="358" y="523" on="0"/>
        <pt x="409" y="537" on="0"/>
        <pt x="434" y="537" on="1"/>
        <pt x="464" y="537" on="0"/>
        <pt x="491" y="509" on="0"/>
        <pt x="491" y="484" on="1"/>
        <pt x="491" y="458" on="0"/>
        <pt x="464" y="430" on="0"/>
        <pt x="434" y="430" on="1"/>
        <pt x="409" y="430" on="0"/>
        <pt x="358" y="444" on="0"/>
        <pt x="333" y="452" on="1"/>
        <pt x="281" y="467" on="1"/>
        <pt x="289" y="439" on="0"/>
        <pt x="302" y="396" on="0"/>
        <pt x="310" y="358" on="0"/>
        <pt x="314" y="322" on="0"/>
        <pt x="314" y="301" on="1"/>
        <pt x="314" y="259" on="0"/>
        <pt x="296" y="76" on="0"/>
        <pt x="278" y="-84" on="1"/>
        <pt x="247" y="-84" on="1"/>
        <pt x="230" y="76" on="0"/>
        <pt x="211" y="260" on="0"/>
        <pt x="211" y="301" on="1"/>
        <pt x="211" y="322" on="0"/>
        <pt x="215" y="358" on="0"/>
        <pt x="223" y="396" on="0"/>
        <pt x="236" y="439" on="0"/>
        <pt x="244" y="467" on="1"/>
        <pt x="192" y="452" on="1"/>
        <pt x="167" y="444" on="0"/>
        <pt x="116" y="430" on="0"/>
        <pt x="92" y="430" on="1"/>
        <pt x="61" y="430" on="0"/>
        <pt x="35" y="458" on="0"/>
        <pt x="35" y="484" on="1"/>
        <pt x="35" y="509" on="0"/>
        <pt x="61" y="537" on="0"/>
        <pt x="92" y="537" on="1"/>
        <pt x="116" y="537" on="0"/>
        <pt x="168" y="523" on="0"/>
        <pt x="192" y="516" on="1"/>
        <pt x="243" y="501" on="1"/>
        <pt x="230" y="554" on="1"/>
        <pt x="227" y="564" on="0"/>
        <pt x="220" y="593" on="0"/>
        <pt x="214" y="624" on="0"/>
        <pt x="209" y="655" on="0"/>
        <pt x="209" y="669" on="1"/>
        <pt x="209" y="699" on="0"/>
        <pt x="237" y="725" on="0"/>
        <pt x="263" y="725" on="1"/>
        <pt x="288" y="725" on="0"/>
        <pt x="316" y="699" on="0"/>
        <pt x="316" y="669" on="1"/>
        <pt x="316" y="655" on="0"/>
        <pt x="312" y="624" on="0"/>
        <pt x="306" y="593" on="0"/>
        <pt x="299" y="564" on="0"/>
        <pt x="296" y="554" on="1"/>
        <pt x="282" y="501" on="1"/>
      </contour>
    </TTGlyph>
    <TTGlyph name="daggerdbl" xMin="35" yMin="-98" xMax="491" yMax="725">
      <contour>
        <pt x="333" y="175" on="1"/>
        <pt x="358" y="183" on="0"/>
        <pt x="409" y="197" on="0"/>
        <pt x="434" y="197" on="1"/>
        <pt x="464" y="197" on="0"/>
        <pt x="491" y="169" on="0"/>
        <pt x="491" y="143" on="1"/>
        <pt x="491" y="118" on="0"/>
        <pt x="464" y="90" on="0"/>
        <pt x="434" y="90" on="1"/>
        <pt x="409" y="90" on="0"/>
        <pt x="358" y="104" on="0"/>
        <pt x="333" y="111" on="1"/>
        <pt x="282" y="126" on="1"/>
        <pt x="296" y="73" on="1"/>
        <pt x="299" y="62" on="0"/>
        <pt x="306" y="34" on="0"/>
        <pt x="312" y="3" on="0"/>
        <pt x="316" y="-29" on="0"/>
        <pt x="316" y="-42" on="1"/>
        <pt x="316" y="-72" on="0"/>
        <pt x="288" y="-98" on="0"/>
        <pt x="263" y="-98" on="1"/>
        <pt x="237" y="-98" on="0"/>
        <pt x="209" y="-72" on="0"/>
        <pt x="209" y="-42" on="1"/>
        <pt x="209" y="-29" on="0"/>
        <pt x="214" y="3" on="0"/>
        <pt x="220" y="34" on="0"/>
        <pt x="227" y="62" on="0"/>
        <pt x="230" y="73" on="1"/>
        <pt x="243" y="126" on="1"/>
        <pt x="192" y="111" on="1"/>
        <pt x="168" y="104" on="0"/>
        <pt x="116" y="90" on="0"/>
        <pt x="92" y="90" on="1"/>
        <pt x="61" y="90" on="0"/>
        <pt x="35" y="118" on="0"/>
        <pt x="35" y="143" on="1"/>
        <pt x="35" y="169" on="0"/>
        <pt x="61" y="197" on="0"/>
        <pt x="92" y="197" on="1"/>
        <pt x="116" y="197" on="0"/>
        <pt x="167" y="183" on="0"/>
        <pt x="192" y="175" on="1"/>
        <pt x="244" y="160" on="1"/>
        <pt x="236" y="186" on="0"/>
        <pt x="224" y="227" on="0"/>
        <pt x="216" y="263" on="0"/>
        <pt x="211" y="297" on="0"/>
        <pt x="211" y="317" on="1"/>
        <pt x="211" y="336" on="0"/>
        <pt x="216" y="369" on="0"/>
        <pt x="225" y="403" on="0"/>
        <pt x="237" y="441" on="0"/>
        <pt x="244" y="467" on="1"/>
        <pt x="192" y="452" on="1"/>
        <pt x="167" y="444" on="0"/>
        <pt x="116" y="430" on="0"/>
        <pt x="92" y="430" on="1"/>
        <pt x="61" y="430" on="0"/>
        <pt x="35" y="458" on="0"/>
        <pt x="35" y="484" on="1"/>
        <pt x="35" y="509" on="0"/>
        <pt x="61" y="537" on="0"/>
        <pt x="92" y="537" on="1"/>
        <pt x="116" y="537" on="0"/>
        <pt x="168" y="523" on="0"/>
        <pt x="192" y="516" on="1"/>
        <pt x="243" y="501" on="1"/>
        <pt x="230" y="554" on="1"/>
        <pt x="227" y="564" on="0"/>
        <pt x="220" y="593" on="0"/>
        <pt x="214" y="624" on="0"/>
        <pt x="209" y="655" on="0"/>
        <pt x="209" y="669" on="1"/>
        <pt x="209" y="699" on="0"/>
        <pt x="237" y="725" on="0"/>
        <pt x="263" y="725" on="1"/>
        <pt x="288" y="725" on="0"/>
        <pt x="316" y="699" on="0"/>
        <pt x="316" y="669" on="1"/>
        <pt x="316" y="655" on="0"/>
        <pt x="312" y="624" on="0"/>
        <pt x="306" y="593" on="0"/>
        <pt x="299" y="564" on="0"/>
        <pt x="296" y="554" on="1"/>
        <pt x="282" y="501" on="1"/>
        <pt x="333" y="516" on="1"/>
        <pt x="358" y="523" on="0"/>
        <pt x="409" y="537" on="0"/>
        <pt x="434" y="537" on="1"/>
        <pt x="464" y="537" on="0"/>
        <pt x="491" y="509" on="0"/>
        <pt x="491" y="484" on="1"/>
        <pt x="491" y="458" on="0"/>
        <pt x="464" y="430" on="0"/>
        <pt x="434" y="430" on="1"/>
        <pt x="409" y="430" on="0"/>
        <pt x="358" y="444" on="0"/>
        <pt x="333" y="452" on="1"/>
        <pt x="281" y="467" on="1"/>
        <pt x="288" y="441" on="0"/>
        <pt x="301" y="403" on="0"/>
        <pt x="309" y="369" on="0"/>
        <pt x="314" y="336" on="0"/>
        <pt x="314" y="317" on="1"/>
        <pt x="314" y="297" on="0"/>
        <pt x="310" y="262" on="0"/>
        <pt x="301" y="227" on="0"/>
        <pt x="289" y="186" on="0"/>
        <pt x="281" y="160" on="1"/>
      </contour>
    </TTGlyph>
    <TTGlyph name="dcaron" xMin="40" yMin="-15" xMax="661" yMax="737">
      <component glyphName="d" x="0" y="0" flags="0x4"/>
      <component glyphName="caron.alt" x="580" y="0" flags="0x4"/>
    </TTGlyph>
    <TTGlyph name="dcroat" xMin="40" yMin="-15" xMax="560" yMax="725">
      <contour>
        <pt x="380" y="366" on="1"/>
        <pt x="354" y="386" on="0"/>
        <pt x="306" y="408" on="0"/>
        <pt x="283" y="408" on="1"/>
        <pt x="258" y="408" on="0"/>
        <pt x="213" y="387" on="0"/>
        <pt x="178" y="343" on="0"/>
        <pt x="158" y="275" on="0"/>
        <pt x="158" y="229" on="1"/>
        <pt x="158" y="139" on="0"/>
        <pt x="227" y="53" on="0"/>
        <pt x="279" y="53" on="1"/>
        <pt x="305" y="53" on="0"/>
        <pt x="355" y="76" on="0"/>
        <pt x="380" y="96" on="1"/>
      </contour>
      <contour>
        <pt x="491" y="535" on="1"/>
        <pt x="491" y="53" on="1"/>
        <pt x="560" y="40" on="1"/>
        <pt x="560" y="0" on="1"/>
        <pt x="390" y="-10" on="1"/>
        <pt x="384" y="52" on="1"/>
        <pt x="354" y="19" on="0"/>
        <pt x="285" y="-15" on="0"/>
        <pt x="241" y="-15" on="1"/>
        <pt x="197" y="-15" on="0"/>
        <pt x="123" y="18" on="0"/>
        <pt x="70" y="80" on="0"/>
        <pt x="40" y="170" on="0"/>
        <pt x="40" y="227" on="1"/>
        <pt x="40" y="284" on="0"/>
        <pt x="72" y="376" on="0"/>
        <pt x="129" y="441" on="0"/>
        <pt x="206" y="476" on="0"/>
        <pt x="251" y="476" on="1"/>
        <pt x="293" y="476" on="0"/>
        <pt x="357" y="446" on="0"/>
        <pt x="385" y="416" on="1"/>
        <pt x="385" y="535" on="1"/>
        <pt x="199" y="535" on="1"/>
        <pt x="199" y="585" on="1"/>
        <pt x="385" y="585" on="1"/>
        <pt x="385" y="632" on="1"/>
        <pt x="302" y="642" on="1"/>
        <pt x="302" y="680" on="1"/>
        <pt x="481" y="725" on="1"/>
        <pt x="495" y="717" on="1"/>
        <pt x="491" y="585" on="1"/>
        <pt x="560" y="585" on="1"/>
        <pt x="560" y="535" on="1"/>
      </contour>
    </TTGlyph>
    <TTGlyph name="degree" xMin="35" yMin="405" xMax="308" yMax="677">
      <contour>
        <pt x="172" y="448" on="1"/>
        <pt x="209" y="448" on="0"/>
        <pt x="256" y="499" on="0"/>
        <pt x="256" y="540" on="1"/>
        <pt x="256" y="582" on="0"/>
        <pt x="209" y="635" on="0"/>
        <pt x="172" y="635" on="1"/>
        <pt x="135" y="635" on="0"/>
        <pt x="88" y="582" on="0"/>
        <pt x="88" y="540" on="1"/>
        <pt x="88" y="499" on="0"/>
        <pt x="135" y="448" on="0"/>
      </contour>
      <contour>
        <pt x="172" y="405" on="1"/>
        <pt x="144" y="405" on="0"/>
        <pt x="94" y="424" on="0"/>
        <pt x="57" y="459" on="0"/>
        <pt x="35" y="509" on="0"/>
        <pt x="35" y="540" on="1"/>
        <pt x="35" y="571" on="0"/>
        <pt x="57" y="622" on="0"/>
        <pt x="94" y="658" on="0"/>
        <pt x="144" y="677" on="0"/>
        <pt x="172" y="677" on="1"/>
        <pt x="199" y="677" on="0"/>
        <pt x="249" y="658" on="0"/>
        <pt x="286" y="622" on="0"/>
        <pt x="308" y="571" on="0"/>
        <pt x="308" y="540" on="1"/>
        <pt x="308" y="509" on="0"/>
        <pt x="286" y="459" on="0"/>
        <pt x="249" y="424" on="0"/>
        <pt x="199" y="405" on="0"/>
      </contour>
    </TTGlyph>
    <TTGlyph name="dieresis" xMin="29" yMin="584" xMax="371" yMax="704">
      <component glyphName="uni0308" x="200" y="0" flags="0x4"/>
    </TTGlyph>
    <TTGlyph name="dieresiscmb.cap" xMin="-181" yMin="728" xMax="180" yMax="848">
      <contour>
        <pt x="-117" y="728" on="1"/>
        <pt x="-143" y="728" on="0"/>
        <pt x="-181" y="762" on="0"/>
        <pt x="-181" y="788" on="1"/>
        <pt x="-181" y="814" on="0"/>
        <pt x="-143" y="848" on="0"/>
        <pt x="-117" y="848" on="1"/>
        <pt x="-91" y="848" on="0"/>
        <pt x="-54" y="814" on="0"/>
        <pt x="-54" y="788" on="1"/>
        <pt x="-54" y="762" on="0"/>
        <pt x="-91" y="728" on="0"/>
      </contour>
      <contour>
        <pt x="117" y="728" on="1"/>
        <pt x="91" y="728" on="0"/>
        <pt x="54" y="762" on="0"/>
        <pt x="54" y="788" on="1"/>
        <pt x="54" y="814" on="0"/>
        <pt x="91" y="848" on="0"/>
        <pt x="117" y="848" on="1"/>
        <pt x="143" y="848" on="0"/>
        <pt x="180" y="814" on="0"/>
        <pt x="180" y="788" on="1"/>
        <pt x="180" y="762" on="0"/>
        <pt x="143" y="728" on="0"/>
      </contour>
    </TTGlyph>
    <TTGlyph name="divide" xMin="30" yMin="64" xMax="500" yMax="596">
      <contour>
        <pt x="265" y="64" on="1"/>
        <pt x="236" y="64" on="0"/>
        <pt x="195" y="102" on="0"/>
        <pt x="195" y="132" on="1"/>
        <pt x="195" y="162" on="0"/>
        <pt x="236" y="199" on="0"/>
        <pt x="265" y="199" on="1"/>
        <pt x="294" y="199" on="0"/>
        <pt x="335" y="162" on="0"/>
        <pt x="335" y="132" on="1"/>
        <pt x="335" y="102" on="0"/>
        <pt x="294" y="64" on="0"/>
      </contour>
      <contour>
        <pt x="265" y="461" on="1"/>
        <pt x="236" y="461" on="0"/>
        <pt x="195" y="499" on="0"/>
        <pt x="195" y="528" on="1"/>
        <pt x="195" y="558" on="0"/>
        <pt x="236" y="596" on="0"/>
        <pt x="265" y="596" on="1"/>
        <pt x="294" y="596" on="0"/>
        <pt x="335" y="558" on="0"/>
        <pt x="335" y="528" on="1"/>
        <pt x="335" y="499" on="0"/>
        <pt x="294" y="461" on="0"/>
      </contour>
      <contour>
        <pt x="30" y="293" on="1"/>
        <pt x="30" y="362" on="1"/>
        <pt x="500" y="362" on="1"/>
        <pt x="500" y="293" on="1"/>
      </contour>
    </TTGlyph>
    <TTGlyph name="dollar" xMin="47" yMin="-115" xMax="473" yMax="745">
      <contour>
        <pt x="284" y="37" on="1"/>
        <pt x="326" y="45" on="0"/>
        <pt x="374" y="101" on="0"/>
        <pt x="374" y="144" on="1"/>
        <pt x="374" y="189" on="0"/>
        <pt x="332" y="237" on="0"/>
        <pt x="284" y="256" on="1"/>
      </contour>
      <contour>
        <pt x="237" y="604" on="1"/>
        <pt x="199" y="597" on="0"/>
        <pt x="149" y="546" on="0"/>
        <pt x="149" y="500" on="1"/>
        <pt x="149" y="458" on="0"/>
        <pt x="195" y="409" on="0"/>
        <pt x="237" y="392" on="1"/>
      </contour>
      <contour>
        <pt x="293" y="373" on="1"/>
        <pt x="345" y="355" on="0"/>
        <pt x="414" y="314" on="0"/>
        <pt x="456" y="265" on="0"/>
        <pt x="473" y="207" on="0"/>
        <pt x="473" y="173" on="1"/>
        <pt x="473" y="136" on="0"/>
        <pt x="449" y="72" on="0"/>
        <pt x="401" y="23" on="0"/>
        <pt x="330" y="-9" on="0"/>
        <pt x="284" y="-13" on="1"/>
        <pt x="284" y="-115" on="1"/>
        <pt x="236" y="-115" on="1"/>
        <pt x="236" y="-15" on="1"/>
        <pt x="151" y="-13" on="0"/>
        <pt x="49" y="65" on="0"/>
        <pt x="47" y="129" on="1"/>
        <pt x="55" y="149" on="0"/>
        <pt x="84" y="166" on="0"/>
        <pt x="101" y="166" on="1"/>
        <pt x="122" y="166" on="0"/>
        <pt x="155" y="138" on="0"/>
        <pt x="161" y="100" on="1"/>
        <pt x="170" y="42" on="1"/>
        <pt x="186" y="38" on="0"/>
        <pt x="218" y="35" on="0"/>
        <pt x="236" y="34" on="1"/>
        <pt x="236" y="274" on="1"/>
        <pt x="222" y="279" on="1"/>
        <pt x="182" y="293" on="0"/>
        <pt x="119" y="328" on="0"/>
        <pt x="76" y="375" on="0"/>
        <pt x="53" y="435" on="0"/>
        <pt x="53" y="475" on="1"/>
        <pt x="53" y="509" on="0"/>
        <pt x="79" y="572" on="0"/>
        <pt x="127" y="620" on="0"/>
        <pt x="195" y="651" on="0"/>
        <pt x="237" y="655" on="1"/>
        <pt x="237" y="745" on="1"/>
        <pt x="285" y="745" on="1"/>
        <pt x="285" y="655" on="1"/>
        <pt x="360" y="650" on="0"/>
        <pt x="448" y="576" on="0"/>
        <pt x="453" y="513" on="1"/>
        <pt x="446" y="492" on="0"/>
        <pt x="418" y="475" on="0"/>
        <pt x="402" y="475" on="1"/>
        <pt x="383" y="475" on="0"/>
        <pt x="346" y="503" on="0"/>
        <pt x="339" y="547" on="1"/>
        <pt x="332" y="601" on="1"/>
        <pt x="308" y="605" on="0"/>
        <pt x="285" y="607" on="1"/>
        <pt x="285" y="376" on="1"/>
      </contour>
    </TTGlyph>
    <TTGlyph name="dotaccent" xMin="125" yMin="590" xMax="275" yMax="734">
      <component glyphName="uni0307" x="200" y="0" flags="0x4"/>
    </TTGlyph>
    <TTGlyph name="dotaccentcmb.cap" xMin="-74" yMin="726" xMax="74" yMax="866">
      <contour>
        <pt x="0" y="726" on="1"/>
        <pt x="-31" y="726" on="0"/>
        <pt x="-74" y="765" on="0"/>
        <pt x="-74" y="796" on="1"/>
        <pt x="-74" y="827" on="0"/>
        <pt x="-31" y="866" on="0"/>
        <pt x="0" y="866" on="1"/>
        <pt x="31" y="866" on="0"/>
        <pt x="74" y="827" on="0"/>
        <pt x="74" y="796" on="1"/>
        <pt x="74" y="765" on="0"/>
        <pt x="31" y="726" on="0"/>
      </contour>
    </TTGlyph>
    <TTGlyph name="dotlessi" xMin="30" yMin="0" xMax="281" yMax="494">
      <contour>
        <pt x="281" y="40" on="1"/>
        <pt x="281" y="0" on="1"/>
        <pt x="37" y="0" on="1"/>
        <pt x="37" y="40" on="1"/>
        <pt x="105" y="53" on="1"/>
        <pt x="106" y="91" on="0"/>
        <pt x="106" y="177" on="0"/>
        <pt x="106" y="210" on="1"/>
        <pt x="106" y="260" on="1"/>
        <pt x="106" y="301" on="0"/>
        <pt x="104" y="356" on="0"/>
        <pt x="103" y="386" on="1"/>
        <pt x="30" y="395" on="1"/>
        <pt x="30" y="432" on="1"/>
        <pt x="205" y="494" on="1"/>
        <pt x="220" y="484" on="1"/>
        <pt x="217" y="345" on="1"/>
        <pt x="217" y="210" on="1"/>
        <pt x="217" y="177" on="0"/>
        <pt x="217" y="90" on="0"/>
        <pt x="218" y="53" on="1"/>
      </contour>
    </TTGlyph>
    <TTGlyph name="e" xMin="41" yMin="-15" xMax="479" yMax="494">
      <contour>
        <pt x="311" y="285" on="1"/>
        <pt x="347" y="285" on="0"/>
        <pt x="372" y="315" on="0"/>
        <pt x="372" y="342" on="1"/>
        <pt x="372" y="387" on="0"/>
        <pt x="321" y="447" on="0"/>
        <pt x="283" y="447" on="1"/>
        <pt x="264" y="447" on="0"/>
        <pt x="224" y="430" on="0"/>
        <pt x="189" y="392" on="0"/>
        <pt x="165" y="330" on="0"/>
        <pt x="161" y="285" on="1"/>
      </contour>
      <contour>
        <pt x="159" y="239" on="1"/>
        <pt x="161" y="148" on="0"/>
        <pt x="245" y="56" on="0"/>
        <pt x="312" y="56" on="1"/>
        <pt x="358" y="56" on="0"/>
        <pt x="419" y="95" on="0"/>
        <pt x="444" y="129" on="1"/>
        <pt x="473" y="111" on="1"/>
        <pt x="450" y="51" on="0"/>
        <pt x="346" y="-15" on="0"/>
        <pt x="273" y="-15" on="1"/>
        <pt x="220" y="-15" on="0"/>
        <pt x="135" y="19" on="0"/>
        <pt x="74" y="84" on="0"/>
        <pt x="41" y="177" on="0"/>
        <pt x="41" y="236" on="1"/>
        <pt x="41" y="293" on="0"/>
        <pt x="78" y="388" on="0"/>
        <pt x="143" y="456" on="0"/>
        <pt x="231" y="494" on="0"/>
        <pt x="281" y="494" on="1"/>
        <pt x="325" y="494" on="0"/>
        <pt x="398" y="465" on="0"/>
        <pt x="450" y="413" on="0"/>
        <pt x="479" y="338" on="0"/>
        <pt x="479" y="292" on="1"/>
        <pt x="479" y="277" on="0"/>
        <pt x="475" y="250" on="0"/>
        <pt x="472" y="239" on="1"/>
      </contour>
    </TTGlyph>
    <TTGlyph name="e.sups" xMin="27" yMin="410" xMax="330" yMax="745">
      <contour>
        <pt x="211" y="606" on="1"/>
        <pt x="236" y="606" on="0"/>
        <pt x="253" y="625" on="0"/>
        <pt x="253" y="643" on="1"/>
        <pt x="253" y="675" on="0"/>
        <pt x="217" y="710" on="0"/>
        <pt x="192" y="710" on="1"/>
        <pt x="180" y="710" on="0"/>
        <pt x="154" y="699" on="0"/>
        <pt x="132" y="675" on="0"/>
        <pt x="116" y="635" on="0"/>
        <pt x="113" y="606" on="1"/>
      </contour>
      <contour>
        <pt x="112" y="573" on="1"/>
        <pt x="114" y="516" on="0"/>
        <pt x="172" y="462" on="0"/>
        <pt x="215" y="462" on="1"/>
        <pt x="246" y="462" on="0"/>
        <pt x="288" y="488" on="0"/>
        <pt x="305" y="511" on="1"/>
        <pt x="325" y="498" on="1"/>
        <pt x="309" y="456" on="0"/>
        <pt x="239" y="410" on="0"/>
        <pt x="189" y="410" on="1"/>
        <pt x="115" y="410" on="0"/>
        <pt x="27" y="497" on="0"/>
        <pt x="27" y="577" on="1"/>
        <pt x="27" y="614" on="0"/>
        <pt x="53" y="675" on="0"/>
        <pt x="97" y="720" on="0"/>
        <pt x="157" y="745" on="0"/>
        <pt x="192" y="745" on="1"/>
        <pt x="255" y="745" on="0"/>
        <pt x="330" y="670" on="0"/>
        <pt x="330" y="609" on="1"/>
        <pt x="330" y="591" on="0"/>
        <pt x="325" y="573" on="1"/>
      </contour>
    </TTGlyph>
    <TTGlyph name="eacute" xMin="41" yMin="-15" xMax="479" yMax="760">
      <component glyphName="e" x="0" y="0" flags="0x204"/>
      <component glyphName="uni0301" x="299" y="0" flags="0x4"/>
    </TTGlyph>
    <TTGlyph name="eacute.sups" xMin="27" yMin="410" xMax="330" yMax="911">
      <contour>
        <pt x="164" y="771" on="1"/>
        <pt x="144" y="787" on="1"/>
        <pt x="189" y="860" on="1"/>
        <pt x="209" y="892" on="0"/>
        <pt x="236" y="911" on="0"/>
        <pt x="247" y="911" on="1"/>
        <pt x="258" y="911" on="0"/>
        <pt x="276" y="898" on="0"/>
        <pt x="276" y="884" on="1"/>
        <pt x="276" y="873" on="0"/>
        <pt x="259" y="848" on="0"/>
        <pt x="232" y="826" on="1"/>
      </contour>
      <contour>
        <pt x="211" y="606" on="1"/>
        <pt x="236" y="606" on="0"/>
        <pt x="253" y="625" on="0"/>
        <pt x="253" y="643" on="1"/>
        <pt x="253" y="675" on="0"/>
        <pt x="217" y="710" on="0"/>
        <pt x="192" y="710" on="1"/>
        <pt x="180" y="710" on="0"/>
        <pt x="154" y="699" on="0"/>
        <pt x="132" y="675" on="0"/>
        <pt x="116" y="635" on="0"/>
        <pt x="113" y="606" on="1"/>
      </contour>
      <contour>
        <pt x="112" y="573" on="1"/>
        <pt x="114" y="516" on="0"/>
        <pt x="172" y="462" on="0"/>
        <pt x="215" y="462" on="1"/>
        <pt x="246" y="462" on="0"/>
        <pt x="288" y="488" on="0"/>
        <pt x="305" y="511" on="1"/>
        <pt x="325" y="498" on="1"/>
        <pt x="309" y="456" on="0"/>
        <pt x="239" y="410" on="0"/>
        <pt x="189" y="410" on="1"/>
        <pt x="115" y="410" on="0"/>
        <pt x="27" y="497" on="0"/>
        <pt x="27" y="577" on="1"/>
        <pt x="27" y="614" on="0"/>
        <pt x="53" y="675" on="0"/>
        <pt x="97" y="720" on="0"/>
        <pt x="157" y="745" on="0"/>
        <pt x="192" y="745" on="1"/>
        <pt x="255" y="745" on="0"/>
        <pt x="330" y="670" on="0"/>
        <pt x="330" y="609" on="1"/>
        <pt x="330" y="591" on="0"/>
        <pt x="325" y="573" on="1"/>
      </contour>
    </TTGlyph>
    <TTGlyph name="ecaron" xMin="41" yMin="-15" xMax="479" yMax="750">
      <component glyphName="e" x="0" y="0" flags="0x204"/>
      <component glyphName="uni030C" x="278" y="0" flags="0x4"/>
    </TTGlyph>
    <TTGlyph name="ecircumflex" xMin="41" yMin="-15" xMax="479" yMax="753">
      <component glyphName="e" x="0" y="0" flags="0x204"/>
      <component glyphName="uni0302" x="276" y="0" flags="0x4"/>
    </TTGlyph>
    <TTGlyph name="edieresis" xMin="41" yMin="-15" xMax="479" yMax="704">
      <component glyphName="e" x="0" y="0" flags="0x204"/>
      <component glyphName="uni0308" x="275" y="0" flags="0x4"/>
    </TTGlyph>
    <TTGlyph name="edotaccent" xMin="41" yMin="-15" xMax="479" yMax="734">
      <component glyphName="e" x="0" y="0" flags="0x204"/>
      <component glyphName="uni0307" x="278" y="0" flags="0x4"/>
    </TTGlyph>
    <TTGlyph name="egrave" xMin="41" yMin="-15" xMax="479" yMax="760">
      <component glyphName="e" x="0" y="0" flags="0x204"/>
      <component glyphName="uni0300" x="257" y="0" flags="0x4"/>
    </TTGlyph>
    <TTGlyph name="egrave.sups" xMin="27" yMin="410" xMax="330" yMax="911">
      <contour>
        <pt x="149" y="826" on="1"/>
        <pt x="122" y="848" on="0"/>
        <pt x="105" y="873" on="0"/>
        <pt x="105" y="884" on="1"/>
        <pt x="105" y="898" on="0"/>
        <pt x="123" y="911" on="0"/>
        <pt x="134" y="911" on="1"/>
        <pt x="145" y="911" on="0"/>
        <pt x="172" y="892" on="0"/>
        <pt x="192" y="860" on="1"/>
        <pt x="237" y="787" on="1"/>
        <pt x="217" y="771" on="1"/>
      </contour>
      <contour>
        <pt x="211" y="606" on="1"/>
        <pt x="236" y="606" on="0"/>
        <pt x="253" y="625" on="0"/>
        <pt x="253" y="643" on="1"/>
        <pt x="253" y="675" on="0"/>
        <pt x="217" y="710" on="0"/>
        <pt x="192" y="710" on="1"/>
        <pt x="180" y="710" on="0"/>
        <pt x="154" y="699" on="0"/>
        <pt x="132" y="675" on="0"/>
        <pt x="116" y="635" on="0"/>
        <pt x="113" y="606" on="1"/>
      </contour>
      <contour>
        <pt x="112" y="573" on="1"/>
        <pt x="114" y="516" on="0"/>
        <pt x="172" y="462" on="0"/>
        <pt x="215" y="462" on="1"/>
        <pt x="246" y="462" on="0"/>
        <pt x="288" y="488" on="0"/>
        <pt x="305" y="511" on="1"/>
        <pt x="325" y="498" on="1"/>
        <pt x="309" y="456" on="0"/>
        <pt x="239" y="410" on="0"/>
        <pt x="189" y="410" on="1"/>
        <pt x="115" y="410" on="0"/>
        <pt x="27" y="497" on="0"/>
        <pt x="27" y="577" on="1"/>
        <pt x="27" y="614" on="0"/>
        <pt x="53" y="675" on="0"/>
        <pt x="97" y="720" on="0"/>
        <pt x="157" y="745" on="0"/>
        <pt x="192" y="745" on="1"/>
        <pt x="255" y="745" on="0"/>
        <pt x="330" y="670" on="0"/>
        <pt x="330" y="609" on="1"/>
        <pt x="330" y="591" on="0"/>
        <pt x="325" y="573" on="1"/>
      </contour>
    </TTGlyph>
    <TTGlyph name="eight" xMin="42" yMin="-15" xMax="472" yMax="656">
      <contour>
        <pt x="258" y="32" on="1"/>
        <pt x="285" y="32" on="0"/>
        <pt x="326" y="50" on="0"/>
        <pt x="355" y="81" on="0"/>
        <pt x="370" y="123" on="0"/>
        <pt x="370" y="146" on="1"/>
        <pt x="370" y="167" on="0"/>
        <pt x="355" y="202" on="0"/>
        <pt x="320" y="236" on="0"/>
        <pt x="261" y="271" on="0"/>
        <pt x="217" y="292" on="1"/>
        <pt x="177" y="266" on="0"/>
        <pt x="140" y="200" on="0"/>
        <pt x="140" y="151" on="1"/>
        <pt x="140" y="96" on="0"/>
        <pt x="207" y="32" on="0"/>
      </contour>
      <contour>
        <pt x="261" y="608" on="1"/>
        <pt x="220" y="608" on="0"/>
        <pt x="162" y="557" on="0"/>
        <pt x="162" y="512" on="1"/>
        <pt x="162" y="494" on="0"/>
        <pt x="173" y="459" on="0"/>
        <pt x="201" y="425" on="0"/>
        <pt x="249" y="390" on="0"/>
        <pt x="287" y="372" on="1"/>
        <pt x="325" y="404" on="0"/>
        <pt x="353" y="465" on="0"/>
        <pt x="353" y="501" on="1"/>
        <pt x="353" y="549" on="0"/>
        <pt x="305" y="608" on="0"/>
      </contour>
      <contour>
        <pt x="333" y="349" on="1"/>
        <pt x="402" y="312" on="0"/>
        <pt x="472" y="227" on="0"/>
        <pt x="472" y="165" on="1"/>
        <pt x="472" y="124" on="0"/>
        <pt x="440" y="58" on="0"/>
        <pt x="383" y="11" on="0"/>
        <pt x="303" y="-15" on="0"/>
        <pt x="254" y="-15" on="1"/>
        <pt x="208" y="-15" on="0"/>
        <pt x="130" y="5" on="0"/>
        <pt x="74" y="46" on="0"/>
        <pt x="42" y="106" on="0"/>
        <pt x="42" y="145" on="1"/>
        <pt x="42" y="204" on="0"/>
        <pt x="112" y="284" on="0"/>
        <pt x="175" y="314" on="1"/>
        <pt x="119" y="349" on="0"/>
        <pt x="67" y="435" on="0"/>
        <pt x="67" y="485" on="1"/>
        <pt x="67" y="526" on="0"/>
        <pt x="99" y="590" on="0"/>
        <pt x="153" y="633" on="0"/>
        <pt x="224" y="656" on="0"/>
        <pt x="263" y="656" on="1"/>
        <pt x="303" y="656" on="0"/>
        <pt x="369" y="633" on="0"/>
        <pt x="416" y="592" on="0"/>
        <pt x="442" y="537" on="0"/>
        <pt x="442" y="504" on="1"/>
        <pt x="442" y="466" on="0"/>
        <pt x="396" y="389" on="0"/>
      </contour>
    </TTGlyph>
    <TTGlyph name="eight.dnom" xMin="42" yMin="-8" xMax="328" yMax="404">
      <component glyphName="eight.sups" x="0" y="-419" flags="0x204"/>
    </TTGlyph>
    <TTGlyph name="eight.lf" xMin="39" yMin="-15" xMax="469" yMax="656">
      <contour>
        <pt x="255" y="32" on="1"/>
        <pt x="282" y="32" on="0"/>
        <pt x="323" y="50" on="0"/>
        <pt x="352" y="81" on="0"/>
        <pt x="367" y="123" on="0"/>
        <pt x="367" y="146" on="1"/>
        <pt x="367" y="167" on="0"/>
        <pt x="352" y="202" on="0"/>
        <pt x="317" y="236" on="0"/>
        <pt x="258" y="271" on="0"/>
        <pt x="214" y="292" on="1"/>
        <pt x="174" y="266" on="0"/>
        <pt x="137" y="200" on="0"/>
        <pt x="137" y="151" on="1"/>
        <pt x="137" y="96" on="0"/>
        <pt x="204" y="32" on="0"/>
      </contour>
      <contour>
        <pt x="258" y="608" on="1"/>
        <pt x="217" y="608" on="0"/>
        <pt x="159" y="557" on="0"/>
        <pt x="159" y="512" on="1"/>
        <pt x="159" y="494" on="0"/>
        <pt x="170" y="459" on="0"/>
        <pt x="198" y="425" on="0"/>
        <pt x="246" y="390" on="0"/>
        <pt x="284" y="372" on="1"/>
        <pt x="322" y="404" on="0"/>
        <pt x="350" y="465" on="0"/>
        <pt x="350" y="501" on="1"/>
        <pt x="350" y="549" on="0"/>
        <pt x="302" y="608" on="0"/>
      </contour>
      <contour>
        <pt x="330" y="349" on="1"/>
        <pt x="399" y="312" on="0"/>
        <pt x="469" y="227" on="0"/>
        <pt x="469" y="165" on="1"/>
        <pt x="469" y="124" on="0"/>
        <pt x="437" y="58" on="0"/>
        <pt x="380" y="11" on="0"/>
        <pt x="300" y="-15" on="0"/>
        <pt x="251" y="-15" on="1"/>
        <pt x="205" y="-15" on="0"/>
        <pt x="127" y="5" on="0"/>
        <pt x="71" y="46" on="0"/>
        <pt x="39" y="106" on="0"/>
        <pt x="39" y="145" on="1"/>
        <pt x="39" y="204" on="0"/>
        <pt x="109" y="284" on="0"/>
        <pt x="172" y="314" on="1"/>
        <pt x="116" y="349" on="0"/>
        <pt x="64" y="435" on="0"/>
        <pt x="64" y="485" on="1"/>
        <pt x="64" y="526" on="0"/>
        <pt x="96" y="590" on="0"/>
        <pt x="150" y="633" on="0"/>
        <pt x="221" y="656" on="0"/>
        <pt x="260" y="656" on="1"/>
        <pt x="300" y="656" on="0"/>
        <pt x="366" y="633" on="0"/>
        <pt x="413" y="592" on="0"/>
        <pt x="439" y="537" on="0"/>
        <pt x="439" y="504" on="1"/>
        <pt x="439" y="466" on="0"/>
        <pt x="393" y="389" on="0"/>
      </contour>
    </TTGlyph>
    <TTGlyph name="eight.numr" xMin="42" yMin="249" xMax="328" yMax="661">
      <component glyphName="eight.sups" x="0" y="-162" flags="0x204"/>
    </TTGlyph>
    <TTGlyph name="eight.osf" xMin="39" yMin="-15" xMax="469" yMax="656">
      <contour>
        <pt x="255" y="32" on="1"/>
        <pt x="282" y="32" on="0"/>
        <pt x="323" y="50" on="0"/>
        <pt x="352" y="81" on="0"/>
        <pt x="367" y="123" on="0"/>
        <pt x="367" y="146" on="1"/>
        <pt x="367" y="167" on="0"/>
        <pt x="352" y="202" on="0"/>
        <pt x="317" y="236" on="0"/>
        <pt x="258" y="271" on="0"/>
        <pt x="214" y="292" on="1"/>
        <pt x="174" y="266" on="0"/>
        <pt x="137" y="200" on="0"/>
        <pt x="137" y="151" on="1"/>
        <pt x="137" y="96" on="0"/>
        <pt x="204" y="32" on="0"/>
      </contour>
      <contour>
        <pt x="258" y="608" on="1"/>
        <pt x="217" y="608" on="0"/>
        <pt x="159" y="557" on="0"/>
        <pt x="159" y="512" on="1"/>
        <pt x="159" y="494" on="0"/>
        <pt x="170" y="459" on="0"/>
        <pt x="198" y="425" on="0"/>
        <pt x="246" y="390" on="0"/>
        <pt x="284" y="372" on="1"/>
        <pt x="322" y="404" on="0"/>
        <pt x="350" y="465" on="0"/>
        <pt x="350" y="501" on="1"/>
        <pt x="350" y="549" on="0"/>
        <pt x="302" y="608" on="0"/>
      </contour>
      <contour>
        <pt x="330" y="349" on="1"/>
        <pt x="399" y="312" on="0"/>
        <pt x="469" y="227" on="0"/>
        <pt x="469" y="165" on="1"/>
        <pt x="469" y="124" on="0"/>
        <pt x="437" y="58" on="0"/>
        <pt x="380" y="11" on="0"/>
        <pt x="300" y="-15" on="0"/>
        <pt x="251" y="-15" on="1"/>
        <pt x="205" y="-15" on="0"/>
        <pt x="127" y="5" on="0"/>
        <pt x="71" y="46" on="0"/>
        <pt x="39" y="106" on="0"/>
        <pt x="39" y="145" on="1"/>
        <pt x="39" y="204" on="0"/>
        <pt x="109" y="284" on="0"/>
        <pt x="172" y="314" on="1"/>
        <pt x="116" y="349" on="0"/>
        <pt x="64" y="435" on="0"/>
        <pt x="64" y="485" on="1"/>
        <pt x="64" y="526" on="0"/>
        <pt x="96" y="590" on="0"/>
        <pt x="150" y="633" on="0"/>
        <pt x="221" y="656" on="0"/>
        <pt x="260" y="656" on="1"/>
        <pt x="300" y="656" on="0"/>
        <pt x="366" y="633" on="0"/>
        <pt x="413" y="592" on="0"/>
        <pt x="439" y="537" on="0"/>
        <pt x="439" y="504" on="1"/>
        <pt x="439" y="466" on="0"/>
        <pt x="393" y="389" on="0"/>
      </contour>
    </TTGlyph>
    <TTGlyph name="eight.subs" xMin="42" yMin="-224" xMax="328" yMax="188">
      <component glyphName="eight.sups" x="0" y="-635" flags="0x204"/>
    </TTGlyph>
    <TTGlyph name="eight.sups" xMin="42" yMin="411" xMax="328" yMax="823">
      <contour>
        <pt x="187" y="445" on="1"/>
        <pt x="218" y="445" on="0"/>
        <pt x="252" y="480" on="0"/>
        <pt x="252" y="507" on="1"/>
        <pt x="252" y="519" on="0"/>
        <pt x="243" y="539" on="0"/>
        <pt x="221" y="559" on="0"/>
        <pt x="183" y="580" on="0"/>
        <pt x="153" y="594" on="1"/>
        <pt x="114" y="564" on="0"/>
        <pt x="114" y="514" on="1"/>
        <pt x="114" y="481" on="0"/>
        <pt x="155" y="445" on="0"/>
      </contour>
      <contour>
        <pt x="187" y="789" on="1"/>
        <pt x="164" y="789" on="0"/>
        <pt x="130" y="762" on="0"/>
        <pt x="130" y="735" on="1"/>
        <pt x="130" y="725" on="0"/>
        <pt x="136" y="707" on="0"/>
        <pt x="154" y="687" on="0"/>
        <pt x="185" y="667" on="0"/>
        <pt x="211" y="656" on="1"/>
        <pt x="229" y="673" on="0"/>
        <pt x="243" y="708" on="0"/>
        <pt x="243" y="728" on="1"/>
        <pt x="243" y="789" on="0"/>
      </contour>
      <contour>
        <pt x="244" y="640" on="1"/>
        <pt x="285" y="618" on="0"/>
        <pt x="328" y="565" on="0"/>
        <pt x="328" y="529" on="1"/>
        <pt x="328" y="474" on="0"/>
        <pt x="250" y="411" on="0"/>
        <pt x="184" y="411" on="1"/>
        <pt x="121" y="411" on="0"/>
        <pt x="42" y="460" on="0"/>
        <pt x="42" y="507" on="1"/>
        <pt x="42" y="543" on="0"/>
        <pt x="84" y="593" on="0"/>
        <pt x="122" y="610" on="1"/>
        <pt x="92" y="630" on="0"/>
        <pt x="60" y="683" on="0"/>
        <pt x="60" y="712" on="1"/>
        <pt x="60" y="739" on="0"/>
        <pt x="81" y="780" on="0"/>
        <pt x="117" y="809" on="0"/>
        <pt x="165" y="823" on="0"/>
        <pt x="191" y="823" on="1"/>
        <pt x="217" y="823" on="0"/>
        <pt x="260" y="809" on="0"/>
        <pt x="292" y="784" on="0"/>
        <pt x="309" y="750" on="0"/>
        <pt x="309" y="731" on="1"/>
        <pt x="309" y="707" on="0"/>
        <pt x="281" y="663" on="0"/>
      </contour>
    </TTGlyph>
    <TTGlyph name="eight.tosf" xMin="42" yMin="-15" xMax="472" yMax="656">
      <contour>
        <pt x="258" y="32" on="1"/>
        <pt x="285" y="32" on="0"/>
        <pt x="326" y="50" on="0"/>
        <pt x="355" y="81" on="0"/>
        <pt x="370" y="123" on="0"/>
        <pt x="370" y="146" on="1"/>
        <pt x="370" y="167" on="0"/>
        <pt x="355" y="202" on="0"/>
        <pt x="320" y="236" on="0"/>
        <pt x="261" y="271" on="0"/>
        <pt x="217" y="292" on="1"/>
        <pt x="177" y="266" on="0"/>
        <pt x="140" y="200" on="0"/>
        <pt x="140" y="151" on="1"/>
        <pt x="140" y="96" on="0"/>
        <pt x="207" y="32" on="0"/>
      </contour>
      <contour>
        <pt x="261" y="608" on="1"/>
        <pt x="220" y="608" on="0"/>
        <pt x="162" y="557" on="0"/>
        <pt x="162" y="512" on="1"/>
        <pt x="162" y="494" on="0"/>
        <pt x="173" y="459" on="0"/>
        <pt x="201" y="425" on="0"/>
        <pt x="249" y="390" on="0"/>
        <pt x="287" y="372" on="1"/>
        <pt x="325" y="404" on="0"/>
        <pt x="353" y="465" on="0"/>
        <pt x="353" y="501" on="1"/>
        <pt x="353" y="549" on="0"/>
        <pt x="305" y="608" on="0"/>
      </contour>
      <contour>
        <pt x="333" y="349" on="1"/>
        <pt x="402" y="312" on="0"/>
        <pt x="472" y="227" on="0"/>
        <pt x="472" y="165" on="1"/>
        <pt x="472" y="124" on="0"/>
        <pt x="440" y="58" on="0"/>
        <pt x="383" y="11" on="0"/>
        <pt x="303" y="-15" on="0"/>
        <pt x="254" y="-15" on="1"/>
        <pt x="208" y="-15" on="0"/>
        <pt x="130" y="5" on="0"/>
        <pt x="74" y="46" on="0"/>
        <pt x="42" y="106" on="0"/>
        <pt x="42" y="145" on="1"/>
        <pt x="42" y="204" on="0"/>
        <pt x="112" y="284" on="0"/>
        <pt x="175" y="314" on="1"/>
        <pt x="119" y="349" on="0"/>
        <pt x="67" y="435" on="0"/>
        <pt x="67" y="485" on="1"/>
        <pt x="67" y="526" on="0"/>
        <pt x="99" y="590" on="0"/>
        <pt x="153" y="633" on="0"/>
        <pt x="224" y="656" on="0"/>
        <pt x="263" y="656" on="1"/>
        <pt x="303" y="656" on="0"/>
        <pt x="369" y="633" on="0"/>
        <pt x="416" y="592" on="0"/>
        <pt x="442" y="537" on="0"/>
        <pt x="442" y="504" on="1"/>
        <pt x="442" y="466" on="0"/>
        <pt x="396" y="389" on="0"/>
      </contour>
    </TTGlyph>
    <TTGlyph name="ellipsis" xMin="72" yMin="-15" xMax="888" yMax="141">
      <component glyphName="period" x="0" y="0" flags="0x4"/>
      <component glyphName="period" x="330" y="0" flags="0x4"/>
      <component glyphName="period" x="660" y="0" flags="0x4"/>
    </TTGlyph>
    <TTGlyph name="emacron" xMin="41" yMin="-15" xMax="479" yMax="676">
      <component glyphName="e" x="0" y="0" flags="0x204"/>
      <component glyphName="uni0304" x="276" y="0" flags="0x4"/>
    </TTGlyph>
    <TTGlyph name="emdash" xMin="40" yMin="214" xMax="781" yMax="289">
      <contour>
        <pt x="40" y="289" on="1"/>
        <pt x="781" y="289" on="1"/>
        <pt x="781" y="214" on="1"/>
        <pt x="40" y="214" on="1"/>
      </contour>
    </TTGlyph>
    <TTGlyph name="emdash.cap" xMin="40" yMin="266" xMax="781" yMax="341">
      <component glyphName="emdash" x="0" y="52" flags="0x204"/>
    </TTGlyph>
    <TTGlyph name="emdash.sups" xMin="42" yMin="548" xMax="524" yMax="602">
      <contour>
        <pt x="42" y="602" on="1"/>
        <pt x="524" y="602" on="1"/>
        <pt x="524" y="548" on="1"/>
        <pt x="42" y="548" on="1"/>
      </contour>
    </TTGlyph>
    <TTGlyph name="endash" xMin="40" yMin="214" xMax="481" yMax="289">
      <contour>
        <pt x="40" y="289" on="1"/>
        <pt x="481" y="289" on="1"/>
        <pt x="481" y="214" on="1"/>
        <pt x="40" y="214" on="1"/>
      </contour>
    </TTGlyph>
    <TTGlyph name="endash.cap" xMin="40" yMin="266" xMax="481" yMax="341">
      <component glyphName="endash" x="0" y="52" flags="0x204"/>
    </TTGlyph>
    <TTGlyph name="endash.sups" xMin="42" yMin="548" xMax="330" yMax="602">
      <contour>
        <pt x="42" y="602" on="1"/>
        <pt x="330" y="602" on="1"/>
        <pt x="330" y="548" on="1"/>
        <pt x="42" y="548" on="1"/>
      </contour>
    </TTGlyph>
    <TTGlyph name="eogonek" xMin="41" yMin="-226" xMax="479" yMax="494">
      <contour>
        <pt x="311" y="285" on="1"/>
        <pt x="347" y="285" on="0"/>
        <pt x="372" y="313" on="0"/>
        <pt x="372" y="342" on="1"/>
        <pt x="372" y="387" on="0"/>
        <pt x="321" y="447" on="0"/>
        <pt x="282" y="447" on="1"/>
        <pt x="263" y="447" on="0"/>
        <pt x="224" y="430" on="0"/>
        <pt x="189" y="392" on="0"/>
        <pt x="165" y="330" on="0"/>
        <pt x="161" y="285" on="1"/>
      </contour>
      <contour>
        <pt x="473" y="111" on="1"/>
        <pt x="461" y="82" on="0"/>
        <pt x="427" y="40" on="0"/>
        <pt x="401" y="19" on="1"/>
        <pt x="369" y="-7" on="0"/>
        <pt x="330" y="-60" on="0"/>
        <pt x="330" y="-90" on="1"/>
        <pt x="330" y="-125" on="0"/>
        <pt x="372" y="-160" on="0"/>
        <pt x="401" y="-160" on="1"/>
        <pt x="412" y="-160" on="0"/>
        <pt x="439" y="-155" on="0"/>
        <pt x="453" y="-148" on="1"/>
        <pt x="466" y="-179" on="1"/>
        <pt x="445" y="-202" on="0"/>
        <pt x="384" y="-226" on="0"/>
        <pt x="352" y="-226" on="1"/>
        <pt x="305" y="-226" on="0"/>
        <pt x="250" y="-175" on="0"/>
        <pt x="250" y="-131" on="1"/>
        <pt x="250" y="-97" on="0"/>
        <pt x="285" y="-35" on="0"/>
        <pt x="312" y="-12" on="1"/>
        <pt x="292" y="-15" on="0"/>
        <pt x="273" y="-15" on="1"/>
        <pt x="220" y="-15" on="0"/>
        <pt x="135" y="19" on="0"/>
        <pt x="74" y="84" on="0"/>
        <pt x="41" y="178" on="0"/>
        <pt x="41" y="238" on="1"/>
        <pt x="41" y="294" on="0"/>
        <pt x="78" y="388" on="0"/>
        <pt x="143" y="456" on="0"/>
        <pt x="231" y="494" on="0"/>
        <pt x="281" y="494" on="1"/>
        <pt x="325" y="494" on="0"/>
        <pt x="398" y="465" on="0"/>
        <pt x="450" y="413" on="0"/>
        <pt x="479" y="338" on="0"/>
        <pt x="479" y="292" on="1"/>
        <pt x="479" y="277" on="0"/>
        <pt x="475" y="250" on="0"/>
        <pt x="472" y="239" on="1"/>
        <pt x="159" y="239" on="1"/>
        <pt x="161" y="148" on="0"/>
        <pt x="245" y="56" on="0"/>
        <pt x="313" y="56" on="1"/>
        <pt x="358" y="56" on="0"/>
        <pt x="419" y="95" on="0"/>
        <pt x="444" y="129" on="1"/>
      </contour>
    </TTGlyph>
    <TTGlyph name="equal" xMin="30" yMin="193" xMax="500" yMax="463">
      <component glyphName="minus" x="0" y="-100" flags="0x204"/>
      <component glyphName="minus" x="0" y="101" flags="0x4"/>
    </TTGlyph>
    <TTGlyph name="estimated" xMin="46" yMin="-12" xMax="754" yMax="660">
      <contour>
        <pt x="176" y="128" on="1"/>
        <pt x="176" y="122" on="0"/>
        <pt x="181" y="113" on="0"/>
        <pt x="184" y="108" on="1"/>
        <pt x="225" y="61" on="0"/>
        <pt x="337" y="8" on="0"/>
        <pt x="402" y="8" on="1"/>
        <pt x="470" y="8" on="0"/>
        <pt x="588" y="69" on="0"/>
        <pt x="630" y="120" on="1"/>
        <pt x="682" y="120" on="1"/>
        <pt x="632" y="60" on="0"/>
        <pt x="486" y="-12" on="0"/>
        <pt x="400" y="-12" on="1"/>
        <pt x="326" y="-12" on="0"/>
        <pt x="197" y="41" on="0"/>
        <pt x="101" y="132" on="0"/>
        <pt x="46" y="254" on="0"/>
        <pt x="46" y="324" on="1"/>
        <pt x="46" y="394" on="0"/>
        <pt x="101" y="516" on="0"/>
        <pt x="197" y="607" on="0"/>
        <pt x="326" y="660" on="0"/>
        <pt x="400" y="660" on="1"/>
        <pt x="473" y="660" on="0"/>
        <pt x="602" y="607" on="0"/>
        <pt x="698" y="516" on="0"/>
        <pt x="754" y="394" on="0"/>
        <pt x="754" y="324" on="1"/>
        <pt x="754" y="316" on="1"/>
        <pt x="180" y="316" on="1"/>
        <pt x="176" y="316" on="0"/>
        <pt x="176" y="312" on="1"/>
      </contour>
      <contour>
        <pt x="620" y="334" on="1"/>
        <pt x="626" y="334" on="0"/>
        <pt x="626" y="340" on="1"/>
        <pt x="626" y="524" on="1"/>
        <pt x="626" y="536" on="0"/>
        <pt x="616" y="546" on="1"/>
        <pt x="574" y="590" on="0"/>
        <pt x="464" y="640" on="0"/>
        <pt x="402" y="640" on="1"/>
        <pt x="337" y="640" on="0"/>
        <pt x="226" y="587" on="0"/>
        <pt x="184" y="542" on="1"/>
        <pt x="181" y="537" on="0"/>
        <pt x="176" y="526" on="0"/>
        <pt x="176" y="520" on="1"/>
        <pt x="176" y="340" on="1"/>
        <pt x="176" y="334" on="0"/>
        <pt x="180" y="334" on="1"/>
      </contour>
    </TTGlyph>
    <TTGlyph name="eth" xMin="41" yMin="-15" xMax="501" yMax="745">
      <contour>
        <pt x="273" y="33" on="1"/>
        <pt x="330" y="33" on="0"/>
        <pt x="388" y="135" on="0"/>
        <pt x="388" y="233" on="1"/>
        <pt x="388" y="331" on="0"/>
        <pt x="327" y="429" on="0"/>
        <pt x="273" y="429" on="1"/>
        <pt x="217" y="429" on="0"/>
        <pt x="158" y="327" on="0"/>
        <pt x="158" y="229" on="1"/>
        <pt x="158" y="132" on="0"/>
        <pt x="218" y="33" on="0"/>
      </contour>
      <contour>
        <pt x="357" y="620" on="1"/>
        <pt x="424" y="555" on="0"/>
        <pt x="501" y="385" on="0"/>
        <pt x="501" y="278" on="1"/>
        <pt x="501" y="206" on="0"/>
        <pt x="466" y="96" on="0"/>
        <pt x="403" y="23" on="0"/>
        <pt x="315" y="-15" on="0"/>
        <pt x="263" y="-15" on="1"/>
        <pt x="221" y="-15" on="0"/>
        <pt x="141" y="16" on="0"/>
        <pt x="79" y="78" on="0"/>
        <pt x="41" y="169" on="0"/>
        <pt x="41" y="229" on="1"/>
        <pt x="41" y="289" on="0"/>
        <pt x="79" y="382" on="0"/>
        <pt x="142" y="444" on="0"/>
        <pt x="222" y="476" on="0"/>
        <pt x="264" y="476" on="1"/>
        <pt x="329" y="476" on="0"/>
        <pt x="370" y="440" on="1"/>
        <pt x="355" y="485" on="0"/>
        <pt x="317" y="555" on="0"/>
        <pt x="290" y="585" on="1"/>
        <pt x="155" y="516" on="1"/>
        <pt x="129" y="565" on="1"/>
        <pt x="249" y="626" on="1"/>
        <pt x="226" y="646" on="0"/>
        <pt x="171" y="683" on="0"/>
        <pt x="137" y="702" on="1"/>
        <pt x="159" y="745" on="1"/>
        <pt x="201" y="728" on="0"/>
        <pt x="277" y="685" on="0"/>
        <pt x="312" y="659" on="1"/>
        <pt x="462" y="736" on="1"/>
        <pt x="488" y="687" on="1"/>
      </contour>
    </TTGlyph>
    <TTGlyph name="exclam" xMin="80" yMin="-15" xMax="229" yMax="677">
      <contour>
        <pt x="155" y="-15" on="1"/>
        <pt x="123" y="-15" on="0"/>
        <pt x="80" y="29" on="0"/>
        <pt x="80" y="60" on="1"/>
        <pt x="80" y="91" on="0"/>
        <pt x="123" y="135" on="0"/>
        <pt x="155" y="135" on="1"/>
        <pt x="186" y="135" on="0"/>
        <pt x="229" y="91" on="0"/>
        <pt x="229" y="60" on="1"/>
        <pt x="229" y="29" on="0"/>
        <pt x="186" y="-15" on="0"/>
      </contour>
      <contour>
        <pt x="155" y="677" on="1"/>
        <pt x="185" y="677" on="0"/>
        <pt x="225" y="642" on="0"/>
        <pt x="225" y="604" on="1"/>
        <pt x="225" y="577" on="0"/>
        <pt x="208" y="452" on="0"/>
        <pt x="193" y="352" on="1"/>
        <pt x="176" y="231" on="1"/>
        <pt x="133" y="231" on="1"/>
        <pt x="116" y="352" on="1"/>
        <pt x="101" y="452" on="0"/>
        <pt x="84" y="577" on="0"/>
        <pt x="84" y="604" on="1"/>
        <pt x="84" y="642" on="0"/>
        <pt x="125" y="677" on="0"/>
      </contour>
    </TTGlyph>
    <TTGlyph name="exclamdown" xMin="80" yMin="-196" xMax="229" yMax="496">
      <component glyphName="exclamdown.cap" x="0" y="-181" flags="0x204"/>
    </TTGlyph>
    <TTGlyph name="exclamdown.cap" xMin="80" yMin="-15" xMax="229" yMax="677">
      <contour>
        <pt x="154" y="677" on="1"/>
        <pt x="186" y="677" on="0"/>
        <pt x="229" y="633" on="0"/>
        <pt x="229" y="602" on="1"/>
        <pt x="229" y="571" on="0"/>
        <pt x="186" y="527" on="0"/>
        <pt x="154" y="527" on="1"/>
        <pt x="123" y="527" on="0"/>
        <pt x="80" y="571" on="0"/>
        <pt x="80" y="602" on="1"/>
        <pt x="80" y="633" on="0"/>
        <pt x="123" y="677" on="0"/>
      </contour>
      <contour>
        <pt x="154" y="-15" on="1"/>
        <pt x="124" y="-15" on="0"/>
        <pt x="84" y="20" on="0"/>
        <pt x="84" y="58" on="1"/>
        <pt x="84" y="85" on="0"/>
        <pt x="101" y="210" on="0"/>
        <pt x="116" y="310" on="1"/>
        <pt x="133" y="431" on="1"/>
        <pt x="176" y="431" on="1"/>
        <pt x="193" y="310" on="1"/>
        <pt x="208" y="210" on="0"/>
        <pt x="225" y="85" on="0"/>
        <pt x="225" y="58" on="1"/>
        <pt x="225" y="20" on="0"/>
        <pt x="184" y="-15" on="0"/>
      </contour>
    </TTGlyph>
    <TTGlyph name="f" xMin="32" yMin="0" xMax="434" yMax="745">
      <contour>
        <pt x="107" y="477" on="1"/>
        <pt x="115" y="556" on="0"/>
        <pt x="151" y="649" on="0"/>
        <pt x="182" y="681" on="1"/>
        <pt x="217" y="716" on="0"/>
        <pt x="294" y="745" on="0"/>
        <pt x="332" y="745" on="1"/>
        <pt x="372" y="745" on="0"/>
        <pt x="426" y="717" on="0"/>
        <pt x="434" y="690" on="1"/>
        <pt x="434" y="666" on="0"/>
        <pt x="400" y="634" on="0"/>
        <pt x="374" y="634" on="1"/>
        <pt x="334" y="634" on="0"/>
        <pt x="295" y="682" on="1"/>
        <pt x="279" y="698" on="1"/>
        <pt x="271" y="692" on="0"/>
        <pt x="257" y="678" on="0"/>
        <pt x="251" y="668" on="1"/>
        <pt x="231" y="639" on="0"/>
        <pt x="213" y="547" on="0"/>
        <pt x="215" y="476" on="1"/>
        <pt x="339" y="476" on="1"/>
        <pt x="339" y="418" on="1"/>
        <pt x="217" y="418" on="1"/>
        <pt x="217" y="210" on="1"/>
        <pt x="217" y="171" on="0"/>
        <pt x="218" y="94" on="0"/>
        <pt x="219" y="55" on="1"/>
        <pt x="301" y="40" on="1"/>
        <pt x="301" y="0" on="1"/>
        <pt x="34" y="0" on="1"/>
        <pt x="34" y="40" on="1"/>
        <pt x="104" y="53" on="1"/>
        <pt x="105" y="93" on="0"/>
        <pt x="106" y="171" on="0"/>
        <pt x="106" y="210" on="1"/>
        <pt x="106" y="418" on="1"/>
        <pt x="32" y="418" on="1"/>
        <pt x="32" y="467" on="1"/>
      </contour>
    </TTGlyph>
    <TTGlyph name="f.sups" xMin="21" yMin="420" xMax="299" yMax="905">
      <contour>
        <pt x="69" y="733" on="1"/>
        <pt x="75" y="784" on="0"/>
        <pt x="102" y="841" on="0"/>
        <pt x="125" y="864" on="1"/>
        <pt x="149" y="888" on="0"/>
        <pt x="205" y="905" on="0"/>
        <pt x="228" y="905" on="1"/>
        <pt x="254" y="905" on="0"/>
        <pt x="294" y="886" on="0"/>
        <pt x="299" y="869" on="1"/>
        <pt x="298" y="852" on="0"/>
        <pt x="276" y="829" on="0"/>
        <pt x="259" y="829" on="1"/>
        <pt x="231" y="829" on="0"/>
        <pt x="202" y="866" on="1"/>
        <pt x="195" y="875" on="1"/>
        <pt x="183" y="868" on="0"/>
        <pt x="175" y="857" on="1"/>
        <pt x="149" y="823" on="0"/>
        <pt x="151" y="733" on="1"/>
        <pt x="232" y="733" on="1"/>
        <pt x="232" y="689" on="1"/>
        <pt x="152" y="689" on="1"/>
        <pt x="152" y="461" on="1"/>
        <pt x="208" y="451" on="1"/>
        <pt x="208" y="420" on="1"/>
        <pt x="23" y="420" on="1"/>
        <pt x="23" y="451" on="1"/>
        <pt x="68" y="459" on="1"/>
        <pt x="68" y="689" on="1"/>
        <pt x="21" y="689" on="1"/>
        <pt x="21" y="727" on="1"/>
      </contour>
    </TTGlyph>
    <TTGlyph name="f_i" xMin="32" yMin="0" xMax="598" yMax="745">
      <contour>
        <pt x="598" y="40" on="1"/>
        <pt x="598" y="0" on="1"/>
        <pt x="353" y="0" on="1"/>
        <pt x="353" y="40" on="1"/>
        <pt x="422" y="53" on="1"/>
        <pt x="423" y="91" on="0"/>
        <pt x="423" y="178" on="0"/>
        <pt x="423" y="210" on="1"/>
        <pt x="423" y="266" on="1"/>
        <pt x="423" y="315" on="0"/>
        <pt x="421" y="382" on="0"/>
        <pt x="420" y="418" on="1"/>
        <pt x="217" y="418" on="1"/>
        <pt x="217" y="210" on="1"/>
        <pt x="217" y="171" on="0"/>
        <pt x="218" y="93" on="0"/>
        <pt x="219" y="54" on="1"/>
        <pt x="296" y="40" on="1"/>
        <pt x="296" y="0" on="1"/>
        <pt x="34" y="0" on="1"/>
        <pt x="34" y="40" on="1"/>
        <pt x="104" y="53" on="1"/>
        <pt x="105" y="93" on="0"/>
        <pt x="106" y="171" on="0"/>
        <pt x="106" y="210" on="1"/>
        <pt x="106" y="418" on="1"/>
        <pt x="32" y="418" on="1"/>
        <pt x="32" y="467" on="1"/>
        <pt x="107" y="477" on="1"/>
        <pt x="111" y="515" on="0"/>
        <pt x="123" y="576" on="0"/>
        <pt x="141" y="624" on="0"/>
        <pt x="167" y="663" on="0"/>
        <pt x="186" y="680" on="1"/>
        <pt x="229" y="718" on="0"/>
        <pt x="328" y="745" on="0"/>
        <pt x="379" y="745" on="1"/>
        <pt x="441" y="745" on="0"/>
        <pt x="530" y="696" on="0"/>
        <pt x="535" y="656" on="1"/>
        <pt x="533" y="633" on="0"/>
        <pt x="502" y="602" on="0"/>
        <pt x="475" y="602" on="1"/>
        <pt x="432" y="602" on="0"/>
        <pt x="399" y="650" on="1"/>
        <pt x="363" y="702" on="1"/>
        <pt x="331" y="696" on="0"/>
        <pt x="285" y="675" on="0"/>
        <pt x="266" y="657" on="1"/>
        <pt x="237" y="628" on="0"/>
        <pt x="213" y="545" on="0"/>
        <pt x="215" y="476" on="1"/>
        <pt x="417" y="476" on="1"/>
        <pt x="521" y="494" on="1"/>
        <pt x="536" y="484" on="1"/>
        <pt x="533" y="345" on="1"/>
        <pt x="533" y="210" on="1"/>
        <pt x="533" y="177" on="0"/>
        <pt x="533" y="91" on="0"/>
        <pt x="534" y="53" on="1"/>
      </contour>
    </TTGlyph>
    <TTGlyph name="f_l" xMin="32" yMin="0" xMax="597" yMax="745">
      <contour>
        <pt x="597" y="40" on="1"/>
        <pt x="597" y="0" on="1"/>
        <pt x="347" y="0" on="1"/>
        <pt x="347" y="40" on="1"/>
        <pt x="416" y="53" on="1"/>
        <pt x="417" y="93" on="0"/>
        <pt x="418" y="171" on="0"/>
        <pt x="418" y="210" on="1"/>
        <pt x="418" y="633" on="1"/>
        <pt x="390" y="635" on="0"/>
        <pt x="335" y="663" on="0"/>
        <pt x="311" y="690" on="1"/>
        <pt x="303" y="700" on="1"/>
        <pt x="280" y="687" on="0"/>
        <pt x="262" y="666" on="1"/>
        <pt x="236" y="635" on="0"/>
        <pt x="214" y="544" on="0"/>
        <pt x="215" y="476" on="1"/>
        <pt x="339" y="476" on="1"/>
        <pt x="339" y="418" on="1"/>
        <pt x="217" y="418" on="1"/>
        <pt x="217" y="210" on="1"/>
        <pt x="217" y="171" on="0"/>
        <pt x="218" y="93" on="0"/>
        <pt x="219" y="54" on="1"/>
        <pt x="296" y="40" on="1"/>
        <pt x="296" y="0" on="1"/>
        <pt x="34" y="0" on="1"/>
        <pt x="34" y="40" on="1"/>
        <pt x="104" y="53" on="1"/>
        <pt x="105" y="93" on="0"/>
        <pt x="106" y="171" on="0"/>
        <pt x="106" y="210" on="1"/>
        <pt x="106" y="418" on="1"/>
        <pt x="32" y="418" on="1"/>
        <pt x="32" y="467" on="1"/>
        <pt x="107" y="477" on="1"/>
        <pt x="111" y="517" on="0"/>
        <pt x="124" y="580" on="0"/>
        <pt x="145" y="631" on="0"/>
        <pt x="176" y="671" on="0"/>
        <pt x="197" y="689" on="1"/>
        <pt x="235" y="721" on="0"/>
        <pt x="318" y="745" on="0"/>
        <pt x="355" y="745" on="1"/>
        <pt x="393" y="745" on="0"/>
        <pt x="455" y="724" on="0"/>
        <pt x="470" y="704" on="1"/>
        <pt x="518" y="725" on="1"/>
        <pt x="532" y="717" on="1"/>
        <pt x="528" y="575" on="1"/>
        <pt x="528" y="210" on="1"/>
        <pt x="528" y="171" on="0"/>
        <pt x="529" y="92" on="0"/>
        <pt x="530" y="53" on="1"/>
      </contour>
    </TTGlyph>
    <TTGlyph name="f_t" xMin="32" yMin="-10" xMax="663" yMax="745">
      <contour>
        <pt x="663" y="52" on="1"/>
        <pt x="644" y="25" on="0"/>
        <pt x="578" y="-10" on="0"/>
        <pt x="533" y="-10" on="1"/>
        <pt x="474" y="-10" on="0"/>
        <pt x="408" y="48" on="0"/>
        <pt x="408" y="109" on="1"/>
        <pt x="408" y="134" on="0"/>
        <pt x="409" y="175" on="0"/>
        <pt x="409" y="204" on="1"/>
        <pt x="409" y="418" on="1"/>
        <pt x="217" y="418" on="1"/>
        <pt x="217" y="210" on="1"/>
        <pt x="217" y="171" on="0"/>
        <pt x="218" y="94" on="0"/>
        <pt x="219" y="55" on="1"/>
        <pt x="301" y="40" on="1"/>
        <pt x="301" y="0" on="1"/>
        <pt x="34" y="0" on="1"/>
        <pt x="34" y="40" on="1"/>
        <pt x="104" y="53" on="1"/>
        <pt x="105" y="93" on="0"/>
        <pt x="106" y="171" on="0"/>
        <pt x="106" y="210" on="1"/>
        <pt x="106" y="418" on="1"/>
        <pt x="32" y="418" on="1"/>
        <pt x="32" y="467" on="1"/>
        <pt x="107" y="477" on="1"/>
        <pt x="115" y="556" on="0"/>
        <pt x="151" y="649" on="0"/>
        <pt x="182" y="681" on="1"/>
        <pt x="217" y="716" on="0"/>
        <pt x="294" y="745" on="0"/>
        <pt x="332" y="745" on="1"/>
        <pt x="372" y="745" on="0"/>
        <pt x="426" y="717" on="0"/>
        <pt x="434" y="690" on="1"/>
        <pt x="434" y="666" on="0"/>
        <pt x="400" y="634" on="0"/>
        <pt x="374" y="634" on="1"/>
        <pt x="334" y="634" on="0"/>
        <pt x="295" y="682" on="1"/>
        <pt x="279" y="698" on="1"/>
        <pt x="271" y="692" on="0"/>
        <pt x="257" y="678" on="0"/>
        <pt x="251" y="668" on="1"/>
        <pt x="231" y="639" on="0"/>
        <pt x="213" y="547" on="0"/>
        <pt x="215" y="476" on="1"/>
        <pt x="419" y="476" on="1"/>
        <pt x="444" y="616" on="1"/>
        <pt x="523" y="616" on="1"/>
        <pt x="521" y="476" on="1"/>
        <pt x="644" y="476" on="1"/>
        <pt x="644" y="418" on="1"/>
        <pt x="520" y="418" on="1"/>
        <pt x="520" y="129" on="1"/>
        <pt x="520" y="91" on="0"/>
        <pt x="549" y="57" on="0"/>
        <pt x="575" y="57" on="1"/>
        <pt x="589" y="57" on="0"/>
        <pt x="617" y="68" on="0"/>
        <pt x="636" y="83" on="1"/>
      </contour>
    </TTGlyph>
    <TTGlyph name="figuredash" xMin="40" yMin="214" xMax="474" yMax="289">
      <contour>
        <pt x="40" y="289" on="1"/>
        <pt x="474" y="289" on="1"/>
        <pt x="474" y="214" on="1"/>
        <pt x="40" y="214" on="1"/>
      </contour>
    </TTGlyph>
    <TTGlyph name="five" xMin="37" yMin="-15" xMax="475" yMax="641">
      <contour>
        <pt x="152" y="394" on="1"/>
        <pt x="201" y="405" on="0"/>
        <pt x="248" y="405" on="1"/>
        <pt x="297" y="405" on="0"/>
        <pt x="380" y="379" on="0"/>
        <pt x="441" y="328" on="0"/>
        <pt x="475" y="251" on="0"/>
        <pt x="475" y="200" on="1"/>
        <pt x="475" y="150" on="0"/>
        <pt x="439" y="70" on="0"/>
        <pt x="375" y="15" on="0"/>
        <pt x="287" y="-15" on="0"/>
        <pt x="234" y="-15" on="1"/>
        <pt x="150" y="-15" on="0"/>
        <pt x="45" y="64" on="0"/>
        <pt x="37" y="130" on="1"/>
        <pt x="50" y="175" on="0"/>
        <pt x="93" y="175" on="1"/>
        <pt x="116" y="175" on="0"/>
        <pt x="146" y="144" on="0"/>
        <pt x="155" y="100" on="1"/>
        <pt x="167" y="42" on="1"/>
        <pt x="183" y="37" on="0"/>
        <pt x="210" y="33" on="0"/>
        <pt x="224" y="33" on="1"/>
        <pt x="289" y="33" on="0"/>
        <pt x="359" y="122" on="0"/>
        <pt x="359" y="194" on="1"/>
        <pt x="359" y="263" on="0"/>
        <pt x="287" y="339" on="0"/>
        <pt x="218" y="339" on="1"/>
        <pt x="171" y="339" on="0"/>
        <pt x="122" y="328" on="1"/>
        <pt x="94" y="341" on="1"/>
        <pt x="115" y="641" on="1"/>
        <pt x="455" y="641" on="1"/>
        <pt x="455" y="539" on="1"/>
        <pt x="162" y="539" on="1"/>
      </contour>
    </TTGlyph>
    <TTGlyph name="five.dnom" xMin="34" yMin="-8" xMax="324" yMax="394">
      <component glyphName="five.sups" x="0" y="-419" flags="0x204"/>
    </TTGlyph>
    <TTGlyph name="five.lf" xMin="33" yMin="-15" xMax="471" yMax="641">
      <contour>
        <pt x="148" y="394" on="1"/>
        <pt x="197" y="405" on="0"/>
        <pt x="244" y="405" on="1"/>
        <pt x="293" y="405" on="0"/>
        <pt x="376" y="379" on="0"/>
        <pt x="437" y="328" on="0"/>
        <pt x="471" y="251" on="0"/>
        <pt x="471" y="200" on="1"/>
        <pt x="471" y="150" on="0"/>
        <pt x="435" y="70" on="0"/>
        <pt x="371" y="15" on="0"/>
        <pt x="283" y="-15" on="0"/>
        <pt x="230" y="-15" on="1"/>
        <pt x="146" y="-15" on="0"/>
        <pt x="41" y="64" on="0"/>
        <pt x="33" y="130" on="1"/>
        <pt x="46" y="175" on="0"/>
        <pt x="89" y="175" on="1"/>
        <pt x="112" y="175" on="0"/>
        <pt x="142" y="144" on="0"/>
        <pt x="151" y="100" on="1"/>
        <pt x="163" y="42" on="1"/>
        <pt x="179" y="37" on="0"/>
        <pt x="206" y="33" on="0"/>
        <pt x="220" y="33" on="1"/>
        <pt x="285" y="33" on="0"/>
        <pt x="355" y="122" on="0"/>
        <pt x="355" y="194" on="1"/>
        <pt x="355" y="263" on="0"/>
        <pt x="283" y="339" on="0"/>
        <pt x="214" y="339" on="1"/>
        <pt x="167" y="339" on="0"/>
        <pt x="118" y="328" on="1"/>
        <pt x="90" y="341" on="1"/>
        <pt x="111" y="641" on="1"/>
        <pt x="451" y="641" on="1"/>
        <pt x="451" y="539" on="1"/>
        <pt x="158" y="539" on="1"/>
      </contour>
    </TTGlyph>
    <TTGlyph name="five.numr" xMin="34" yMin="249" xMax="324" yMax="651">
      <component glyphName="five.sups" x="0" y="-162" flags="0x204"/>
    </TTGlyph>
    <TTGlyph name="five.osf" xMin="33" yMin="-135" xMax="471" yMax="521">
      <contour>
        <pt x="148" y="274" on="1"/>
        <pt x="197" y="285" on="0"/>
        <pt x="244" y="285" on="1"/>
        <pt x="293" y="285" on="0"/>
        <pt x="376" y="259" on="0"/>
        <pt x="437" y="208" on="0"/>
        <pt x="471" y="131" on="0"/>
        <pt x="471" y="80" on="1"/>
        <pt x="471" y="30" on="0"/>
        <pt x="435" y="-50" on="0"/>
        <pt x="371" y="-105" on="0"/>
        <pt x="283" y="-135" on="0"/>
        <pt x="230" y="-135" on="1"/>
        <pt x="146" y="-135" on="0"/>
        <pt x="41" y="-56" on="0"/>
        <pt x="33" y="10" on="1"/>
        <pt x="46" y="55" on="0"/>
        <pt x="89" y="55" on="1"/>
        <pt x="112" y="55" on="0"/>
        <pt x="142" y="24" on="0"/>
        <pt x="151" y="-20" on="1"/>
        <pt x="163" y="-78" on="1"/>
        <pt x="179" y="-83" on="0"/>
        <pt x="206" y="-87" on="0"/>
        <pt x="220" y="-87" on="1"/>
        <pt x="285" y="-87" on="0"/>
        <pt x="355" y="2" on="0"/>
        <pt x="355" y="74" on="1"/>
        <pt x="355" y="143" on="0"/>
        <pt x="283" y="219" on="0"/>
        <pt x="214" y="219" on="1"/>
        <pt x="167" y="219" on="0"/>
        <pt x="118" y="208" on="1"/>
        <pt x="90" y="221" on="1"/>
        <pt x="111" y="521" on="1"/>
        <pt x="451" y="521" on="1"/>
        <pt x="451" y="419" on="1"/>
        <pt x="158" y="419" on="1"/>
      </contour>
    </TTGlyph>
    <TTGlyph name="five.subs" xMin="34" yMin="-224" xMax="324" yMax="178">
      <component glyphName="five.sups" x="0" y="-635" flags="0x204"/>
    </TTGlyph>
    <TTGlyph name="five.sups" xMin="34" yMin="411" xMax="324" yMax="813">
      <contour>
        <pt x="114" y="663" on="1"/>
        <pt x="128" y="666" on="0"/>
        <pt x="157" y="668" on="0"/>
        <pt x="173" y="668" on="1"/>
        <pt x="241" y="668" on="0"/>
        <pt x="324" y="604" on="0"/>
        <pt x="324" y="542" on="1"/>
        <pt x="324" y="480" on="0"/>
        <pt x="237" y="411" on="0"/>
        <pt x="169" y="411" on="1"/>
        <pt x="109" y="411" on="0"/>
        <pt x="36" y="467" on="0"/>
        <pt x="34" y="506" on="1"/>
        <pt x="43" y="541" on="0"/>
        <pt x="73" y="541" on="1"/>
        <pt x="89" y="541" on="0"/>
        <pt x="109" y="519" on="0"/>
        <pt x="114" y="489" on="1"/>
        <pt x="121" y="451" on="1"/>
        <pt x="131" y="449" on="0"/>
        <pt x="148" y="446" on="0"/>
        <pt x="157" y="446" on="1"/>
        <pt x="194" y="446" on="0"/>
        <pt x="236" y="495" on="0"/>
        <pt x="236" y="537" on="1"/>
        <pt x="236" y="578" on="0"/>
        <pt x="195" y="622" on="0"/>
        <pt x="154" y="622" on="1"/>
        <pt x="137" y="622" on="0"/>
        <pt x="105" y="618" on="0"/>
        <pt x="89" y="615" on="1"/>
        <pt x="71" y="627" on="1"/>
        <pt x="85" y="813" on="1"/>
        <pt x="309" y="813" on="1"/>
        <pt x="309" y="733" on="1"/>
        <pt x="119" y="733" on="1"/>
      </contour>
    </TTGlyph>
    <TTGlyph name="five.tosf" xMin="37" yMin="-135" xMax="475" yMax="521">
      <contour>
        <pt x="152" y="274" on="1"/>
        <pt x="201" y="285" on="0"/>
        <pt x="248" y="285" on="1"/>
        <pt x="297" y="285" on="0"/>
        <pt x="380" y="259" on="0"/>
        <pt x="441" y="208" on="0"/>
        <pt x="475" y="131" on="0"/>
        <pt x="475" y="80" on="1"/>
        <pt x="475" y="30" on="0"/>
        <pt x="439" y="-50" on="0"/>
        <pt x="375" y="-105" on="0"/>
        <pt x="287" y="-135" on="0"/>
        <pt x="234" y="-135" on="1"/>
        <pt x="150" y="-135" on="0"/>
        <pt x="45" y="-56" on="0"/>
        <pt x="37" y="10" on="1"/>
        <pt x="50" y="55" on="0"/>
        <pt x="93" y="55" on="1"/>
        <pt x="116" y="55" on="0"/>
        <pt x="146" y="24" on="0"/>
        <pt x="155" y="-20" on="1"/>
        <pt x="167" y="-78" on="1"/>
        <pt x="183" y="-83" on="0"/>
        <pt x="210" y="-87" on="0"/>
        <pt x="224" y="-87" on="1"/>
        <pt x="289" y="-87" on="0"/>
        <pt x="359" y="2" on="0"/>
        <pt x="359" y="74" on="1"/>
        <pt x="359" y="143" on="0"/>
        <pt x="287" y="219" on="0"/>
        <pt x="218" y="219" on="1"/>
        <pt x="171" y="219" on="0"/>
        <pt x="122" y="208" on="1"/>
        <pt x="94" y="221" on="1"/>
        <pt x="115" y="521" on="1"/>
        <pt x="455" y="521" on="1"/>
        <pt x="455" y="419" on="1"/>
        <pt x="162" y="419" on="1"/>
      </contour>
    </TTGlyph>
    <TTGlyph name="fiveeighths" xMin="52" yMin="-25" xMax="821" yMax="666">
      <component glyphName="fraction" x="376" y="0" flags="0x4"/>
      <component glyphName="five.sups" x="18" y="-162" flags="0x4"/>
      <component glyphName="eight.sups" x="493" y="-419" flags="0x4"/>
    </TTGlyph>
    <TTGlyph name="four" xMin="20" yMin="0" xMax="498" yMax="651">
      <contour>
        <pt x="295" y="255" on="1"/>
        <pt x="295" y="537" on="1"/>
        <pt x="93" y="255" on="1"/>
      </contour>
      <contour>
        <pt x="498" y="174" on="1"/>
        <pt x="398" y="174" on="1"/>
        <pt x="398" y="0" on="1"/>
        <pt x="295" y="0" on="1"/>
        <pt x="295" y="174" on="1"/>
        <pt x="20" y="174" on="1"/>
        <pt x="20" y="240" on="1"/>
        <pt x="322" y="651" on="1"/>
        <pt x="398" y="651" on="1"/>
        <pt x="398" y="255" on="1"/>
        <pt x="498" y="255" on="1"/>
      </contour>
    </TTGlyph>
    <TTGlyph name="four.dnom" xMin="30" yMin="1" xMax="344" yMax="401">
      <component glyphName="four.sups" x="0" y="-419" flags="0x204"/>
    </TTGlyph>
    <TTGlyph name="four.lf" xMin="24" yMin="0" xMax="502" yMax="651">
      <contour>
        <pt x="299" y="255" on="1"/>
        <pt x="299" y="537" on="1"/>
        <pt x="97" y="255" on="1"/>
      </contour>
      <contour>
        <pt x="502" y="174" on="1"/>
        <pt x="402" y="174" on="1"/>
        <pt x="402" y="0" on="1"/>
        <pt x="299" y="0" on="1"/>
        <pt x="299" y="174" on="1"/>
        <pt x="24" y="174" on="1"/>
        <pt x="24" y="240" on="1"/>
        <pt x="326" y="651" on="1"/>
        <pt x="402" y="651" on="1"/>
        <pt x="402" y="255" on="1"/>
        <pt x="502" y="255" on="1"/>
      </contour>
    </TTGlyph>
    <TTGlyph name="four.numr" xMin="30" yMin="258" xMax="344" yMax="658">
      <component glyphName="four.sups" x="0" y="-162" flags="0x204"/>
    </TTGlyph>
    <TTGlyph name="four.osf" xMin="24" yMin="-130" xMax="502" yMax="521">
      <contour>
        <pt x="299" y="125" on="1"/>
        <pt x="299" y="407" on="1"/>
        <pt x="97" y="125" on="1"/>
      </contour>
      <contour>
        <pt x="502" y="44" on="1"/>
        <pt x="402" y="44" on="1"/>
        <pt x="402" y="-130" on="1"/>
        <pt x="299" y="-130" on="1"/>
        <pt x="299" y="44" on="1"/>
        <pt x="24" y="44" on="1"/>
        <pt x="24" y="110" on="1"/>
        <pt x="326" y="521" on="1"/>
        <pt x="402" y="521" on="1"/>
        <pt x="402" y="125" on="1"/>
        <pt x="502" y="125" on="1"/>
      </contour>
    </TTGlyph>
    <TTGlyph name="four.subs" xMin="30" yMin="-215" xMax="344" yMax="185">
      <component glyphName="four.sups" x="0" y="-635" flags="0x204"/>
    </TTGlyph>
    <TTGlyph name="four.sups" xMin="30" yMin="420" xMax="344" yMax="820">
      <contour>
        <pt x="206" y="577" on="1"/>
        <pt x="206" y="742" on="1"/>
        <pt x="86" y="577" on="1"/>
      </contour>
      <contour>
        <pt x="344" y="509" on="1"/>
        <pt x="283" y="509" on="1"/>
        <pt x="283" y="420" on="1"/>
        <pt x="206" y="420" on="1"/>
        <pt x="206" y="509" on="1"/>
        <pt x="30" y="509" on="1"/>
        <pt x="30" y="564" on="1"/>
        <pt x="224" y="820" on="1"/>
        <pt x="283" y="820" on="1"/>
        <pt x="283" y="577" on="1"/>
        <pt x="344" y="577" on="1"/>
      </contour>
    </TTGlyph>
    <TTGlyph name="four.tosf" xMin="20" yMin="-130" xMax="498" yMax="521">
      <contour>
        <pt x="295" y="125" on="1"/>
        <pt x="295" y="407" on="1"/>
        <pt x="93" y="125" on="1"/>
      </contour>
      <contour>
        <pt x="498" y="44" on="1"/>
        <pt x="398" y="44" on="1"/>
        <pt x="398" y="-130" on="1"/>
        <pt x="295" y="-130" on="1"/>
        <pt x="295" y="44" on="1"/>
        <pt x="20" y="44" on="1"/>
        <pt x="20" y="110" on="1"/>
        <pt x="322" y="521" on="1"/>
        <pt x="398" y="521" on="1"/>
        <pt x="398" y="125" on="1"/>
        <pt x="498" y="125" on="1"/>
      </contour>
    </TTGlyph>
    <TTGlyph name="fraction" xMin="-181" yMin="-25" xMax="321" yMax="666">
      <contour>
        <pt x="-181" y="4" on="1"/>
        <pt x="281" y="666" on="1"/>
        <pt x="321" y="637" on="1"/>
        <pt x="-141" y="-25" on="1"/>
      </contour>
    </TTGlyph>
</ttFont>
